<svg width="43" height="102" fill="none" xmlns="http://www.w3.org/2000/svg" preserveAspectRatio="none"><path d="M2.409 1c-.066 16.79-1 66.06-.909 82.5.094 16.792 3.5 10 27.5 8M2 1.073c1.07 17.058.794 66.632 1 82.427.248 18.907-6 11.5 26 9" stroke="#E0DFFF" stroke-width="2" stroke-linecap="round"/><g clip-path="url(#a)"><path fill-rule="evenodd" clip-rule="evenodd" d="M24.655 86.893a.979.979 0 0 1-.79-1.144.996.996 0 0 1 1.17-.77l.438.084c.241-.098.521-.103.78.006.263.111.526.217.788.317 1.35.293 2.51.577 3.57.837 1.327.326 2.498.614 3.693.83 1.943.206 3.93.274 6.001.31l.015-.013a1.066 1.066 0 0 1 1.424.034l.56.007h.032l.353-.182c.498-.254 1.116-.082 1.38.384.16.283.152.61.009.88a.989.989 0 0 1-1.006.879l-.291-.004c-2.15 1.16-4.21 2.51-6.267 3.858l-.431.282c-.56.434-1.11.835-1.664 1.209a23.378 23.378 0 0 1-3.254 1.844c-1.174.657-2.357 1.245-3.553 1.719-.311.123-.648.092-.915-.057l-.188.056c-.54.161-1.11-.118-1.274-.623-.164-.505.14-1.045.679-1.206 1.702-.508 3.08-1.015 4.293-1.575 1.378-.775 2.774-1.666 4.218-2.607l.442-.29c.944-.732 1.937-1.572 3.09-2.566a27.588 27.588 0 0 1-3.886-.402c-2.537-.272-5.056-.774-7.592-1.725a74.333 74.333 0 0 0-1.824-.372Z" fill="#E0DFFF"/></g><defs><clipPath id="a"><path fill="#fff" transform="matrix(0 1 1 0 24.001 80)" d="M0 0h22v19H0z"/></clipPath></defs></svg>
