<svg width="248" height="65" fill="none" xmlns="http://www.w3.org/2000/svg" preserveAspectRatio="none"><path d="m11.192 8.648 227.426-2.647 3.455 52.767-234.1-.866" fill="#D3FFD2"/><path d="M9.46 6.681c81.23-1.846 159.954.55 232.61 1.425M9.921 6.966c49.36.183 102.934-.115 228.937 1.276m2.141-1.785c-4.022 16.463-3.029 36.333-.2 51.791M238.327 6.43c2.69 19.422 2.281 40.038.67 52.042m2.037-2.05c-63.158.544-129.32 1.663-232.192 2.043m231.861-1.58c-52.668 2.904-101.819 1.703-231.974 1.241M6.5 56.145c.87-12.86 2.986-24.865 4.431-48.351m-.792 50.244C7.109 36.26 7.275 16.847 9.207 8.73" stroke="#D3FFD2" stroke-width="11.76" stroke-linecap="round"/></svg>
