<svg width="296" height="216" fill="none" xmlns="http://www.w3.org/2000/svg" preserveAspectRatio="none"><g clip-path="url(#clip0_19831_18326)"><path d="M56.543 30.811c-.645.309-2.111-.07-2.884-.346-.779-.271-1.503-.468-1.76-1.283-.255-.82.102-2.73.214-3.624.106-.894-.037-1.282.453-1.745.49-.469 1.674-1.102 2.474-1.049.794.048 1.657.788 2.313 1.346.656.56 1.504 1.123 1.62 2.007.113.889-.5 2.576-.937 3.31-.438.74-1.355.873-1.685 1.107-.33.234-.208.304-.288.304m1.349-.815c-.666.48-2.938 1.155-3.844 1.102-.911-.053-1.242-.607-1.604-1.426-.363-.82-.544-2.619-.57-3.492-.027-.872-.113-1.15.404-1.745.517-.596 1.925-1.666 2.698-1.826.773-.165 1.183.336 1.94.847.763.51 2.357 1.389 2.623 2.203.261.82-.65 2.038-1.04 2.703-.383.666-1.002 1.086-1.273 1.299-.272.213-.246-.085-.347-.027" fill="#D3FFD2"/><path d="M56.319 30.896c-.752.5-1.535.474-2.271.154-.736-.319-1.658-1.314-2.138-2.065-.48-.75-.874-1.58-.74-2.432.138-.846.99-1.948 1.561-2.66.57-.714 1.136-1.427 1.86-1.608.726-.176 1.781.037 2.49.532.71.5 1.584 1.506 1.765 2.454.176.952-.395 2.405-.704 3.251-.309.852-.88 1.48-1.162 1.837-.282.356-.48.345-.522.313m.703-.66c-.703.33-1.834.74-2.66.597-.82-.144-1.695-.799-2.276-1.453-.581-.655-1.285-1.666-1.221-2.486.07-.82.88-1.655 1.626-2.427.746-.776 2.154-2.027 2.852-2.208.698-.181.837.357 1.328 1.117.49.767 1.412 2.528 1.62 3.46.208.931-.032 1.346-.384 2.123-.346.777-1.455 2.284-1.716 2.544-.261.266.17-.649.165-.958" stroke="#D3FFD2" stroke-width="2" stroke-linecap="round"/><path d="M196.204 159.297c1.138.873 3.328 3.403 6.052 4.792 2.724 1.389 6.836 3.794 10.302 3.55 3.465-.243 9.008-4.118 10.489-5.002m-28.131-6.418c1.181 1.19 5.548 7.748 7.925 9.934 2.379 2.182 3.062 3.322 6.341 3.17 3.272-.148 11.004-2.807 13.31-4.082" stroke="#FFE3C7" stroke-width="2" stroke-linecap="round"/><path d="M186.379 114.909c-.666-.149-1.53-.436-1.839-1.037-.304-.596-.117-1.906.005-2.544.123-.644.144-.825.736-1.288.597-.463 1.972-1.4 2.825-1.48.859-.08 1.797.516 2.314 1.001.517.479.64 1.309.784 1.889.144.575.437.947.069 1.57-.368.628-1.439 1.98-2.282 2.193-.847.207-2.388-.799-2.782-.916-.39-.117.314.192.437.213m.192.357c-.704-.144-2.154-.41-2.511-.9-.352-.495.32-1.367.378-2.054.059-.686-.442-1.432-.026-2.07.415-.639 1.759-1.544 2.516-1.756.757-.219 1.455-.006 2.015.452.56.463.943 1.453 1.349 2.315.399.862 1.274 2.203 1.076 2.858-.197.655-1.519.756-2.26 1.075-.746.314-1.876.857-2.196.82-.32-.043.256-1.012.288-1.065" fill="#FFDAD6"/><path d="M187.45 114.553c-.757-.058-1.626-.484-2.111-.91-.485-.431-.666-1.117-.805-1.66-.138-.543-.469-1.065-.032-1.602.437-.538 1.861-1.426 2.655-1.623.794-.197 1.45.133 2.111.436.661.303 1.493.719 1.866 1.373.373.66.586 1.858.368 2.571-.213.718-.794 1.389-1.674 1.729-.88.336-2.937.352-3.604.298-.672-.053-.517-.457-.405-.622m3.46-.351c-.736.079-2.591.196-3.401.17-.811-.032-1.152.17-1.456-.341-.304-.516-.533-2.102-.368-2.741.171-.644.752-.67 1.387-1.112.639-.447 1.684-1.33 2.441-1.559.762-.224 1.663-.352 2.116.197.448.548.4 2.4.603 3.086.202.687.927.474.608 1.033-.326.559-2.175 2.049-2.543 2.326-.363.282.368-.533.352-.66" stroke="#FFDAD6" stroke-width="2" stroke-linecap="round"/><path d="M176 39.588c1.733 1.501 9.441 11.038 10.529 9.931 1.093-1.107-5.715-14.252-3.998-16.573 1.722-2.32 12.709 3.88 14.308 2.646 1.605-1.23-6.808-8.67-4.681-10.038 2.128-1.362 15.434 3.39 17.443 1.847 2.01-1.543-7.362-8.893-5.384-11.113 1.973-2.219 14.138-1.676 17.23-2.203m-43.81 26.765c1.839 1.165 8.593 8.297 9.452 6.77.863-1.528-5.816-14.386-4.297-15.945 1.514-1.56 12.24 7.583 13.397 6.577 1.157-1.01-9.122-11.07-6.461-12.634 2.665-1.565 20.135 5.22 22.443 3.252 2.308-1.975-10.363-12.79-8.599-15.083 1.77-2.294 16.281 1.134 19.192 1.325" stroke="#D3FFD2" stroke-width="2" stroke-linecap="round"/><path d="M138.567 27.425c-.826.303-1.898-.257-2.623-.625-.73-.367-1.38-.771-1.738-1.57-.362-.8-.565-2.232-.421-3.215.15-.983.571-2.076 1.306-2.691.736-.625 2.149-.974 3.114-1.029.965-.055 2.031-.009 2.681.68.651.689 1.157 2.269 1.216 3.453.058 1.185-.022 2.93-.869 3.638-.843.698-3.364.459-4.206.57-.843.119-.981.11-.837.091m1.476.248c-.826-.358-1.962-1.635-2.74-2.094-.778-.46-1.866.285-1.924-.634-.054-.928 1.076-4.05 1.588-4.923.512-.863.709-.064 1.488-.285.778-.211 2.361-1.221 3.188-1.01.831.211 1.258 1.148 1.78 2.296.528 1.139 1.589 3.72 1.365 4.565-.219.845-1.951.202-2.682.505-.73.303-1.37 1.12-1.7 1.332-.331.211-.304-.184-.277-.064" stroke="#FFDAD6" stroke-width="2" stroke-linecap="round"/><path d="M15.665 72.065C13.68 69.232 8.846 59.892 5.03 54.843 1.21 49.795-5.245 44.232-7.233 41.79m25.054 30.265c-2.051-3.16-8.675-13.972-12.855-19.256C.789 47.513-5.166 42.656-7.244 40.344" stroke="#FFE3C7" stroke-width="2" stroke-linecap="round"/><path d="M98.015 60.446c1.402-.65 4.676-3.63 6.781-4.444 2.106-.81 3.988-1.554 5.848-.431 1.861 1.117 4.5 5.013 5.321 7.163.815 2.15.432 3.598-.416 5.737-.842 2.14-3.854 5.812-4.649 7.1M96 61.249c1.69-.862 7.853-2.586 10.374-3.129 2.522-.537 3.22-.73 4.745-.112 1.525.612 3.401 2.14 4.414 3.795 1.013 1.65 2.074 3.603 1.669 6.12-.406 2.517-3.551 8.026-4.105 8.99" stroke="#FFF0C9" stroke-width="2" stroke-linecap="round"/><path d="M252.891 136.812c-.793-5.577-.288-9.404-2.154-13.141m1.59 12.361c-.433-4.291-.603-9.09-.286-14.017m1.515-.864c7.54 3.135 14.876 2.179 29.891 6.15m-31.244-5.896c11.407 2.554 20.197 2.642 31.726 4.359m1.079 1.93c-3.356.236-3.446 4.546-5.266 8.805m3.063-10.105c-.598 1.621-.39 5.371-2.561 11.313m2.972-1.262c-12.031 1.218-23.086.74-29.006-1.849m26.901 1.932c-6.816 1.183-13.406-.488-27.802-1.166" stroke="#E0DFFF" stroke-width="2" stroke-linecap="round"/><path d="M183.576 226.218c-2.209-3.235-10.969-16.251-13.217-19.597m13.454 18.232c-2.448-3.27-12.412-15.588-14.813-18.465M229.798 90.415c3.356-2.02 16.854-10.018 20.323-12.071M231.147 90.73c3.406-2.257 16.275-11.498 19.285-13.73" stroke="#D3FFD2" stroke-width="2" stroke-linecap="round"/><path d="M247.567 199.425c-.826.303-1.898-.257-2.623-.625-.73-.367-1.38-.771-1.738-1.57-.362-.799-.565-2.232-.421-3.215.15-.983.571-2.076 1.306-2.691.736-.625 2.149-.974 3.114-1.029.965-.055 2.031-.009 2.681.68.651.689 1.157 2.269 1.216 3.453.058 1.185-.022 2.93-.869 3.638-.843.698-3.364.459-4.206.569-.843.12-.981.11-.837.092m1.476.248c-.826-.358-1.962-1.635-2.74-2.094-.778-.459-1.866.285-1.924-.634-.054-.928 1.076-4.05 1.588-4.923.512-.863.709-.064 1.488-.285.778-.211 2.361-1.221 3.188-1.01.831.211 1.258 1.148 1.78 2.296.528 1.139 1.589 3.72 1.365 4.565-.219.845-1.951.202-2.682.505-.73.303-1.37 1.121-1.7 1.332-.331.211-.304-.184-.277-.064" stroke="#D1ECFF" stroke-width="2" stroke-linecap="round"/></g><defs><clipPath id="clip0_19831_18326"><path fill="#fff" d="M0 0h296v216H0z"/></clipPath></defs></svg>
