<svg width="94" height="20" fill="none" xmlns="http://www.w3.org/2000/svg"><path d="M29.489 8.742V8.57S30.6 8.4 30.6 7.115V5.577c0-1.627-.769-2.396-2.396-2.396h-4.192v11.98h4.396c1.627 0 2.396-.769 2.396-2.396v-2.227c0-1.623-1.315-1.796-1.315-1.796Zm-3.597-3.85h1.797c.769 0 1.027.258 1.027 1.027v1.027c0 .77-.258 1.027-1.027 1.027h-1.797v-3.08Zm3.027 7.531c0 .77-.257 1.027-1.027 1.027h-2V9.685h2c.77 0 1.027.257 1.027 1.026v1.712ZM34.289 13.45h4.535v1.711h-6.416V3.181h1.881V13.45ZM46.815 12.934c0 1.627-.769 2.397-2.396 2.397h-2.396c-1.627 0-2.396-.77-2.396-2.396V3.18h1.888l-.003 9.411c0 .77.257 1.027 1.026 1.027h1.37c.769 0 1.027-.258 1.027-1.027l-.004-9.411h1.888v9.753h-.004ZM50.3 8.23h3.592v1.712H50.3v3.508h4.792v1.711h-6.673V3.181h6.512v1.711H50.3v3.339ZM66.811 8.23h3.593v1.712H66.81v3.508h4.793v1.711H64.93V3.181h6.5v1.711h-4.62v3.339ZM77.55 3.18h-2.184l-2.95 11.981h1.98l.605-2.823h2.907l.604 2.823h1.98l-2.941-11.98Zm-2.203 7.447 1.027-4.62h.173l1.027 4.62h-2.227ZM85.37 15.161 83.364 7.8h-.173l.004 7.361h-1.885V3.181h2.45l2.254 8.3h.173l2.254-8.3h2.454v11.98h-1.888l.004-7.361h-.17l-2 7.361H85.37ZM62.008 8.742V8.57s1.112-.17 1.112-1.454V5.577c0-1.627-.77-2.396-2.396-2.396H56.53v11.98h4.396c1.627 0 2.397-.769 2.397-2.396v-2.227c0-1.623-1.316-1.796-1.316-1.796Zm-3.592-3.85h1.796c.77 0 1.027.258 1.027 1.027v1.027c0 .77-.258 1.027-1.027 1.027h-1.796v-3.08Zm3.027 7.531c0 .77-.258 1.027-1.027 1.027h-2V9.685h2c.77 0 1.027.257 1.027 1.026v1.712ZM6.992 12.22V6.107H13.1v6.107H6.992v.004Zm0-12.22v3.054h9.162v12.215H3.939V0H.885v18.327h18.327V0H6.992ZM47.912 19.961l.889-2.312h.33l.947 2.312h-.35l-.27-.7h-.965l-.254.7h-.327Zm.666-.95h.784l-.242-.642a8.337 8.337 0 0 1-.166-.481c-.03.15-.069.296-.123.442l-.254.681ZM51.13 19.961v-2.312h.316l1.216 1.816v-1.816h.292v2.312h-.315l-1.216-1.82v1.82h-.292ZM53.523 19.961v-2.312h1.673v.273h-1.365v.708h1.28v.273h-1.28v.789h1.42v.273h-1.728v-.004ZM55.712 19.961v-2.312h.461l.547 1.639c.05.154.088.265.111.342.027-.084.066-.207.123-.369l.554-1.608h.412v2.312h-.297V18.03l-.673 1.935h-.277l-.669-1.97v1.97h-.292v-.004ZM58.466 19.961v-2.312h1.673v.273h-1.366v.708h1.281v.273h-1.28v.789h1.419v.273h-1.727v-.004ZM61.25 19.961v-2.038h-.76v-.274h1.834v.273h-.765v2.039h-.308ZM62.581 19.215l.288-.027a.655.655 0 0 0 .097.285c.05.073.127.134.234.18.108.047.223.07.354.07.115 0 .22-.016.308-.054a.447.447 0 0 0 .2-.142.343.343 0 0 0 .065-.197.292.292 0 0 0-.061-.188.454.454 0 0 0-.208-.135 4.25 4.25 0 0 0-.412-.111c-.211-.05-.361-.1-.446-.146a.62.62 0 0 1-.246-.216.526.526 0 0 1-.08-.288c0-.115.034-.227.1-.327a.623.623 0 0 1 .288-.23c.127-.055.27-.082.423-.082.173 0 .323.027.454.085a.66.66 0 0 1 .304.242c.069.108.107.227.111.366l-.292.023a.464.464 0 0 0-.162-.331c-.092-.073-.223-.111-.404-.111-.184 0-.319.034-.403.1a.303.303 0 0 0-.127.246c0 .084.03.15.088.203.058.054.212.108.462.166.25.058.419.104.511.146a.732.732 0 0 1 .3.235.563.563 0 0 1 .096.327.603.603 0 0 1-.107.346.712.712 0 0 1-.304.254 1.04 1.04 0 0 1-.446.092c-.208 0-.385-.03-.527-.092a.743.743 0 0 1-.458-.689ZM66.54 19.15l.307.077c-.066.25-.18.442-.346.577a.956.956 0 0 1-.612.196c-.25 0-.45-.05-.607-.154a.96.96 0 0 1-.358-.442c-.08-.193-.123-.4-.123-.62 0-.242.046-.45.138-.63a.936.936 0 0 1 .393-.408c.169-.092.357-.139.561-.139.23 0 .427.058.585.177.157.12.269.285.33.497l-.3.069c-.053-.17-.13-.293-.234-.37a.626.626 0 0 0-.385-.115.754.754 0 0 0-.446.127.661.661 0 0 0-.25.342 1.492 1.492 0 0 0 .011.958.62.62 0 0 0 .27.327c.123.07.254.108.392.108a.65.65 0 0 0 .435-.15c.115-.085.196-.235.238-.427ZM67.281 19.961v-2.312h.308v.95h1.2v-.95h.308v2.312h-.308v-1.088h-1.2v1.088h-.308ZM69.658 19.961v-2.312h1.673v.273h-1.365v.708h1.28v.273h-1.28v.789h1.42v.273h-1.728v-.004ZM71.843 19.961v-2.312h.307v1.147l1.15-1.147h.416l-.97.939 1.012 1.377h-.404l-.823-1.17-.377.37v.8h-.311v-.004ZM76.654 19.15l.308.077c-.065.25-.18.442-.346.577a.956.956 0 0 1-.612.196c-.25 0-.45-.05-.607-.154a.96.96 0 0 1-.358-.442c-.08-.193-.123-.4-.123-.62 0-.242.046-.45.139-.63a.935.935 0 0 1 .392-.408c.169-.092.358-.139.561-.139.231 0 .427.058.585.177.158.12.27.285.33.497l-.3.069c-.053-.17-.13-.293-.234-.37a.626.626 0 0 0-.385-.115.755.755 0 0 0-.446.127.662.662 0 0 0-.25.342 1.49 1.49 0 0 0 .012.958.62.62 0 0 0 .27.327c.122.07.253.108.391.108.174 0 .316-.05.435-.15.115-.085.196-.235.239-.427ZM77.293 18.834c0-.384.104-.684.308-.9.207-.215.473-.327.8-.327.215 0 .407.05.577.154a1 1 0 0 1 .392.427c.088.181.134.389.134.62 0 .234-.046.446-.142.63a.947.947 0 0 1-.404.42 1.179 1.179 0 0 1-.557.142c-.22 0-.412-.054-.585-.158-.173-.104-.3-.25-.388-.43a1.297 1.297 0 0 1-.135-.578Zm.315.004c0 .277.073.5.223.658.15.158.339.242.566.242.23 0 .419-.08.569-.242.15-.162.223-.392.223-.689 0-.188-.03-.353-.096-.492a.754.754 0 0 0-.28-.327.764.764 0 0 0-.412-.115.772.772 0 0 0-.558.223c-.158.146-.235.392-.235.742ZM79.94 19.961v-2.312h.461l.546 1.639c.05.154.089.265.112.342.027-.084.065-.207.123-.369l.554-1.608h.411v2.312h-.296V18.03l-.673 1.935H80.9l-.67-1.97v1.97h-.291v-.004ZM82.69 19.961v-2.312h.873c.153 0 .269.008.353.023.112.02.208.054.285.108a.56.56 0 0 1 .185.223c.046.096.069.2.069.316a.71.71 0 0 1-.189.5c-.127.134-.35.204-.677.204h-.592v.938h-.308Zm.303-1.215h.597c.196 0 .338-.039.422-.112.085-.073.124-.177.124-.311a.417.417 0 0 0-.073-.25.324.324 0 0 0-.193-.135 1.208 1.208 0 0 0-.284-.02h-.593v.828ZM84.397 19.961l.888-2.312h.33l.947 2.312h-.35l-.27-.7h-.965l-.254.7h-.326Zm.669-.95h.784l-.242-.642a8.337 8.337 0 0 1-.165-.481c-.031.15-.07.296-.123.442l-.254.681ZM86.85 19.961v-2.312h.316l1.215 1.816v-1.816h.293v2.312h-.316l-1.215-1.82v1.82h-.292ZM89.89 19.96v-.98l-.893-1.335h.373l.458.697c.084.13.161.261.234.392.07-.12.154-.258.254-.408l.45-.68h.358l-.923 1.334v.98h-.312ZM91.857 3.88c0-.126.031-.242.093-.353a.708.708 0 0 1 1.32.35.72.72 0 0 1-.346.608.697.697 0 0 1-.363.096c-.13 0-.25-.031-.357-.097a.69.69 0 0 1-.347-.603Zm.116 0c0 .108.027.204.08.297a.607.607 0 0 0 .216.215c.088.054.188.08.296.08a.572.572 0 0 0 .296-.08.609.609 0 0 0 .216-.215.559.559 0 0 0 .077-.296.581.581 0 0 0-.081-.297.599.599 0 0 0-.511-.296.578.578 0 0 0-.508.292.585.585 0 0 0-.081.3Zm.877-.169c0 .108-.046.181-.143.22l.224.373h-.197l-.18-.323h-.085v.323h-.177v-.847h.246c.108 0 .189.024.239.066.05.042.073.104.073.188Zm-.385.131h.066c.046 0 .08-.011.103-.035a.125.125 0 0 0 .035-.092c0-.046-.012-.077-.035-.096-.023-.02-.057-.027-.107-.027h-.062v.25Z" fill="#C5C5D0"/></svg>