<svg width="57" height="15" fill="none" xmlns="http://www.w3.org/2000/svg"><path d="M47.87 8.388c-.129-.164-.482-.059-.647.047-.164.106-.4.247-.611.283-.212.047-.33.011-.33.011s.33-1.482.483-2.105c.152-.624.576-2.247.411-2.542-.164-.294-1.176-.694-1.611-.658-.448.035-.695.588-.73.882 0 0-.965-.388-2.376.823-1.542 1.33-1.789 2.624-1.812 2.883-.035.376.012.588.012.588s-.506.506-.989.447c-.482-.07-.27-.823-.14-1.223.129-.4 1.081-2.283.917-2.883-.165-.6-1.083-1.2-2.153-.564-1.07.635-1.424 1.305-1.577 1.364-.152.059.248-.823.318-.976.07-.153.353-.541-.023-.741-.377-.212-.977-.306-1.236-.189-.247.118-.859 1.2-1.094 2.165-.235.965-.376 2.412-.376 2.412s-.365.517-.824.517c-.47 0-.423-.411-.33-.882.095-.482.707-2.188.8-2.647.095-.459.307-1.165-.74-1.188-1.036-.024-1.377.823-1.683 1.93-.306 1.105-.282 2.246-.282 2.246s-.235.306-.824.494c-.588.189-.706.083-.706.083s.765-.447 1.024-2.494c.27-2.047-.482-2.153-1.012-2.26-.53-.105-1.106.083-1.6.554-.494.47-.623.776-.623.623.011-.153.176-.706.364-1.059.13-.247.012-.552-.611-.623-.624-.07-.8.13-1.165.859-.365.74-.847 2.447-.965 3.082-.117.647-.2 1.165-.2 1.165s-.388.412-.741.2c-.353-.212-.2-.941.118-1.694.317-.753 1.188-2.447.047-3.06-1.142-.61-2.647.966-2.647.966s.164-.895-.824-1.06c-.976-.164-1.776.565-2.07.836-.33.306-.636.765-.636.612 0-.153.306-.847.389-1.059.094-.212.211-.435-.483-.682-.694-.247-1.07-.047-1.282.27-.212.318-.53 1.13-.694 1.93-.165.811-.342 2.376-.342 2.376s-.447.53-.858.53c-.4 0-.518-.189-.389-.742.13-.54.636-2.74.718-3.117.082-.365.306-.8-.153-1.106-.459-.306-1.376-.483-1.459-.212-.094.259-.13.459-.13.459s-.74-.353-1.74.047c-.965.388-1.742 1.235-2.247 2.365a6.107 6.107 0 0 0-.424 1.564s-1.33 1.06-2.494.612C5.423 8.4 5.529 6.706 5.764 5.988c.224-.706.871-1.33 1.542-1.364.458-.024.447.353.447.353s-1.083.74-.741 1.188c.352.447 1.294.623 1.764.223.483-.4 1.412-2.835-1.376-2.823-2.777.011-3.812 2.53-3.718 3.988.082 1.259.6 1.788.6 1.788s-.094.212-.388.13c-.482-.13-1.024-.883-1.953-.8-.93.094-1.447 1.011-1.565 1.14 0 0-.117.13-.047.224.07.083.153.047.247-.047.094-.082.6-.54 1.06-.517.458.011 1.093.717 1.881.682.789-.035.942-.635.942-.635s.505.706 1.988.74c1.494.048 2.835-1.034 2.823-1.023-.011.012.271 1.024 1.612 1.07 1.341.048 1.941-1.234 1.941-1.234s.012 1.094 1.141 1.153c1.13.058 1.93-.777 1.93-.777s.141.588.835.706.741-.188.777-.388c.035-.2.259-1.377.411-1.93.153-.553.553-1.717 1.306-1.964.753-.247.6.258.26 1.305-.33 1.048-.73 2.236-.518 2.624.211.377 1.576.718 1.705.212.13-.506.189-1.6.53-2.518.33-.93.823-1.365 1.035-1.506.212-.14.977-.435.682.388-.294.824-.94 2.377-.776 2.977.165.6.953 1.035 1.706.906.753-.13.941-.33.941-.33s-.282 2.53.165 3.4c.447.871 1.317.918 1.776.789.47-.13.33-.542.165-1.4-.165-.86-.259-2.506.047-4.247.306-1.742 1.376-3.047 1.894-2.777s-.012 1.835-.153 2.165c-.141.33-.282.941-.741.976-.459.036-.73-.094-.812.189-.082.27 0 .882.577 1.058.576.177 1.517.212 2.164.012.647-.2 1.436-.73 1.436-.73s.047.754.8.871c.753.118 1.411-.188 1.835-.482.423-.282.447-.353.447-.33.012.024.141.848.988.812.847-.035.565-.211.683-.906.117-.694.294-2 .858-2.729.565-.73 1.095-.859 1.318-.741.212.117-.188 1.082-.365 1.47-.164.389-.929 2.083.095 2.706 1.023.624 2.258-.188 2.4-.282.14-.106.529-.388.529-.377 0 .012.482.848 1.459.93.964.082 1.835-.765 1.835-.741.012.023-.165 2.423-.741 3-.577.564-1.459.14-1.812-.553-.353-.694-.341-.765-.588-.788-.247-.012-1.27.623-1.235 1.117.047.483.682 1.67 2.658 1.73 1.989.047 2.812-2.06 2.93-2.306.117-.247.588-1.753.588-1.753s.588-.047 1.235-.506c.66-.459.777-.953.647-1.118Zm-35.258-.247c-.306.659-1 .8-1.353.47-.365-.329-.118-1.823.447-2.646.564-.824 1.247-1.26 1.67-.941 0-.012-.459 2.458-.764 3.117ZM44 8.33c-.283.671-.965.824-1.341.518-.377-.318-.177-1.823.364-2.67.541-.848 1.2-1.295 1.636-1 0-.012-.377 2.482-.66 3.152ZM33.247 3.106c.212.118.741.259.941.035.2-.223.518-.965.682-1.153.165-.188.742-.6 0-.976-.74-.377-1.094-.365-1.282-.33-.188.036-.73.306-.8 1.118-.082.812.177 1.153.459 1.306Zm12.235 9.93c-.035.07-.059.293.247.388.306.094.365-.224.341-.353-.023-.13-.211-.2-.376-.177-.118.024-.177.07-.212.141Zm10.788-.354c-.047-.047-.129.012-.235.095-.106.082-.647.317-.965.2-.317-.118-.74-.495-1.129-.471-.388.035-.553.188-.694.294-.141.106-.4.306-.53.247-.129-.059-.058-.341.036-.553.094-.212.364-.812-.012-.918-.377-.105-.8.365-.8.365s.082-.33-.247-.376c-.33-.047-.73.34-.835.482-.106.141.035-.235.058-.27.024-.048.13-.177.036-.236-.083-.047-.318-.117-.4-.07-.094.047-.236.329-.283.505-.047.177-.129.648-.129.648s-.07.011-.153 0c-.082-.012-.106-.06-.106-.06s.188-.435-.023-.776c-.212-.34-.506-.153-.506-.153s-.13-.106-.341-.059c-.224.048-.577.295-.718.671-.141.377-.106.647-.106.647s-.518.365-.859.188c-.341-.176-.306-.682-.247-.847.059-.176.4-.623.635-.294 0 .012-.294.212-.258.306.035.106.305.177.388.153.13-.035.353-.259.247-.576-.118-.342-.459-.33-.788-.26-.247.06-1.047.507-.812 1.342.165.576.718.612 1.188.494a1.89 1.89 0 0 0 .577-.259s.129.283.505.341c.377.06.718-.2.871-.4.153-.2.177-.258.177-.258s.023.047.14.07c.118.024.189 0 .189 0s-.047.33.106.482c.141.142.353.083.388.036.024-.059.106-.706.235-.93.13-.223.224-.34.377-.388.153-.047.153.059.13.141-.013.07-.166.589-.224.777-.06.2-.07.376.059.435s.364.059.4.012c.035-.047.035-.165.047-.212.011-.047.07-.576.247-.835.164-.247.353-.33.435-.27.082.046 0 .211-.118.576-.117.353-.211.576.083.74.294.154.635-.046.882-.246s.341-.283.541-.118c.2.165.788.459 1.259.47.459.012 1.035-.376 1.176-.552.118-.247.153-.283.106-.33Zm-6.94.118c-.107.2-.295.318-.436.306-.141-.012-.318-.177-.2-.706.118-.53.541-.623.541-.623-.212.352.2.6.2.6s.024.188-.106.423Z" fill="#C5C5D0"/></svg>