<svg width="50" height="49" fill="none" xmlns="http://www.w3.org/2000/svg"><path d="M23.016.838c3.518-.627 8.522.204 11.92 1.718 3.398 1.514 6.215 4.41 8.47 7.362 2.255 2.948 4.414 6.775 5.064 10.33.649 3.555-.1 7.458-1.172 11.005-1.067 3.543-2.745 7.622-5.255 10.262-2.51 2.645-6.218 4.57-9.808 5.588-3.59 1.015-8.04 1.147-11.729.516-3.693-.627-7.51-2.081-10.414-4.298s-5.51-5.705-7.007-9.008A22.979 22.979 0 0 1 1.093 23.49c.239-3.71 1.466-8.268 3.422-11.44 1.956-3.172 4.8-5.684 8.318-7.586C16.351 2.564 23.271 1.138 25.626.642c2.354-.495 1.414.428 1.342.851m8.175 1.143c3.315 1.114 6.924 3.918 9.1 6.894 2.175 2.972 3.494 7.223 3.948 10.958.454 3.73-.136 7.829-1.223 11.432-1.092 3.603-2.817 7.57-5.31 10.186-2.49 2.617-6.176 4.518-9.65 5.513-3.47.995-7.486 1.146-11.175.46-3.685-.692-7.94-2.198-10.94-4.59-3-2.393-5.581-6.264-7.051-9.767-1.47-3.5-2.048-7.534-1.777-11.241.27-3.703 1.494-7.933 3.406-10.993 1.916-3.064 4.94-5.573 8.083-7.378C15.698 2.304 19.602.774 23.334.65c3.734-.127 9.718 2.305 11.61 2.697 1.892.387-.12-.607-.25-.364" fill="#ECECF4"/><path d="M23.016.838c3.518-.627 8.522.204 11.92 1.718 3.398 1.514 6.215 4.41 8.47 7.362 2.255 2.948 4.414 6.775 5.064 10.33.649 3.555-.1 7.458-1.172 11.005-1.067 3.543-2.745 7.622-5.255 10.262-2.51 2.645-6.218 4.57-9.808 5.588-3.59 1.015-8.04 1.147-11.729.516-3.693-.627-7.51-2.081-10.414-4.298s-5.51-5.705-7.007-9.008A22.979 22.979 0 0 1 1.093 23.49c.239-3.71 1.466-8.268 3.422-11.44 1.956-3.172 4.8-5.684 8.318-7.586C16.351 2.564 23.271 1.138 25.626.642c2.354-.495 1.414.428 1.342.851m8.175 1.143c3.315 1.114 6.924 3.918 9.1 6.894 2.175 2.972 3.494 7.223 3.948 10.958.454 3.73-.136 7.829-1.223 11.432-1.092 3.603-2.817 7.57-5.31 10.186-2.49 2.617-6.176 4.518-9.65 5.513-3.47.995-7.486 1.146-11.175.46-3.685-.692-7.94-2.198-10.94-4.59-3-2.393-5.581-6.264-7.051-9.767-1.47-3.5-2.048-7.534-1.777-11.241.27-3.703 1.494-7.933 3.406-10.993 1.916-3.064 4.94-5.573 8.083-7.378C15.698 2.304 19.602.774 23.334.65c3.734-.127 9.718 2.305 11.61 2.697 1.892.387-.12-.607-.25-.364" stroke="#030064" stroke-linecap="round"/><path d="M37.704 33.37c-.054-.035-.108-.053-.18-.035-1.353-2.006-3.085-3.902-4.744-5.745l-.27-.307a.138.138 0 0 0-.037-.09.377.377 0 0 0-.108-.073l-.054-.054-.036-.036c-.054-.108-.18-.18-.307-.108-.505.253-.974.632-1.425.993-.595.47-1.19.94-1.75 1.463a5.46 5.46 0 0 0-.63.669c-.091.126-.019.235.09.289-.397.397-.794.795-1.191 1.21a.205.205 0 0 0-.054.145c0 .054.036.108.072.126l.703.542v.018c.992.994 2.742 2.349 4.6 3.812.27.217.56.434.83.65.126.145.252.308.36.452.055.072.18.09.253.036.036.036.09.072.126.108a.255.255 0 0 0 .109.037.164.164 0 0 0 .144-.073c.018-.036.036-.072.036-.108.018 0 .018.018.036.018a.204.204 0 0 0 .144-.054l3.283-3.595a.202.202 0 0 0 0-.29Zm-9.452-1.246a.318.318 0 0 0 .073.09c.378.326.775.651 1.19 1.012l-1.66-1.264-.162-.109c-.036-.018-.072-.054-.108-.072l-.126-.108.036-.036.036-.037.072-.072c.56-.56 1.515-1.5 2.002-1.969-.523.524-1.569 2.06-1.353 2.565Zm5.664 4.48-1.37-1.047c-.542-.56-1.1-1.102-1.696-1.626.74.56 1.37 1.048 1.46 1.138.722.632.686.524 1.173.94l.596.433a.689.689 0 0 1-.163.163Zm.361.272-.036-.019c.054-.036.108-.072.162-.126l-.126.145ZM12.631 15.722c.036.235.09.47.127.686.216 1.193.433 2.277.83 3.09l.162.614c.054.235.144.524.234.596.92.813 2.327 2.023 3.842 3.18a.19.19 0 0 0 .235 0s0 .017.018.017a.164.164 0 0 0 .126.055.205.205 0 0 0 .144-.055c1.93-2.15 3.373-3.92 4.401-5.401.073-.072.09-.18.09-.271.073-.072.127-.163.2-.217.071-.072.071-.198 0-.253l-.019-.018c0-.036-.018-.09-.054-.108-.451-.434-.776-.74-1.118-1.066a96.057 96.057 0 0 1-2.508-2.439l-.018-.018c-.018-.018-.036-.036-.072-.036-.36-.126-1.1-.253-2.02-.415-1.37-.235-3.229-.56-4.906-1.066 0 0-.108 0-.127.018l-.054.054c-.018.018-.036.036-.144.072h.036H12c.018.109.018.18.054.307 0 .036.072.325.072.362l.505 2.312Zm10.011 2.132-.216-.217c.054.072.126.126.216.217Zm-2.29 3.035-.037.036c0-.018.018-.037.037-.037Zm-1.317-6.504c.108.108.559.542.667.632-.469-.216-1.641-.758-2.182-.939.54.108 1.28.217 1.515.307Zm-6.187-.903c.27.47.487 2.095.703 3.685-.126-.506-.216-1.012-.324-1.481-.163-.831-.325-1.572-.542-2.222.037 0 .09 0 .163.018Zm-.108-.38c-.073 0-.145-.018-.199-.018 0-.018 0-.036-.018-.036.09 0 .144.018.217.054Zm-.704.145c0-.018 0-.018 0 0ZM37.416 12.85c.018-.073-.361-.398-.235-.416.27-.018.27-.434 0-.434-.36.018-.74.108-1.082.163-.631.126-1.28.252-1.912.397a84.958 84.958 0 0 0-4.239 1.012c-.433.126-.92.216-1.335.433-.144.072-.126.217-.054.307-.036.018-.054.018-.09.037l-.36.054c-.109.018-.163.108-.145.216 0 .018.018.055.018.073a112.403 112.403 0 0 1-2.525 3.215c-.902 1.048-1.858 2.15-2.814 3.288-3.049 3.577-6.494 7.642-10.3 11.218a.175.175 0 0 0 0 .253c.018.018.036.037.054.037-.054.054-.108.09-.162.144-.036.036-.054.072-.054.108-.018.019-.054.055-.072.09-.072.073-.072.2.018.254.072.072.198.072.252-.018.018-.018.018-.036.036-.036a.283.283 0 0 1 .397 0c.217.234.433.47.632.668l-.452-.38c-.072-.072-.198-.054-.252.019-.072.072-.054.198.018.252l4.798 4.029c.036.036.072.036.126.036.055 0 .09-.018.127-.054l.108-.108c.018.018.054.018.072.018.054 0 .09-.019.126-.055C24.61 31.13 29.84 26.2 35.828 21.791c.054-.036.073-.108.073-.162.072 0 .126-.055.162-.127 1.1-3.378 1.317-6.377 1.389-7.858v-.018c0-.018.018-.036.018-.054a.14.14 0 0 0 .018-.054c.054-.217.018-.47-.072-.669Zm-11.617 5.31c.289-.325.578-.668.866-.975-1.858 2.457-4.942 6.232-9.307 10.73 2.976-3.306 5.97-6.72 8.441-9.755ZM15.283 35.25h.055-.055Zm2.237 2.077c-.018-.018-.018-.018 0-.018v.018Zm2.688-2.33c.144-.163.288-.307.45-.47 0 0 0 .018.019.018a10.9 10.9 0 0 0-.47.452Zm.74-.723c.09-.09.18-.217.288-.325l.018-.018a282.26 282.26 0 0 1 3.283-3.324l.018-.018c.27-.217.595-.452.884-.668a245.222 245.222 0 0 0-4.492 4.353Zm6.998-18.083c-.595.777-1.263 1.807-1.822 2.62-1.768 2.565-7.45 8.833-7.576 8.942-.884.849-3.517 3.378-5.195 4.968l-.108.108c-.09-.108-.09-.271.018-.361 8.027-7.57 12.897-13.874 14.863-16.638-.054.126-.09.235-.18.361Zm3.12 3.703c-.721-.415-1.064-1.065-.865-1.698l.054-.216a.846.846 0 0 1 .09-.181c.198-.325.487-.596.812-.759.018 0 .036 0 .054-.018-.018-.036-.018-.09-.018-.144.018-.109.09-.181.216-.181.217 0 .884.199 1.136.415.073.055.145.127.217.2.09.107.234.288.307.433.036.018.072.198.126.289.036.144.072.307.054.451-.018.018 0 .127-.018.127-.036.235-.108.47-.235.668-.018.018-.018.036-.036.054l-.018.018c-.09.145-.216.271-.342.362-.415.289-.884.38-1.353.253 0 0-.127-.054-.18-.073Zm5.268-.541a25.603 25.603 0 0 1-.578 2.059c0 .018-.018.054 0 .072-.036 0-.054.018-.09.036a119.4 119.4 0 0 0-4.203 3.27c1.19-1.066 2.381-2.15 3.626-3.215.36-.326.613-.741.685-1.21l.18-1.085v-.036c.09-.217.434-.126.38.108Z" fill="#6965DB"/></svg>