<svg width="50" height="8" fill="none" xmlns="http://www.w3.org/2000/svg"><g clip-path="url(#a)"><path d="M1.377 6.616h2.482c.337 0 .501-.167.501-.532V4.17c0-.328-.135-.498-.414-.527v-.657c0-.983-.645-1.458-1.328-1.458s-1.327.475-1.327 1.458v.67c-.256.04-.415.206-.415.514v1.914c0 .365.164.532.5.532Zm.334-3.685c0-.654.42-1.001.907-1.001.488 0 .908.347.908 1.001v.71l-1.815.002v-.712Z" fill="#9E9E9E"/><path d="M8.732 6.626c-.87 0-1.396-.61-1.396-1.565v-.003c0-.94.537-1.585 1.365-1.585s1.33.616 1.33 1.526v.192H7.84c.014.63.362.997.904.997.413 0 .667-.195.75-.379l.01-.025h.492l-.006.023c-.104.412-.54.819-1.257.819ZM8.698 3.91c-.452 0-.797.308-.85.887h1.684c-.051-.602-.385-.887-.834-.887Zm1.717 2.661 1.043-1.523-1.054-1.522h.58l.723 1.133h.045l.714-1.133h.551L11.983 5.03l1.049 1.542h-.577l-.72-1.15h-.045l-.724 1.15h-.55Zm4.36.054c-.854 0-1.4-.619-1.4-1.585v-.006c0-.946.543-1.562 1.396-1.562.74 0 1.184.427 1.275.969l.002.017h-.488l-.003-.008c-.077-.3-.348-.543-.786-.543-.548 0-.892.44-.892 1.127v.006c0 .7.35 1.15.892 1.15.41 0 .67-.181.783-.52l.006-.017.486-.003-.006.031c-.124.551-.534.944-1.266.944Zm2.804 0c-.579 0-1.017-.35-1.017-.904v-.006c0-.542.401-.856 1.11-.898l.873-.054v-.277c0-.376-.229-.579-.683-.579-.365 0-.605.136-.684.373l-.003.008h-.492l.003-.016c.08-.478.543-.8 1.193-.8.743 0 1.158.381 1.158 1.014v2.085h-.492v-.449H18.5c-.192.325-.511.503-.92.503Zm-.514-.915c0 .308.263.488.616.488.5 0 .864-.327.864-.762V5.16l-.813.05c-.464.029-.667.193-.667.495v.006Zm2.875.861V2.317h.492v4.255h-.491Zm1.672-3.633a.34.34 0 0 1-.338-.339.34.34 0 0 1 .338-.34.34.34 0 0 1 .34.34.34.34 0 0 1-.34.339Zm-.248 3.633V3.527h.491v3.045h-.491Zm2.52.054c-.772 0-1.277-.624-1.277-1.574v-.005c0-.955.502-1.574 1.277-1.574.418 0 .782.209.949.534h.045v-1.69h.492v4.255h-.492v-.486h-.045c-.187.34-.526.54-.95.54Zm.113-.435c.553 0 .892-.435.892-1.139v-.005c0-.704-.339-1.139-.892-1.139-.557 0-.888.43-.888 1.139v.005c0 .71.33 1.139.887 1.139Zm2.293.381V3.527h.492v.452h.045c.116-.32.401-.506.813-.506.094 0 .198.011.246.02v.477a1.768 1.768 0 0 0-.302-.028c-.469 0-.802.297-.802.743v1.887h-.492Zm3.017.054c-.58 0-1.017-.35-1.017-.904v-.006c0-.542.401-.856 1.11-.898l.873-.054v-.277c0-.376-.229-.579-.684-.579-.364 0-.604.136-.683.373l-.003.008h-.492l.003-.016c.08-.478.543-.8 1.192-.8.743 0 1.159.381 1.159 1.014v2.085h-.492v-.449h-.045c-.192.325-.511.503-.921.503Zm-.514-.915c0 .308.262.488.616.488.5 0 .864-.327.864-.762V5.16l-.814.05c-.463.029-.666.193-.666.495v.006Zm3.293.861-.853-3.045h.492l.599 2.435h.045l.68-2.435h.467l.68 2.435h.046l.599-2.435h.489l-.853 3.045h-.495l-.68-2.356h-.046l-.678 2.356h-.492Zm3.848.029a.37.37 0 0 1-.367-.368.366.366 0 1 1 .367.367Zm2.426.025c-.853 0-1.398-.619-1.398-1.585v-.006c0-.946.542-1.562 1.395-1.562.74 0 1.184.427 1.275.969l.002.017h-.488l-.003-.008c-.077-.3-.348-.543-.786-.543-.548 0-.892.44-.892 1.127v.006c0 .7.35 1.15.892 1.15.41 0 .67-.181.783-.52l.006-.017.486-.003-.006.031c-.124.551-.534.944-1.266.944Zm3.22 0c-.867 0-1.404-.599-1.404-1.574v-.005c0-.978.537-1.574 1.404-1.574.868 0 1.405.596 1.405 1.574v.005c0 .975-.537 1.574-1.404 1.574Zm0-.435c.577 0 .902-.421.902-1.139v-.005c0-.72-.325-1.139-.901-1.139-.577 0-.902.418-.902 1.139v.005c0 .718.325 1.139.901 1.139Zm2.144.381V3.527h.492v.463h.045c.136-.328.424-.517.822-.517.413 0 .7.218.842.534h.045c.164-.322.512-.534.933-.534.621 0 .969.356.969.994v2.105h-.492V4.58c0-.449-.206-.672-.636-.672a.685.685 0 0 0-.703.706v1.958h-.492V4.504c0-.361-.248-.596-.632-.596-.399 0-.701.348-.701.777v1.887h-.492Z" fill="#4C4C4C"/></g><defs><clipPath id="a"><path fill="#fff" d="M.876.572h48.155v7H.876z"/></clipPath></defs></svg>
