<svg width="59" height="20" fill="none" xmlns="http://www.w3.org/2000/svg"><g clip-path="url(#a)" fill="#C5C5D0"><path d="M52.367 4.074c0-.477.225-.702.703-.702h.561c.477 0 .703.225.703.702v11.853c0 .477-.226.702-.703.702h-.561c-.478 0-.703-.225-.703-.702V4.074ZM52.087 20h2.527c2.444 0 3.651-1.208 3.651-3.651V3.653C58.265 1.209 57.058 0 54.614 0h-2.528c-2.444 0-3.651 1.208-3.651 3.652v12.696c0 2.443 1.207 3.651 3.651 3.651ZM40.027 20h2.416c2.443 0 3.651-1.209 3.651-3.652V12.68h-3.876v3.245c0 .478-.225.703-.702.703h-.506c-.478 0-.702-.225-.702-.703V4.073c0-.477.224-.702.702-.702h.45c.477 0 .702.225.702.702v2.752h3.876V3.652C46.038 1.209 44.83 0 42.387 0h-2.36c-2.444 0-3.651 1.209-3.651 3.652v12.696c0 2.443 1.207 3.651 3.65 3.651ZM17.124 4.972l.87 8.567h-1.74l.87-8.567Zm-1.236 11.993h2.472l.309 2.866h3.904L19.989.169h-5.365L12.04 19.83h3.567l.281-2.866ZM28.658 3.54h.842c.478 0 .703.225.703.701v4.691c0 .478-.225.703-.703.703h-.842V3.54Zm0 9.465h1.826c2.444 0 3.652-1.207 3.652-3.651V3.82c0-2.444-1.208-3.652-3.652-3.652h-5.758V19.83h3.932v-6.826ZM4.034 20H6.45c2.444 0 3.651-1.209 3.651-3.652V12.68H6.225v3.245c0 .478-.224.703-.702.703h-.506c-.477 0-.702-.225-.702-.703V4.073c0-.477.225-.702.702-.702h.45c.477 0 .702.225.702.702v2.752h3.876V3.652C10.045 1.209 8.837 0 6.394 0h-2.36C1.591 0 .383 1.209.383 3.652v12.696c0 2.443 1.208 3.651 3.651 3.651Z"/></g><defs><clipPath id="a"><path fill="#fff" transform="translate(.383)" d="M0 0h57.883v20H0z"/></clipPath></defs></svg>