<svg width="1294" height="398" fill="none" xmlns="http://www.w3.org/2000/svg"><path d="M1011.54 275.811c-.64.309-2.11-.069-2.88-.346-.78-.271-1.5-.468-1.76-1.283-.26-.819.1-2.73.21-3.624.11-.894-.03-1.282.46-1.745.49-.469 1.67-1.102 2.47-1.049.79.048 1.66.788 2.31 1.347.66.558 1.51 1.122 1.62 2.006.12.889-.5 2.576-.93 3.31-.44.74-1.36.873-1.69 1.107-.33.234-.21.304-.29.304m1.35-.815c-.66.479-2.94 1.155-3.84 1.102-.91-.053-1.24-.607-1.61-1.426-.36-.82-.54-2.619-.57-3.492-.02-.872-.11-1.149.41-1.745.52-.596 1.92-1.666 2.7-1.826.77-.165 1.18.336 1.94.847.76.51 2.35 1.389 2.62 2.203.26.819-.65 2.038-1.04 2.703-.38.666-1 1.086-1.27 1.299-.28.213-.25-.085-.35-.027" fill="#D3FFD2"/><path d="M1011.32 275.896c-.75.5-1.54.474-2.27.154-.74-.319-1.66-1.314-2.14-2.065-.48-.75-.87-1.58-.74-2.432.14-.846.99-1.948 1.56-2.661.57-.713 1.14-1.426 1.86-1.607.73-.176 1.78.037 2.49.532.71.5 1.58 1.506 1.77 2.454.17.952-.4 2.405-.71 3.251-.31.852-.88 1.48-1.16 1.837-.28.356-.48.345-.52.314m.7-.66c-.7.33-1.83.739-2.66.596-.82-.144-1.69-.799-2.28-1.453-.58-.655-1.28-1.666-1.22-2.486.07-.819.88-1.655 1.63-2.426.75-.777 2.15-2.028 2.85-2.209.7-.181.84.356 1.33 1.118.49.766 1.41 2.527 1.62 3.459.21.931-.03 1.346-.38 2.123-.35.777-1.46 2.283-1.72 2.544-.26.266.17-.649.16-.958" stroke="#D3FFD2" stroke-width="2" stroke-linecap="round"/><path d="M1089.98 267.082c1.31.58 4.03 2.522 7.01 3.23 2.97.708 7.54 2.076 10.85 1.022 3.31-1.054 7.78-6.126 9.01-7.334m-28.85.394c1.43.878 7.22 6.221 10.04 7.786 2.83 1.559 3.76 2.507 6.91 1.586 3.15-.915 10.04-5.322 11.98-7.105M180.978 239.082c1.311.58 4.035 2.522 7.01 3.23 2.975.708 7.538 2.076 10.848 1.022 3.311-1.054 7.784-6.126 9.015-7.334m-28.851.394c1.429.878 7.218 6.221 10.043 7.786 2.826 1.559 3.759 2.507 6.909 1.586 3.146-.915 10.033-5.322 11.974-7.105" stroke="#FFE3C7" stroke-width="2" stroke-linecap="round"/><path d="M160 95c4.446 1.117 19.666 7.099 28.403 9.271 8.738 2.176 20.285 3.134 24.022 3.778m-50.73-12.538c3.876 1.442 15.369 8.43 24.048 10.921 8.679 2.485 23.984 3.278 28.03 4.012" stroke="#E0DFFF" stroke-width="2" stroke-linecap="round"/><path d="M506.015 49.446c1.402-.65 4.676-3.63 6.781-4.444 2.106-.81 3.988-1.554 5.848-.431 1.861 1.117 4.5 5.013 5.321 7.163.815 2.15.432 3.598-.416 5.737-.842 2.14-3.854 5.812-4.649 7.1M504 50.249c1.69-.862 7.853-2.586 10.374-3.129 2.522-.537 3.22-.73 4.745-.112 1.525.612 3.401 2.14 4.414 3.795 1.013 1.65 2.074 3.603 1.669 6.12-.406 2.517-3.551 8.026-4.105 8.99" stroke="#FFF0C9" stroke-width="2" stroke-linecap="round"/><path d="M208.383 321.836c1.375-.298 5.576-2.028 8.94-1.719 3.359.309 9.473 4.156 11.232 3.566 1.765-.591-2.654-6.589-.666-7.105 1.983-.517 10.897 4.997 12.587 4.018 1.689-.979-4.814-8.382-2.453-9.889 2.362-1.511 14.335 2.465 16.622.847 2.293-1.618-2.223-8.675-2.884-10.554M206 322.602c1.365.208 8.124-.303 12.027-.324 3.897-.022 9.814 1.394 11.376.207 1.557-1.192-4.078-6.961-2.026-7.35 2.047-.393 12.187 6.227 14.319 5.003 2.127-1.224-3.518-11.102-1.551-12.342 1.967-1.24 11.142 5.865 13.349 4.897 2.207-.969.048-8.957-.112-10.708" stroke="#E0DFFF" stroke-width="2" stroke-linecap="round"/><path d="M916.379 395.909c-.666-.149-1.53-.436-1.839-1.037-.304-.596-.117-1.906.005-2.544.123-.644.144-.825.736-1.288.597-.463 1.972-1.4 2.825-1.48.859-.08 1.797.516 2.314 1.001.517.479.64 1.309.784 1.889.144.575.437.947.069 1.57-.368.628-1.439 1.98-2.282 2.193-.847.207-2.388-.799-2.782-.916-.39-.117.314.192.437.213m.192.357c-.704-.144-2.154-.41-2.511-.9-.352-.495.32-1.367.378-2.054.059-.686-.442-1.432-.026-2.07.415-.639 1.759-1.544 2.516-1.756.757-.219 1.455-.006 2.015.452.56.463.943 1.453 1.349 2.315.399.862 1.274 2.203 1.076 2.858-.197.655-1.519.756-2.26 1.075-.746.314-1.876.857-2.196.82-.32-.043.256-1.012.288-1.065" fill="#FFDAD6"/><path d="M917.45 395.552c-.757-.058-1.626-.484-2.111-.91-.485-.431-.666-1.117-.805-1.66-.138-.543-.469-1.065-.032-1.602.437-.538 1.861-1.426 2.655-1.623.794-.197 1.45.133 2.111.436.661.303 1.493.719 1.866 1.373.373.66.586 1.858.368 2.571-.213.718-.794 1.389-1.674 1.729-.88.336-2.937.352-3.604.298-.672-.053-.517-.457-.405-.622m3.46-.351c-.736.079-2.591.196-3.401.17-.811-.032-1.152.17-1.456-.341-.304-.516-.533-2.102-.368-2.741.171-.644.752-.67 1.387-1.112.639-.447 1.684-1.33 2.441-1.559.762-.224 1.663-.352 2.116.197.448.548.4 2.4.603 3.086.202.687.927.474.608 1.033-.326.559-2.175 2.049-2.543 2.326-.363.282.368-.533.352-.66" stroke="#FFDAD6" stroke-width="2" stroke-linecap="round"/><path d="M1119.38 204.909c-.67-.149-1.53-.436-1.84-1.037-.3-.596-.12-1.906.01-2.544.12-.644.14-.825.73-1.288.6-.463 1.97-1.4 2.83-1.48.85-.08 1.79.516 2.31 1.001.52.479.64 1.309.78 1.889.15.575.44.947.07 1.57-.36.628-1.44 1.98-2.28 2.193-.85.207-2.39-.799-2.78-.916-.39-.117.31.192.44.213m.19.357c-.71-.144-2.16-.41-2.51-.9-.36-.495.32-1.367.38-2.054.05-.686-.45-1.432-.03-2.07.41-.639 1.76-1.544 2.51-1.756.76-.219 1.46-.006 2.02.452.56.463.94 1.453 1.35 2.315.4.862 1.27 2.203 1.08 2.858-.2.655-1.52.756-2.26 1.075-.75.314-1.88.857-2.2.82-.32-.043.25-1.012.29-1.065" fill="#FFDAD6"/><path d="M1120.45 204.552c-.76-.058-1.63-.484-2.11-.91-.49-.431-.67-1.117-.81-1.66-.13-.543-.46-1.065-.03-1.602.44-.538 1.86-1.426 2.66-1.623.79-.197 1.45.133 2.11.436.66.303 1.49.719 1.86 1.373.38.66.59 1.858.37 2.571-.21.718-.79 1.389-1.67 1.729-.88.336-2.94.352-3.61.298-.67-.053-.51-.457-.4-.622m3.46-.351c-.74.079-2.59.196-3.4.17-.81-.032-1.15.17-1.46-.341-.3-.516-.53-2.102-.37-2.741.18-.644.76-.67 1.39-1.112.64-.447 1.69-1.33 2.44-1.559.76-.224 1.67-.352 2.12.197.45.548.4 2.4.6 3.086.2.687.93.474.61 1.033-.33.559-2.18 2.049-2.54 2.326-.37.282.36-.533.35-.66" stroke="#FFDAD6" stroke-width="2" stroke-linecap="round"/><path d="M291.379 143.909c-.666-.149-1.53-.436-1.839-1.037-.304-.596-.117-1.906.005-2.544.123-.644.144-.825.736-1.288.597-.463 1.972-1.4 2.825-1.48.859-.08 1.797.516 2.314 1.001.517.479.64 1.309.784 1.889.144.575.437.947.069 1.57-.368.628-1.439 1.98-2.282 2.193-.847.207-2.388-.799-2.782-.916-.39-.117.314.192.437.213m.192.357c-.704-.144-2.154-.41-2.511-.9-.352-.495.32-1.367.378-2.054.059-.686-.442-1.432-.026-2.07.415-.639 1.759-1.544 2.516-1.756.757-.219 1.455-.006 2.015.452.56.463.943 1.453 1.349 2.315.399.862 1.274 2.203 1.076 2.858-.197.655-1.519.756-2.26 1.075-.746.314-1.876.857-2.196.82-.32-.043.256-1.012.288-1.065" fill="#FFDAD6"/><path d="M292.45 143.552c-.757-.058-1.626-.484-2.111-.91-.485-.431-.666-1.117-.805-1.66-.138-.543-.469-1.065-.032-1.602.437-.538 1.861-1.426 2.655-1.623.794-.197 1.45.133 2.111.436.661.303 1.493.719 1.866 1.373.373.66.586 1.858.368 2.571-.213.718-.794 1.389-1.674 1.729-.88.336-2.937.352-3.604.298-.672-.053-.517-.457-.405-.622m3.46-.351c-.736.079-2.591.196-3.401.17-.811-.032-1.152.17-1.456-.341-.304-.516-.533-2.102-.368-2.741.171-.644.752-.67 1.387-1.112.639-.447 1.684-1.33 2.441-1.559.762-.224 1.663-.352 2.116.197.448.548.4 2.4.603 3.086.202.687.927.474.608 1.033-.326.559-2.175 2.049-2.543 2.326-.363.282.368-.533.352-.66" stroke="#FFDAD6" stroke-width="2" stroke-linecap="round"/><path d="M422.001 104.812c-1.029-.032-2.148-.692-2.985-1.405-.832-.713-1.978-1.762-2.015-2.879-.037-1.118 1.029-2.911 1.791-3.827.762-.915 1.685-1.453 2.772-1.676 1.088-.219 2.687-.224 3.743.356 1.05.575 2.18 1.996 2.585 3.114.4 1.112.299 2.522-.165 3.576-.464 1.059-1.589 2.214-2.623 2.757-1.04.543-2.969.537-3.604.506-.634-.032-.277-.581-.192-.698m2.533-.048c-1.104.644-2.271 1.374-3.279 1.054-1.008-.319-2.228-1.996-2.772-2.97-.544-.968-.73-1.713-.48-2.852.256-1.144 1.114-3.039 1.994-4.008.879-.963 2.266-1.91 3.289-1.804 1.024.112 1.898 1.709 2.852 2.47.96.755 2.618.974 2.879 2.08.261 1.108-.693 3.513-1.306 4.556-.619 1.049-1.925 1.427-2.388 1.719-.464.288-.459-.048-.4.032M805.001 387.812c-1.029-.032-2.148-.692-2.985-1.405-.832-.713-1.978-1.762-2.015-2.879-.037-1.118 1.029-2.911 1.791-3.827.762-.915 1.685-1.453 2.772-1.676 1.088-.218 2.687-.224 3.743.356 1.05.575 2.18 1.996 2.585 3.114.4 1.112.299 2.522-.165 3.576-.464 1.059-1.589 2.214-2.623 2.757-1.04.543-2.969.537-3.604.506-.634-.032-.277-.581-.192-.698m2.533-.048c-1.104.644-2.271 1.374-3.279 1.054-1.008-.319-2.228-1.996-2.772-2.97-.544-.968-.73-1.713-.48-2.852.256-1.144 1.114-3.039 1.994-4.008.879-.963 2.266-1.91 3.289-1.804 1.024.112 1.898 1.709 2.852 2.47.96.755 2.618.974 2.879 2.081.261 1.107-.693 3.512-1.306 4.555-.619 1.049-1.925 1.427-2.388 1.719-.464.288-.459-.048-.4.032" stroke="#FFE3C7" stroke-width="2" stroke-linecap="round"/><path d="M1117 130.588c1.73 1.501 9.44 11.038 10.53 9.931 1.09-1.107-5.72-14.252-4-16.573 1.72-2.32 12.71 3.88 14.31 2.645 1.6-1.229-6.81-8.669-4.68-10.037 2.13-1.362 15.43 3.39 17.44 1.847 2.01-1.543-7.36-8.893-5.38-11.112 1.97-2.22 14.13-1.677 17.23-2.204m-43.81 26.765c1.84 1.165 8.59 8.297 9.45 6.769.86-1.527-5.82-14.385-4.3-15.945 1.52-1.559 12.24 7.584 13.4 6.579 1.16-1.012-9.12-11.07-6.46-12.635 2.66-1.565 20.13 5.221 22.44 3.252 2.31-1.975-10.36-12.789-8.6-15.083 1.77-2.294 16.28 1.134 19.19 1.325" stroke="#D3FFD2" stroke-width="2" stroke-linecap="round"/><path d="M338 310.547c1.861-1.107 8.439-3.715 11.958-6.807 3.524-3.092 7.431-10.122 9.164-11.74m-19.917 19.894c1.978-1.288 7.816-6.786 11.238-9.702 3.422-2.917 7.645-6.302 9.297-7.803" stroke="#D1ECFF" stroke-width="2" stroke-linecap="round"/><path d="M860.986 136.486c-.698-.138-1.973-.527-2.495-1.165-.522-.644-.73-1.9-.65-2.688.08-.793.607-1.495 1.124-2.049.523-.559 1.307-1.155 1.994-1.293.688-.138 1.45.058 2.133.458.687.393 1.631 1.229 1.977 1.926.347.692.352 1.474.107 2.23-.25.761-.821 1.82-1.589 2.31-.767.484-2.319.66-3.017.607-.698-.054-1.082-.788-1.167-.926m3.417 1.208c-.645.335-1.669-.245-2.447-.735-.778-.489-1.653-1.602-2.212-2.208-.555-.602-1.323-.602-1.131-1.416.187-.814 1.6-2.874 2.266-3.459.672-.591.97-.086 1.743-.059.773.021 2.239-.245 2.9.186.661.437.805 1.427 1.082 2.417.278.989 1.013 2.847.582 3.528-.438.681-2.81.458-3.188.564-.374.107.837.117.927.085M1116.99 36.486c-.7-.138-1.98-.527-2.5-1.165-.52-.644-.73-1.9-.65-2.688.08-.793.61-1.495 1.13-2.049.52-.559 1.3-1.155 1.99-1.293.69-.138 1.45.058 2.13.458.69.393 1.63 1.229 1.98 1.926.35.692.35 1.474.11 2.23-.25.761-.82 1.82-1.59 2.31-.77.484-2.32.66-3.02.607-.7-.054-1.08-.788-1.17-.926m3.42 1.208c-.65.335-1.67-.245-2.45-.735-.78-.49-1.65-1.602-2.21-2.208-.55-.602-1.32-.602-1.13-1.416.19-.814 1.6-2.874 2.27-3.46.67-.59.97-.084 1.74-.058.77.021 2.24-.245 2.9.186.66.437.8 1.427 1.08 2.416.28.99 1.01 2.848.58 3.529-.43.681-2.81.458-3.19.564-.37.107.84.117.93.085" stroke="#FFF0C9" stroke-width="2" stroke-linecap="round"/><path d="M1025.57 139.461c-.83.176-1.9-.149-2.63-.361-.73-.213-1.38-.447-1.73-.91-.37-.464-.57-1.294-.42-1.863.14-.57.57-1.203 1.3-1.56.74-.361 2.15-.564 3.11-.596.97-.032 2.04-.005 2.69.394.65.399 1.15 1.315 1.21 2.001.06.687-.02 1.698-.87 2.108-.84.404-3.36.266-4.2.33-.85.069-.98.064-.84.053m1.48.144c-.83-.208-1.97-.948-2.74-1.214-.78-.266-1.87.165-1.93-.367-.05-.537 1.08-2.347 1.59-2.853.51-.5.71-.037 1.49-.165.78-.122 2.36-.707 3.19-.585.83.122 1.25.665 1.78 1.331.52.659 1.58 2.155 1.36 2.645-.22.489-1.95.117-2.68.292-.73.176-1.37.65-1.7.772-.33.122-.31-.106-.28-.037" stroke="#FFDAD6" stroke-width="2" stroke-linecap="round"/><path d="M773.673 109.549c-5.523 1.107-9.372.82-12.997 2.895m12.251-2.288c-4.26.676-9.042 1.117-13.978 1.08m-.949-1.463c2.703-7.707 1.333-14.977 4.446-30.192m-4.116 31.528c1.903-11.533 1.493-20.315 2.554-31.922M762.75 78c.426 3.337 4.734 3.183 9.089 4.758m-10.262-2.485c1.652.505 5.384.085 11.44 1.916m-1.429-2.896c1.898 11.943 2.048 23.008-.202 29.064m.405-26.967c1.567 6.738.272 13.412.411 27.824" stroke="#E0DFFF" stroke-width="2" stroke-linecap="round"/><path d="M974 104.788c.506-3.423 3.417-13.53 4.116-19.82.698-6.29-.166-14.768.069-17.908m-2.612 39.202c.682-3.704 3.305-16.11 3.902-22.821.602-6.711-.384-14.332-.304-17.44" stroke="#FFE3C7" stroke-width="2" stroke-linecap="round"/><path d="M609.894 110.119c-.645-3.864-3.124-19.356-3.759-23.337m4.548 22.198c-.848-3.997-4.713-19.361-5.683-22.98" stroke="#D3FFD2" stroke-width="2" stroke-linecap="round"/><path d="M698.289 65.504c-.474.196-1.359-.08-1.951-.288-.592-.202-1.237-.5-1.594-.942-.357-.447-.475-1-.544-1.73-.075-.729-.256-2.086.112-2.645.368-.553 1.285-.675 2.1-.702.816-.027 2.197.144 2.794.548.602.4.629 1.17.81 1.863.181.692.629 1.634.283 2.278-.347.644-1.855 1.367-2.357 1.57-.506.207-.714-.341-.655-.336m-1.237.192c-.613-.266-1.759-.846-1.999-1.272-.245-.431.48-.564.544-1.304.064-.745-.629-2.539-.155-3.161.474-.618 2.202-.596 2.996-.559.789.037 1.205.218 1.743.777.544.553 1.44 1.884 1.498 2.565.064.676-.789.873-1.114 1.506-.325.628-.149 1.89-.832 2.283-.677.389-2.788.181-3.246.07-.459-.107.378-.666.496-.719" stroke="#FFF0C9" stroke-width="2" stroke-linecap="round"/><path d="M137.157 347.32c-.943.043-2.351-.415-3.028-1.011-.682-.596-.981-1.607-1.05-2.565-.064-.958.16-2.4.645-3.182.48-.777 1.413-1.299 2.25-1.496.832-.197 2.074.091 2.756.314.682.229.997.383 1.327 1.043.331.655.651 2.017.656 2.895.005.884.032 1.804-.629 2.379-.656.575-2.788.884-3.321 1.065-.528.175.165.064.149.01m-1.231-.952c-.683-.341-2.149-.293-2.522-1.017-.378-.724.005-2.432.267-3.326.266-.894.506-1.73 1.316-2.022.816-.298 2.783.212 3.572.25.789.037.64-.469 1.162-.027.523.447 1.84 1.804 1.983 2.688.15.883-.613 1.82-1.114 2.613-.495.787-.991 1.942-1.876 2.134-.885.192-3.002-.963-3.428-.99-.421-.021.89.734.88.846" stroke="#FFDAD6" stroke-width="2" stroke-linecap="round"/><path d="M405.543 331.811c-.645.309-2.111-.069-2.884-.346-.778-.271-1.503-.468-1.759-1.283-.256-.819.101-2.73.213-3.624.107-.894-.037-1.282.453-1.745.49-.469 1.674-1.102 2.474-1.049.794.048 1.658.788 2.313 1.347.656.558 1.504 1.122 1.621 2.006.112.889-.501 2.576-.938 3.31-.438.74-1.354.873-1.685 1.107-.331.234-.208.304-.288.304m1.349-.815c-.666.479-2.937 1.155-3.844 1.102-.911-.053-1.242-.607-1.604-1.426-.363-.82-.544-2.619-.571-3.492-.026-.872-.112-1.149.405-1.745.517-.596 1.925-1.666 2.698-1.826.773-.165 1.183.336 1.94.847.763.51 2.357 1.389 2.623 2.203.261.819-.65 2.038-1.039 2.703-.384.666-1.003 1.086-1.274 1.299-.272.213-.246-.085-.347-.027" fill="#D3FFD2"/><path d="M405.319 331.896c-.752.5-1.535.474-2.271.154-.736-.319-1.658-1.314-2.138-2.065-.479-.75-.874-1.58-.741-2.432.139-.846.992-1.948 1.562-2.661.571-.713 1.136-1.426 1.861-1.607.725-.176 1.78.037 2.489.532.709.5 1.584 1.506 1.765 2.454.176.952-.395 2.405-.704 3.251-.309.852-.879 1.48-1.162 1.837-.282.356-.48.345-.522.314m.703-.66c-.703.33-1.834.739-2.66.596-.821-.144-1.695-.799-2.276-1.453-.581-.655-1.285-1.666-1.221-2.486.069-.819.88-1.655 1.626-2.426.746-.777 2.154-2.028 2.852-2.209.698-.181.837.356 1.327 1.118.491.766 1.413 2.527 1.621 3.459.208.931-.032 1.346-.384 2.123-.346.777-1.455 2.283-1.716 2.544-.262.266.17-.649.165-.958M740.894 350.119c-.645-3.864-3.124-19.356-3.759-23.337m4.548 22.198c-.848-3.997-4.713-19.361-5.683-22.98" stroke="#D3FFD2" stroke-width="2" stroke-linecap="round"/><path d="M481 357.589c1.733 1.501 9.441 11.038 10.529 9.931 1.093-1.107-5.715-14.252-3.998-16.573 1.722-2.32 12.709 3.88 14.308 2.645 1.605-1.229-6.808-8.669-4.681-10.037 2.128-1.362 15.434 3.39 17.443 1.847 2.01-1.544-7.362-8.893-5.384-11.113 1.973-2.219 14.138-1.676 17.23-2.203m-43.81 26.765c1.839 1.165 8.593 8.297 9.452 6.769.863-1.527-5.816-14.385-4.297-15.945 1.514-1.559 12.24 7.584 13.397 6.578 1.157-1.011-9.122-11.069-6.461-12.634 2.665-1.565 20.135 5.221 22.443 3.252 2.308-1.975-10.363-12.789-8.599-15.083 1.77-2.294 16.281 1.134 19.192 1.325" stroke="#FFE3C7" stroke-width="2" stroke-linecap="round"/><path d="M850.732 51.013c2.266.29 13.842 3.949 14.192 2.435.355-1.517-12.338-8.658-12.085-11.522.258-2.867 12.89-3.773 13.611-5.674.729-1.9-10.352-3.436-9.25-5.737 1.106-2.297 14.963-5.676 15.873-8.058.91-2.382-10.943-3.316-10.414-6.24.525-2.921 11.205-9.158 13.572-11.293m-23.44 46.234c2.181-.046 11.683 2.146 11.618.41-.061-1.74-12.495-8.713-12.012-10.839.478-2.123 14.427-.448 14.889-1.917.46-1.473-13.585-4.15-12.13-6.908 1.46-2.76 19.938-6.744 20.881-9.643.94-2.903-15.546-4.891-15.237-7.76.312-2.872 14.506-8.01 17.094-9.45" stroke="#D1ECFF" stroke-width="2" stroke-linecap="round"/><path d="M192.001 160.812c-1.029-.032-2.148-.692-2.985-1.405-.832-.713-1.978-1.762-2.015-2.879-.037-1.118 1.029-2.911 1.791-3.827.762-.915 1.685-1.453 2.772-1.676 1.088-.218 2.687-.224 3.743.356 1.05.575 2.18 1.996 2.585 3.114.4 1.112.299 2.522-.165 3.576-.464 1.059-1.589 2.214-2.623 2.757-1.04.543-2.969.537-3.604.506-.634-.032-.277-.581-.192-.698m2.533-.048c-1.104.644-2.271 1.374-3.279 1.054-1.008-.319-2.228-1.996-2.772-2.97-.544-.968-.73-1.713-.48-2.852.256-1.144 1.114-3.039 1.994-4.008.879-.963 2.266-1.91 3.289-1.804 1.024.112 1.898 1.709 2.852 2.47.96.755 2.618.974 2.879 2.081.261 1.107-.693 3.512-1.306 4.555-.619 1.049-1.925 1.427-2.388 1.719-.464.288-.459-.048-.4.032M134.001 27.812c-1.029-.032-2.148-.692-2.985-1.405-.832-.713-1.978-1.762-2.015-2.88-.037-1.117 1.029-2.91 1.791-3.826.762-.915 1.685-1.453 2.772-1.676 1.088-.218 2.687-.224 3.743.356 1.05.575 2.18 1.996 2.585 3.114.4 1.112.299 2.522-.165 3.576-.464 1.06-1.589 2.214-2.623 2.757-1.04.543-2.969.537-3.604.506-.634-.032-.277-.58-.192-.698m2.533-.048c-1.104.644-2.271 1.373-3.279 1.054-1.008-.32-2.228-1.996-2.772-2.97-.544-.968-.73-1.713-.48-2.852.256-1.144 1.114-3.039 1.994-4.008.879-.963 2.266-1.91 3.289-1.804 1.024.112 1.898 1.709 2.852 2.47.96.755 2.618.974 2.879 2.08.261 1.108-.693 3.513-1.306 4.556-.619 1.049-1.925 1.427-2.388 1.72-.464.287-.459-.049-.4.031" stroke="#FFE3C7" stroke-width="2" stroke-linecap="round"/><path fill-rule="evenodd" clip-rule="evenodd" d="M370.726 62.935c.881-1.016 3.817-9.299 5.143-7.35 1.327 1.954 5.288 17.497 2.815 19.055-2.473 1.555-16.441-7.637-17.649-9.714-1.209-2.077 8.818-2.35 10.398-2.74" fill="#FFDAD6"/><path d="M371.43 62.016c.843-1.108 3.829-8.763 4.978-6.648 1.147 2.114 4.604 17.784 1.91 19.34-2.691 1.555-16.897-7.936-18.065-10.01-1.167-2.073 9.258-2.084 11.065-2.43m-.383-.082c.722-.977 3.578-8.309 4.857-6.273 1.276 2.032 5.423 16.918 2.809 18.48-2.611 1.558-17.18-7.084-18.486-9.126-1.306-2.038 8.895-2.58 10.652-3.119" stroke="#46464F" stroke-linecap="round"/><path d="M308.291 34.346c16.864.595 32.18-.507 53.477 0 4.308-.41 4.29 1.007 5.156 5.838-1.03 3.37.029 5.446 0 11.679-.359 4.374-1.571 5.47-5.156 5.84-17.335.277-36.153.569-53.477 0-3.877-.038-4.863-2.83-5.157-5.84.757-4.286-.476-8.195 0-11.68.151-4.506.908-6.818 5.157-5.837Z" fill="#FFDAD6"/><path d="M308.29 34.346c19.619-.177 40.011-.6 53.477 0m-53.477 0c17.892.31 35.536.48 53.477 0m-53.477 0c-3.824.088-5.45 1.608-5.156 5.838m5.156-5.838c-3.293-.25-5.468 1.632-5.156 5.838m58.633-5.838c3.871.339 4.686 2.103 5.157 5.838m-5.157-5.838c3.382-.442 5.102 1.328 5.157 5.838m0 0c.413 3.44-.084 7.676 0 11.679m0-11.68c-.185 3.247.078 6.546 0 11.68m0 0c.252 3.502-2.011 5.552-5.157 5.84m5.157-5.84c-.156 4.315-2.063 5.593-5.157 5.84m0 0c-17.035.342-34.919.121-53.477 0m53.477 0c-20.074-.25-40.495-.344-53.477 0m0 0c-3.91-.403-4.706-1.499-5.156-5.84m5.156 5.84c-3.236.11-5.536-1.437-5.156-5.84m0 0c.278-4.524-.258-8.916 0-11.68m0 11.68c.187-2.469.08-5.429 0-11.68" stroke="#46464F" stroke-linecap="round"/><path d="M309.774 45.498c.036-.18.099-.477.117-.621.063-.963.216-1.998.225-2.961.036-.126.144-.198.225-.288a.286.286 0 0 1 .18-.072c.162 0 .324.144.396.297-.009.62-.135 1.206-.171 1.827-.072.594-.126 1.44-.072 1.854.009 0 .036-.01.081-.01l.288-.053c.045-.01.072-.01.081-.01.315-.026.603-.062.891-.062.405 0 .783.063 1.17.243.405.198.738.765.702 1.188.072.477-.306.81-.639 1.116a2.684 2.684 0 0 1-1.566.459c-.441.036-.738-.1-1.143-.333a1.68 1.68 0 0 1-.765-1.26 31.977 31.977 0 0 1 0-1.314Zm.963 1.242c-.072.306.279.585.459.756.234.054.63.08.909.054.342-.072.765-.225.855-.63.108-.342-.279-.702-.567-.792a1.295 1.295 0 0 0-.333-.045c-.405 0-.873.162-1.143.324-.135.108-.216.162-.18.333Zm3.715-.855c.099-.585.441-.936.855-1.314.216-.108.522-.162.837-.162.378 0 .765.072 1.035.216.288.18.837.549 1.089.8-.009.109.054.37-.063.397a1.195 1.195 0 0 1-.585-.09c-.342-.19-.594-.396-.954-.423-.324.009-.657-.054-.963.117-.009 0-.045.045-.054.054-.162.216-.315.405-.405.666.027.486-.063.963.063 1.44.171.306-.018.585-.171.846a.249.249 0 0 1-.198.108.442.442 0 0 1-.261-.108c-.162-.1-.288-.342-.342-.504 0-.576.018-1.521.117-2.043Zm3.804 1.215v-.972c-.09-.126-.09-.441 0-.567.297-.216.72-.441 1.026-.63.288-.171.63-.225.945-.225.873 0 1.755.396 2.304 1.08.252.342.396.81.225 1.197-.387.666-.963 1.08-1.71 1.25-.414.163-.819.109-1.251.109-1.035-.216-1.17-.243-1.539-1.242Zm.855 0c.072.144.297.414.459.45.153.08.369.108.594.108.657 0 1.764-.315 1.854-1.071.09-.315-.216-.486-.396-.684-.324-.18-.756-.423-1.161-.423a.891.891 0 0 0-.378.08.965.965 0 0 0-.171.118c-.108.099-.207.216-.342.279-.117.117-.369.315-.396.459-.117.225-.036.45-.063.684Zm4.012-.558c.09-.585.333-.918.801-1.314.396-.45 1.008-.738 1.593-.63.405-.018.711.315.972.576.18.243.189.567.171.855-.045.08-.126.216-.234.225-.153-.01-.378.08-.45-.117-.045-.117-.18-.477-.279-.531-.207-.135-.414-.1-.639-.09-.468.117-.756.53-1.026.909.009.117-.153.522.063.63.171.207.369.378.612.468.441.17.918.243 1.377.324l1.089.234c.072.063.189.252.171.333-.045.17-.288.342-.459.396-.333.036-.585-.027-.909-.117-.45-.081-.873-.144-1.314-.28-.495-.161-.999-.44-1.314-.845-.207-.28-.261-.675-.225-1.026Zm5.804.468c-.054-.144-.072-.27-.171-.333 0-.01-.009-.01-.018-.01h-.072c-.063.334-.018.784-.189 1.09-.09.207-.207.44-.405.558-.171.027-.36 0-.45-.162-.153-.243-.162-.594-.063-.855.234-.171.279-.297.288-.621.018-.135-.027-.315-.054-.46v-2.564c-.09-.378-.054-.711-.063-1.08.063-.108.126-.135.261-.126.225-.054.36.243.423.414 0 .036.09.603.117.792.027.126.054.522.054.567v1.089c.018.036.072.072.117.054 1.197-.46 1.107-.46 1.557-.603.297-.135.558-.297.855-.297.099 0 .198.018.306.063.072.08.225.369.207.459-.117.18-.36.17-.576.225-.216.08-.333.126-.405.144.018.018-.135.144-1.206.693v.054c.198.522.504 1.089 1.026 1.314.099.018.198-.027.288-.063.135-.01.27-.018.342.117.198.207.108.567.054.8-.162.145-.342.235-.567.217-.72-.315-1.224-.82-1.656-1.476Zm3.882-1.278c.369-.477.828-.891 1.422-1.08.207-.027.333-.072.522-.063.702.018 1.377.44 1.413 1.206.009.648-.621 1.26-1.251 1.305a1.162 1.162 0 0 1-.387.063c-.36 0-.72-.153-1.035-.342a1.859 1.859 0 0 0-.225-.171.077.077 0 0 0-.063 0c-.126.189-.297.459-.288.684.135.774.963 1.422 1.755 1.368.432.054.801-.108 1.242-.225.315-.126.459-.135.837-.162h.063c.081-.018.162.045.18.162v.333a1.163 1.163 0 0 1-.801.396c-.486.126-.972.306-1.467.288-.54.027-1.035-.108-1.521-.405-.486-.252-.81-.684-1.026-1.188-.207-.792.216-1.521.63-2.17Zm.702.432c.045 0 .279.018.324.027.279.144.558.117.855.117.234-.072.504-.207.621-.405.099-.36-.351-.405-.621-.513-.459.009-.837.378-1.143.684-.009.027-.036.063-.036.09Zm4.805.44.018-.737c0-.135-.036-.693-.045-.801-.018-.072-.036-.198-.099-.243-.378.027-.621.054-.909.198-.189.009-.297.135-.495.108-.144-.054-.243-.216-.369-.324-.045-.126-.045-.387.036-.495l.297-.261c.522-.01.909-.09 1.395-.18l.063-.072.018-1.413c.153-.171.297-.207.513-.162a.775.775 0 0 1 .27.468c.063.144-.009.792.108.909l.171.054c.522-.045.801-.18 1.323-.117l.414.018c.261.036.342.225.288.45-.081.08-.144.153-.234.17-.468.037-.909.163-1.386.262l-.018.009c-.18.009-.378.063-.531.117l-.045.063c0 .396-.063.729.036 1.134 0 .189-.036 1.485.162 1.962.099.09.18.162.324.17a.934.934 0 0 0 .207-.026c.405-.1.477-.072.765-.558a1.745 1.745 0 0 1 .081-.432c.063-.171.135-.28.36-.27.27-.045.288.288.351.423-.027.189-.027.387-.135.549-.297.603-.351.756-1.359 1.089-.144.036-.324.144-.486.144-.234-.01-.459-.072-.612-.27-.144-.306-.441-.621-.378-1.062-.009-.28-.063-.567-.09-.855-.009-.01-.009-.01-.009-.018Zm3.631.154v-.063c.117-.9.99-1.872 1.989-1.71.423.018.864.36.855.8 0 .199-.225.09-.342.118-.306-.108-.54-.153-.855-.117-.459.234-.918.639-.909 1.197-.099.423.261.639.621.639a.768.768 0 0 0 .351-.072c.765-.396 1.251-1.152 1.593-1.935 0-.072 0-.198.009-.36l.036-1.098c.009-.162.009-.297.009-.36.036-.387.045-.765.171-1.143.027-.288.135-.846.171-1.08a.396.396 0 0 1 .288-.342c.162.009.477.126.504.288.108.252.045.477.063.738-.018.108.054.549.054.684 0 .26-.09 1.08-.117 1.305-.045.378-.279.684-.342 1.08v.576s.009.009.009.027l.045.108c0 .018.009.027.009.027l.171.576c.126.477.333.873.513 1.305.009.153.018.279-.117.387-.027.045-.063.054-.099.054-.099 0-.207-.1-.297-.153-.378-.378-.558-.99-.738-1.485-.207.117-.54.666-.684.8-.333.343-.738.694-1.197.847-.207.027-.441.072-.666.072-.252 0-.504-.054-.702-.234a2.707 2.707 0 0 1-.225-.234c-.225-.36-.189-.837-.171-1.242Zm5.997-1.026c.369-.477.828-.891 1.422-1.08.207-.027.333-.072.522-.063.702.018 1.377.44 1.413 1.206.009.648-.621 1.26-1.251 1.305a1.162 1.162 0 0 1-.387.063c-.36 0-.72-.153-1.035-.342a1.859 1.859 0 0 0-.225-.171.077.077 0 0 0-.063 0c-.126.189-.297.459-.288.684.135.774.963 1.422 1.755 1.368.432.054.801-.108 1.242-.225.315-.126.459-.135.837-.162h.063c.081-.018.162.045.18.162v.333a1.163 1.163 0 0 1-.801.396c-.486.126-.972.306-1.467.288-.54.027-1.035-.108-1.521-.405-.486-.252-.81-.684-1.026-1.188-.207-.792.216-1.521.63-2.17Zm.702.432c.045 0 .279.018.324.027.279.144.558.117.855.117.234-.072.504-.207.621-.405.099-.36-.351-.405-.621-.513-.459.009-.837.378-1.143.684-.009.027-.036.063-.036.09Zm4.219-.432c.369-.477.828-.891 1.422-1.08.207-.027.333-.072.522-.063.702.018 1.377.44 1.413 1.206.009.648-.621 1.26-1.251 1.305a1.162 1.162 0 0 1-.387.063c-.36 0-.72-.153-1.035-.342a1.859 1.859 0 0 0-.225-.171.077.077 0 0 0-.063 0c-.126.189-.297.459-.288.684.135.774.963 1.422 1.755 1.368.432.054.801-.108 1.242-.225.315-.126.459-.135.837-.162h.063c.081-.018.162.045.18.162v.333a1.163 1.163 0 0 1-.801.396c-.486.126-.972.306-1.467.288-.54.027-1.035-.108-1.521-.405-.486-.252-.81-.684-1.026-1.188-.207-.792.216-1.521.63-2.17Zm.702.432c.045 0 .279.018.324.027.279.144.558.117.855.117.234-.072.504-.207.621-.405.099-.36-.351-.405-.621-.513-.459.009-.837.378-1.143.684-.009.027-.036.063-.036.09Zm3.617-.28c.099-.584.441-.935.855-1.313.216-.108.522-.162.837-.162.378 0 .765.072 1.035.216.288.18.837.549 1.089.8-.009.109.054.37-.063.397a1.195 1.195 0 0 1-.585-.09c-.342-.19-.594-.396-.954-.423-.324.009-.657-.054-.963.117-.009 0-.045.045-.054.054-.162.216-.315.405-.405.666.027.486-.063.963.063 1.44.171.306-.018.585-.171.846a.249.249 0 0 1-.198.108.442.442 0 0 1-.261-.108c-.162-.1-.288-.342-.342-.504 0-.576.018-1.521.117-2.043Z" fill="#46464F"/><path fill-rule="evenodd" clip-rule="evenodd" d="M922.754 321.944c-.882 1.016-3.817 9.299-5.144 7.349-1.326-1.953-5.287-17.496-2.814-19.054 2.472-1.555 16.44 7.637 17.649 9.714 1.208 2.076-8.819 2.35-10.399 2.739" fill="#FFF0C9"/><path d="M922.049 322.863c-.842 1.108-3.828 8.763-4.978 6.648-1.146-2.115-4.604-17.784-1.91-19.34 2.691-1.555 16.898 7.935 18.065 10.009 1.167 2.074-9.258 2.085-11.065 2.43m.384.083c-.722.977-3.579 8.309-4.858 6.273-1.276-2.032-5.423-16.918-2.809-18.48 2.612-1.558 17.181 7.084 18.487 9.126 1.305 2.038-8.896 2.58-10.652 3.119" stroke="#46464F" stroke-linecap="round"/><path d="M928.05 325.346c12.891.595 24.6-.507 40.881 0 3.293-.409 3.279 1.007 3.942 5.838-.788 3.369.022 5.446 0 11.679-.275 4.374-1.202 5.469-3.942 5.841-13.252.276-27.638.568-40.881 0-2.964-.039-3.718-2.831-3.942-5.841.578-4.286-.364-8.195 0-11.679.115-4.507.694-6.819 3.942-5.838Z" fill="#FFF0C9"/><path d="M928.05 325.346c14.998-.177 30.587-.601 40.881 0m-40.881 0c13.677.309 27.166.48 40.881 0m-40.881 0c-2.924.088-4.167 1.608-3.942 5.838m3.942-5.838c-2.518-.25-4.181 1.632-3.942 5.838m44.823-5.838c2.959.339 3.582 2.103 3.942 5.838m-3.942-5.838c2.586-.442 3.9 1.328 3.942 5.838m0 0c.316 3.44-.064 7.676 0 11.679m0-11.679c-.141 3.246.06 6.545 0 11.679m0 0c.193 3.502-1.537 5.552-3.942 5.841m3.942-5.841c-.119 4.315-1.577 5.593-3.942 5.841m0 0c-13.023.341-26.695.12-40.881 0m40.881 0c-15.346-.251-30.957-.345-40.881 0m0 0c-2.989-.404-3.598-1.5-3.942-5.841m3.942 5.841c-2.474.109-4.232-1.438-3.942-5.841m0 0c.213-4.525-.197-8.916 0-11.679m0 11.679c.143-2.469.062-5.429 0-11.679" stroke="#46464F" stroke-linecap="round"/><path d="M933.882 337.704a.828.828 0 0 0-.171.225c-.495.54-1.125 1.143-1.917 1.134-.369.045-.81-.117-1.044-.396-.225-.351-.441-.675-.342-1.08.027-.711.693-1.224 1.197-1.647.297-.243.657-.306 1.026-.306.288 0 .585.045.855.072.099.072.351.117.279.288.009.027.09.09.117.117.126.054.27.117.342.225.243.495.522 1.035.792 1.476.072.09.387.315.459.405.225.162.315.315.513.342.027.009.09.081.117.108.018.063-.045.171-.063.234-.081.117-.261.18-.396.216-.27.063-.396-.063-.648-.198l-.036-.018c-.378-.324-.729-.819-1.08-1.197Zm-2.619.279c.117.18.297.243.486.243.144 0 .288-.036.423-.072.405-.153.549-.288.801-.567.171-.234.36-.549.396-.855.009-.108.072-.351.063-.468-.351.081-.675.045-1.035.126-.513.072-.882.594-1.188 1.026-.135.171-.045.387.054.567Zm5.544.387c.054-.099.126-.189.171-.288.306.054.558.171.792.396.477.369 1.089.279 1.656.288.063 0 .441-.09.513-.117.126-.054.144-.189.054-.279-.288-.207-1.431-.729-1.647-.855a5.148 5.148 0 0 1-1.602-.801c-.144-.18-.36-.261-.396-.513-.009-.27.144-.468.342-.621.261-.099.558-.135.801-.288.495-.198 1.062-.351 1.593-.387.324.027.558.018.684.333.036.216 0 .36-.171.513-.594.027-1.197.009-1.701.306-.135.045-.288.234-.063.315.747.513 1.566.756 2.331 1.197.531.333 1.188 1.107.513 1.647-.459.369-1.179.378-1.755.396-.585.027-1.341-.18-1.836-.567-.288-.108-.315-.423-.279-.675Zm4.419-4.383a.484.484 0 0 1 .486-.288c.243-.036.405.225.54.405.018.045.324.378.342.396.081.108.108.315 0 .405h-.198c-.333.054-.72-.216-.999-.342a.437.437 0 0 1-.171-.576Zm.576 4.563c-.045-.243-.144-1.458-.171-1.71a4.874 4.874 0 0 1 0-.513c.09-.153.27-.207.45-.171.108.054.189.234.234.342.009.549.162.972.279 1.485.009.162-.054.639-.054.684-.036.126-.045.315-.171.387-.153.027-.288 0-.396-.108-.045-.081-.153-.279-.171-.396Zm4.938-.846a.828.828 0 0 0-.171.225c-.495.54-1.125 1.143-1.917 1.134-.369.045-.81-.117-1.044-.396-.225-.351-.441-.675-.342-1.08.027-.711.693-1.224 1.197-1.647.297-.243.657-.306 1.026-.306.288 0 .585.045.855.072.099.072.351.117.279.288.009.027.09.09.117.117.126.054.27.117.342.225.243.495.522 1.035.792 1.476.072.09.387.315.459.405.225.162.315.315.513.342.027.009.09.081.117.108.018.063-.045.171-.063.234-.081.117-.261.18-.396.216-.27.063-.396-.063-.648-.198l-.036-.018c-.378-.324-.729-.819-1.08-1.197Zm-2.619.279c.117.18.297.243.486.243.144 0 .288-.036.423-.072.405-.153.549-.288.801-.567.171-.234.36-.549.396-.855.009-.108.072-.351.063-.468-.351.081-.675.045-1.035.126-.513.072-.882.594-1.188 1.026-.135.171-.045.387.054.567Zm7.434-1.431c-.423.36-.792.81-1.08 1.251-.144.261-.396.639-.513.909-.072.117-.162.144-.288.117l-.396-.405c-.018-.063 0-.225 0-.279.081-.405.117-1.251.171-1.71 0-.018 0-.045-.009-.081l-.036-.234c-.009-.036-.009-.063-.009-.081v-.036c0-.198.144-.324.333-.315.162 0 .315.045.405.18.063.243.063.333.063.63 0 .144-.009.288-.009.333.09-.072.495-.477.567-.567.198-.243.279-.45.558-.666.135-.171.306-.126.504-.135.288-.09.567.405.711.639.189.441.279.9.279 1.413l.171.738c0 .045.117.315.117.342.009.108-.018.27-.117.342-.081.018-.198.09-.288.09-.045 0-.09-.018-.108-.09-.099-.153-.189-.324-.288-.45a6.76 6.76 0 0 1-.225-1.143c-.072-.153-.081-.423-.171-.567-.063-.072-.198-.216-.252-.234-.027 0-.063-.009-.09.009Zm2.401.855c.009-.954.09-1.737.126-2.727-.018-1.017.099-2.376.054-3.411.054-.171.153-.234.27-.234.153 0 .324.126.414.288 0 .045 0 .117.009.216l.036.648c.009.099.009.171.009.216-.036 1.584-.18 3.294-.225 4.779.063.702.036 1.197.342 1.701.009.09.009.135-.063.225a.58.58 0 0 1-.297.072.664.664 0 0 1-.324-.072c-.432-.468-.333-1.116-.351-1.701Zm1.807-3.42a.484.484 0 0 1 .486-.288c.243-.036.405.225.54.405.018.045.324.378.342.396.081.108.108.315 0 .405h-.198c-.333.054-.72-.216-.999-.342a.437.437 0 0 1-.171-.576Zm.576 4.563c-.045-.243-.144-1.458-.171-1.71a4.874 4.874 0 0 1 0-.513c.09-.153.27-.207.45-.171.108.054.189.234.234.342.009.549.162.972.279 1.485.009.162-.054.639-.054.684-.036.126-.045.315-.171.387-.153.027-.288 0-.396-.108-.045-.081-.153-.279-.171-.396Zm1.527-.747v-.972c-.09-.126-.09-.441 0-.567.297-.216.72-.441 1.026-.63.288-.171.63-.225.945-.225.873 0 1.755.396 2.304 1.08.252.342.396.81.225 1.197-.387.666-.963 1.08-1.71 1.251-.414.162-.819.108-1.251.108-1.035-.216-1.17-.243-1.539-1.242Zm.855 0c.072.144.297.414.459.45.153.081.369.108.594.108.657 0 1.764-.315 1.854-1.071.09-.315-.216-.486-.396-.684-.324-.18-.756-.423-1.161-.423a.891.891 0 0 0-.378.081.965.965 0 0 0-.171.117c-.108.099-.207.216-.342.279-.117.117-.369.315-.396.459-.117.225-.036.45-.063.684Zm6.352-1.251c-.423.36-.792.81-1.08 1.251-.144.261-.396.639-.513.909-.072.117-.162.144-.288.117l-.396-.405c-.018-.063 0-.225 0-.279.081-.405.117-1.251.171-1.71 0-.018 0-.045-.009-.081l-.036-.234c-.009-.036-.009-.063-.009-.081v-.036c0-.198.144-.324.333-.315.162 0 .315.045.405.18.063.243.063.333.063.63 0 .144-.009.288-.009.333.09-.072.495-.477.567-.567.198-.243.279-.45.558-.666.135-.171.306-.126.504-.135.288-.09.567.405.711.639.189.441.279.9.279 1.413l.171.738c0 .045.117.315.117.342.009.108-.018.27-.117.342-.081.018-.198.09-.288.09-.045 0-.09-.018-.108-.09-.099-.153-.189-.324-.288-.45a6.76 6.76 0 0 1-.225-1.143c-.072-.153-.081-.423-.171-.567-.063-.072-.198-.216-.252-.234-.027 0-.063-.009-.09.009Z" fill="#46464F"/><mask id="path-43-inside-1_18088_64938" fill="#fff"><path fill-rule="evenodd" clip-rule="evenodd" d="M65.595 254.591c.92 1.148 3.29 8.088 4.359 5.855 1.067-2.232 4.76-17.611 2.051-19.246-2.711-1.634-17.224 7.199-18.315 9.438-1.087 2.238 9.848 3.472 11.781 3.994"/></mask><path fill-rule="evenodd" clip-rule="evenodd" d="M65.595 254.591c.92 1.148 3.29 8.088 4.359 5.855 1.067-2.232 4.76-17.611 2.051-19.246-2.711-1.634-17.224 7.199-18.315 9.438-1.087 2.238 9.848 3.472 11.781 3.994" fill="#D1ECFF"/><path d="m69.954 260.446.902.432v-.001l-.902-.431Zm2.051-19.246.517-.856-.517.856Zm-18.315 9.438-.899-.438v.001l.9.437Zm11.124 4.578c.05.061.15.22.303.512.144.276.31.617.493 1.004.36.761.79 1.696 1.223 2.52.413.786.91 1.632 1.442 2.12.252.231.727.582 1.35.503.673-.087 1.043-.606 1.23-.997l-1.803-.864c-.08.167-.018-.08.318-.123.285-.037.392.13.256.006-.24-.221-.595-.763-1.023-1.576-.408-.775-.81-1.651-1.186-2.445a30.57 30.57 0 0 0-.53-1.077c-.156-.298-.331-.608-.511-.833l-1.562 1.25Zm6.042 5.661c.316-.66.768-2.133 1.219-3.903.46-1.805.943-4.016 1.307-6.211.363-2.186.614-4.398.596-6.19-.01-.893-.086-1.731-.273-2.427-.18-.665-.51-1.396-1.183-1.802l-1.033 1.713c-.004-.002.034.019.093.118.061.101.129.259.191.49.125.466.196 1.115.205 1.929.017 1.621-.214 3.7-.569 5.841a75.016 75.016 0 0 1-1.272 6.045c-.457 1.793-.867 3.079-1.085 3.535l1.804.862Zm1.666-20.533c-.645-.389-1.462-.387-2.172-.29-.756.103-1.624.347-2.536.676-1.83.658-3.984 1.707-6.06 2.863-2.08 1.158-4.115 2.441-5.707 3.584a24.922 24.922 0 0 0-2.034 1.6c-.506.451-.99.948-1.222 1.423l1.798.876c.042-.085.249-.354.756-.808.471-.42 1.107-.92 1.869-1.467 1.52-1.092 3.49-2.335 5.512-3.461 2.028-1.128 4.078-2.121 5.766-2.729.847-.304 1.567-.499 2.127-.575.28-.038.494-.043.65-.028a.987.987 0 0 1 .169.029c.037.011.051.02.051.02l1.033-1.713Zm-19.731 9.857a1.673 1.673 0 0 0-.157 1c.054.344.21.629.39.853.338.426.846.739 1.339.978 1.011.492 2.431.892 3.86 1.221 1.448.334 2.985.611 4.266.835 1.32.231 2.296.394 2.722.509l.52-1.931c-.54-.145-1.658-.332-2.897-.548-1.28-.224-2.77-.493-4.162-.814-1.41-.324-2.641-.685-3.435-1.07-.409-.199-.592-.354-.65-.427-.02-.025.01.004.023.083a.335.335 0 0 1-.02.185l-1.8-.874Z" fill="#46464F" mask="url(#path-43-inside-1_18088_64938)"/><path d="M65.223 254.351c.79 1.131 3.79 8.356 4.91 6.303 1.124-2.056 4.43-17.048 1.813-18.63-2.614-1.582-16.373 7.105-17.507 9.14-1.135 2.038 8.927 2.607 10.705 3.081m-.31-.03c.725 1.193 3.752 8.943 5.055 6.822 1.303-2.121 5.326-17.947 2.768-19.546-2.559-1.599-16.792 7.785-18.118 9.95-1.324 2.165 8.341 2.66 10.168 3.034" stroke="#46464F" stroke-linecap="round"/><path d="m6.15 259.341.08.025.082-.002c5.41-.083 10.832.055 16.66.203 2.05.052 4.151.105 6.32.151 8.317.174 17.603.231 28.792-.353 1.823.13 2.846.618 3.465 1.41.637.816.929 2.054 1.03 3.894-.896 4.749-.638 6.763-.037 11.433l.043.337c.221 2.147-.25 3.41-1.022 4.156-.786.76-1.991 1.091-3.47 1.127-9.02-.384-18.229-.235-27.044-.065l-1.532.03c-8.258.161-16.133.315-23.166.037-2.05-.311-3.278-.736-3.953-1.465-.648-.7-.89-1.805-.593-3.804l.007-.047-.002-.046c-.019-.477-.061-.969-.108-1.523-.168-1.951-.4-4.66.106-10.09l.005-.047-.005-.047c-.216-2.261.35-3.769 1.184-4.609.827-.832 1.988-1.082 3.159-.705Z" fill="#D1ECFF" stroke="#46464F"/><path d="M6.304 258.864c13.335-.695 26.153-.062 51.785 0m-51.785 0c16.446-.026 32.6-.25 51.785 0m-51.785 0c-3.557-.277-5.427 2.333-4.993 5.838m4.993-5.838c-3.008.056-4.807 2.48-4.993 5.838m56.778-5.838c3.003.362 5.389 1.85 4.993 5.838m-4.993-5.838c3.056-.203 4.565 1.293 4.993 5.838m0 0c.151 2.286.161 4.678 0 11.679m0-11.679c-.123 3.493.111 7.122 0 11.679m0 0c-.04 3.322-2.151 5.794-4.993 5.841m4.993-5.841c-.015 4.386-1.086 5.929-4.993 5.841m0 0c-12.7-.036-25.901-.589-51.785 0m51.785 0c-10.86.112-21.93.106-51.785 0m0 0c-2.96.026-5.432-1.865-4.993-5.841m4.993 5.841c-2.759-.139-5.182-1.971-4.993-5.841m0 0c-.28-3.016.138-5.426 0-11.679m0 11.679c-.25-4.05-.217-8.18 0-11.679" stroke="#46464F" stroke-linecap="round"/><path d="M11.569 271.507a.828.828 0 0 0-.171.225c-.495.54-1.125 1.143-1.917 1.134-.369.045-.81-.117-1.044-.396-.225-.351-.441-.675-.342-1.08.027-.711.693-1.224 1.197-1.647.297-.243.657-.306 1.026-.306.288 0 .585.045.855.072.099.072.351.117.279.288.009.027.09.09.117.117.126.054.27.117.342.225.243.495.522 1.035.792 1.476.072.09.387.315.459.405.225.162.315.315.513.342.027.009.09.081.117.108.018.063-.045.171-.063.234-.081.117-.261.18-.396.216-.27.063-.396-.063-.648-.198l-.036-.018c-.378-.324-.729-.819-1.08-1.197Zm-2.619.279c.117.18.297.243.486.243.144 0 .288-.036.423-.072.405-.153.549-.288.801-.567.171-.234.36-.549.396-.855.009-.108.072-.351.063-.468-.351.081-.675.045-1.035.126-.513.072-.882.594-1.188 1.026-.135.171-.045.387.054.567Zm5.634-.576c.009-.954.09-1.737.126-2.727-.018-1.017.099-2.376.054-3.411.054-.171.153-.234.27-.234.153 0 .324.126.414.288 0 .045 0 .117.009.216l.036.648c.009.099.009.171.009.216-.036 1.584-.18 3.294-.225 4.779.063.702.036 1.197.342 1.701.009.09.009.135-.063.225a.58.58 0 0 1-.297.072.664.664 0 0 1-.324-.072c-.432-.468-.333-1.116-.351-1.701Zm2.364 0c.01-.954.09-1.737.126-2.727-.018-1.017.1-2.376.054-3.411.054-.171.153-.234.27-.234.153 0 .324.126.414.288 0 .045 0 .117.01.216l.035.648c.01.099.01.171.01.216-.037 1.584-.18 3.294-.226 4.779.063.702.036 1.197.342 1.701.01.09.01.135-.063.225a.58.58 0 0 1-.297.072.664.664 0 0 1-.324-.072c-.432-.468-.333-1.116-.35-1.701Zm1.941.396v-.972c-.09-.126-.09-.441 0-.567.297-.216.72-.441 1.026-.63.288-.171.63-.225.945-.225.873 0 1.755.396 2.304 1.08.252.342.396.81.225 1.197-.387.666-.963 1.08-1.71 1.251-.414.162-.819.108-1.25.108-1.036-.216-1.17-.243-1.54-1.242Zm.855 0c.072.144.297.414.46.45.152.081.368.108.593.108.657 0 1.764-.315 1.854-1.071.09-.315-.216-.486-.396-.684-.324-.18-.756-.423-1.16-.423a.891.891 0 0 0-.379.081.965.965 0 0 0-.17.117c-.109.099-.208.216-.343.279-.117.117-.369.315-.396.459-.117.225-.036.45-.063.684Zm4.462.567c.054-.099.126-.189.17-.288.307.054.559.171.793.396.477.369 1.089.279 1.656.288.063 0 .44-.09.513-.117.126-.054.144-.189.054-.279-.288-.207-1.431-.729-1.647-.855a5.148 5.148 0 0 1-1.602-.801c-.144-.18-.36-.261-.396-.513-.01-.27.144-.468.342-.621.26-.099.558-.135.8-.288.496-.198 1.063-.351 1.594-.387.324.027.558.018.684.333.036.216 0 .36-.171.513-.594.027-1.197.009-1.701.306-.135.045-.288.234-.063.315.747.513 1.566.756 2.33 1.197.532.333 1.189 1.107.514 1.647-.46.369-1.18.378-1.755.396-.585.027-1.341-.18-1.836-.567-.288-.108-.315-.423-.28-.675Zm7.964-.666a.828.828 0 0 0-.17.225c-.495.54-1.125 1.143-1.918 1.134-.369.045-.81-.117-1.044-.396-.224-.351-.44-.675-.341-1.08.027-.711.693-1.224 1.197-1.647.297-.243.657-.306 1.026-.306.287 0 .584.045.854.072.1.072.352.117.28.288.008.027.09.09.116.117.127.054.27.117.343.225.242.495.522 1.035.791 1.476.072.09.387.315.46.405.224.162.314.315.512.342.027.009.09.081.117.108.018.063-.044.171-.063.234-.08.117-.26.18-.395.216-.27.063-.397-.063-.649-.198l-.035-.018c-.378-.324-.73-.819-1.08-1.197Zm-2.619.279c.118.18.298.243.487.243.143 0 .288-.036.422-.072.405-.153.55-.288.802-.567.17-.234.36-.549.395-.855.01-.108.073-.351.064-.468-.352.081-.675.045-1.035.126-.514.072-.883.594-1.189 1.026-.134.171-.044.387.055.567Zm8.713-1.521.044.009c.019-.18.036-.369.154-.495.09-.108.098-.135.224-.126.136-.027.217.09.343.18a.891.891 0 0 1 .116.567c0 .009-.099.252-.17.423-.055.477-.072.891.233 1.305.1.225.163.405.028.576a.135.135 0 0 1-.136.09c-.126 0-.315-.108-.44-.153-.243-.162-.36-.414-.414-.711-.495.531-.846.702-1.576.864-.639.072-.998-.279-1.458-.684-.44-.603-.342-.963-.342-1.593a.42.42 0 0 0 .055-.171v-.054c-.036-.18.072-.477.117-.63a1.33 1.33 0 0 1 .224-.225c.136-.036.379.045.514.054.242.063.17.378.17.567 0 .027-.053.108-.053.117-.136.288-.18.504-.18.81-.045.333.224.702.468.9.197.045.36.099.53.099a.766.766 0 0 0 .378-.099c.585-.234.846-.819 1.161-1.359 0-.09.01-.18.01-.261Zm1.677.126c.099-.585.44-.936.855-1.314.216-.108.522-.162.837-.162.378 0 .765.072 1.035.216.288.18.837.549 1.089.801-.01.108.054.369-.063.396a1.195 1.195 0 0 1-.585-.09c-.342-.189-.594-.396-.954-.423-.324.009-.657-.054-.963.117-.01 0-.045.045-.054.054-.162.216-.315.405-.405.666.027.486-.063.963.063 1.44.17.306-.018.585-.171.846a.249.249 0 0 1-.198.108.442.442 0 0 1-.261-.108c-.162-.099-.288-.342-.342-.504 0-.576.018-1.521.117-2.043Zm7.305-.126.045.009c.018-.18.036-.369.153-.495.09-.108.099-.135.225-.126.135-.027.216.09.342.18a.891.891 0 0 1 .117.567c0 .009-.1.252-.171.423-.054.477-.072.891.234 1.305.099.225.162.405.027.576a.135.135 0 0 1-.135.09c-.126 0-.315-.108-.441-.153-.243-.162-.36-.414-.414-.711-.495.531-.846.702-1.575.864-.64.072-1-.279-1.458-.684-.441-.603-.342-.963-.342-1.593a.42.42 0 0 0 .054-.171v-.054c-.036-.18.072-.477.117-.63a1.33 1.33 0 0 1 .225-.225c.135-.036.378.045.513.054.243.063.17.378.17.567 0 .027-.053.108-.053.117-.135.288-.18.504-.18.81-.045.333.225.702.468.9.198.045.36.099.53.099a.766.766 0 0 0 .379-.099c.585-.234.846-.819 1.16-1.359 0-.09.01-.18.01-.261Zm1.947 1.908c.054-.099.126-.189.171-.288.306.054.558.171.792.396.477.369 1.09.279 1.656.288.063 0 .441-.09.513-.117.126-.054.144-.189.054-.279-.288-.207-1.43-.729-1.647-.855a5.148 5.148 0 0 1-1.602-.801c-.144-.18-.36-.261-.396-.513-.009-.27.144-.468.342-.621.261-.099.558-.135.801-.288.495-.198 1.062-.351 1.593-.387.324.027.558.018.684.333.036.216 0 .36-.17.513-.595.027-1.198.009-1.702.306-.135.045-.288.234-.063.315.747.513 1.566.756 2.331 1.197.531.333 1.188 1.107.513 1.647-.459.369-1.179.378-1.755.396-.585.027-1.34-.18-1.836-.567-.288-.108-.315-.423-.279-.675Z" fill="#46464F"/><path d="M123.117 179.626c2.128 5.015 2.567 8.739 5.294 11.74m-4.555-11.161c1.465 3.906 2.798 8.361 3.688 13.065m-1.265 1.22c-8.108-.907-15.021 1.968-30.613 2.293m31.868-2.897c-11.732.682-20.316 2.97-31.963 4.468m-1.52-1.518c3.21-1.127 2.25-5.192 2.986-9.677m-.525 10.301c.188-1.681-.927-5.141-.257-11.299m-2.588 1.985c11.423-4.386 22.308-6.919 28.704-6.087m-26.674 5.442c6.352-2.948 13.177-3.157 27.366-6.403M1182.38 348.045c-4.37 3.817-7.94 5.569-10.14 9.231m9.77-8.324c-3.46 2.792-7.49 5.654-11.9 8.186m-1.56-.762c-1.37-8.01-6.14-13.53-10.82-28.19m11.77 29.163c-3.95-10.874-8.62-18.189-13.35-28.69m1.08-1.986c2.01 2.639 5.76.27 10.41-.642m-10.35 3.199c1.72-.425 4.83-2.723 11.12-4.299m-2.69-1.74c7.53 9.252 13.08 18.659 14.04 25.019m-12.83-23.327c4.69 4.962 6.8 11.356 13.98 23.638" stroke="#E0DFFF" stroke-width="2" stroke-linecap="round"/><path d="M1265.41 299.258c-2.92-1.88-11.01-8.661-16.48-11.917-5.47-3.256-13.55-6.081-16.33-7.607m34.78 18.783c-3.12-2.152-13.42-9.653-19.31-12.998-5.9-3.35-13.24-5.707-16.05-7.086" stroke="#D1ECFF" stroke-width="2" stroke-linecap="round"/><mask id="path-52-inside-2_18088_64938" fill="#fff"><path fill-rule="evenodd" clip-rule="evenodd" d="M1175.9 192.271c-.92-1.149-3.29-8.089-4.36-5.856-1.07 2.233-4.76 17.611-2.05 19.246 2.71 1.635 17.22-7.199 18.31-9.437 1.09-2.239-9.85-3.473-11.78-3.995"/></mask><path fill-rule="evenodd" clip-rule="evenodd" d="M1175.9 192.271c-.92-1.149-3.29-8.089-4.36-5.856-1.07 2.233-4.76 17.611-2.05 19.246 2.71 1.635 17.22-7.199 18.31-9.437 1.09-2.239-9.85-3.473-11.78-3.995" fill="#D3FFD2"/><path d="m1171.54 186.415-.9-.432-.01.001.91.431Zm-2.05 19.246-.52.856.52-.856Zm18.31-9.437.9.438v-.001l-.9-.437Zm-11.12-4.578c-.05-.062-.15-.22-.31-.513-.14-.276-.3-.616-.49-1.004-.36-.761-.79-1.696-1.22-2.52-.42-.786-.91-1.632-1.44-2.12-.26-.23-.73-.582-1.35-.502-.68.086-1.05.605-1.23.996l1.8.864c.08-.167.02.08-.32.123-.28.037-.39-.13-.26-.006.25.221.6.763 1.03 1.576.41.776.81 1.652 1.18 2.445.19.39.37.762.53 1.077.16.298.34.608.52.834l1.56-1.25Zm-6.05-5.662c-.31.66-.76 2.134-1.21 3.903a75.238 75.238 0 0 0-1.31 6.212c-.36 2.186-.62 4.397-.6 6.19.01.892.09 1.73.28 2.427.18.664.51 1.395 1.18 1.801l1.03-1.712c.01.002-.03-.019-.09-.119a1.915 1.915 0 0 1-.19-.489c-.13-.466-.2-1.115-.21-1.93-.01-1.62.22-3.699.57-5.841.36-2.133.83-4.288 1.27-6.045.46-1.793.87-3.079 1.09-3.535l-1.81-.862Zm-1.66 20.533c.64.389 1.46.387 2.17.29.76-.102 1.62-.347 2.54-.675 1.83-.659 3.98-1.708 6.06-2.864 2.08-1.157 4.11-2.441 5.7-3.583.8-.571 1.5-1.116 2.04-1.6.5-.452.99-.949 1.22-1.423l-1.8-.876c-.04.085-.25.353-.75.807-.47.421-1.11.92-1.87 1.467-1.52 1.092-3.49 2.335-5.51 3.461-2.03 1.128-4.08 2.121-5.77 2.729-.85.305-1.57.499-2.13.576-.28.038-.49.042-.65.027a1.087 1.087 0 0 1-.17-.029.835.835 0 0 1-.05-.02l-1.03 1.713Zm19.73-9.856c.15-.306.21-.648.16-1.001a1.87 1.87 0 0 0-.39-.853c-.34-.425-.85-.738-1.34-.978-1.01-.492-2.43-.892-3.86-1.221-1.45-.333-2.99-.61-4.27-.834-1.32-.231-2.29-.395-2.72-.51l-.52 1.931c.54.146 1.66.332 2.9.549 1.28.224 2.77.493 4.16.813 1.41.325 2.64.685 3.43 1.071.41.199.6.353.65.426.02.025-.01-.004-.02-.083a.405.405 0 0 1 .02-.184l1.8.874Z" fill="#46464F" mask="url(#path-52-inside-2_18088_64938)"/><path d="M1176.27 192.51c-.79-1.131-3.79-8.356-4.91-6.303-1.13 2.056-4.43 17.048-1.82 18.63 2.62 1.582 16.38-7.104 17.51-9.14 1.14-2.038-8.93-2.606-10.7-3.081m.31.03c-.73-1.193-3.76-8.943-5.06-6.822-1.3 2.121-5.32 17.947-2.77 19.546 2.56 1.6 16.8-7.785 18.12-9.949 1.32-2.165-8.34-2.66-10.17-3.034" stroke="#46464F" stroke-linecap="round"/><path d="m1184.27 165.807.06.017.07-.001c6.51-.083 13.05.055 20.07.203 11.99.252 25.37.534 42.36-.202 2.25.131 3.53.632 4.29 1.445.77.811 1.11 2.031 1.24 3.852-.55 2.404-.75 4.119-.7 5.856.04 1.654.3 3.316.65 5.581.02.115.04.233.05.351.27 2.115-.29 3.361-1.23 4.114-.97.785-2.48 1.122-4.29 1.158-10.87-.384-21.97-.235-32.6-.065l-1.85.03c-9.96.161-19.47.315-27.96.036-2.48-.312-4.01-.744-4.85-1.497-.78-.699-1.07-1.779-.71-3.756l.01-.056-.01-.056a23.4 23.4 0 0 0-.13-1.529c-.2-1.952-.48-4.651.13-10.071l.01-.056-.01-.057c-.26-2.229.41-3.721 1.42-4.567 1.03-.857 2.5-1.124 3.98-.73Z" fill="#D3FFD2" stroke="#46464F"/><path d="M1184.4 165.323c16.07-.695 31.53-.062 62.44 0m-62.44 0c19.83-.026 39.3-.25 62.44 0m-62.44 0c-4.29-.277-6.55 2.333-6.03 5.838m6.03-5.838c-3.63.056-5.8 2.48-6.03 5.838m68.47-5.838c3.62.362 6.5 1.85 6.02 5.838m-6.02-5.838c3.68-.203 5.5 1.293 6.02 5.838m0 0c.18 2.286.19 4.678 0 11.679m0-11.679c-.15 3.493.13 7.122 0 11.679m0 0c-.05 3.322-2.6 5.794-6.02 5.841m6.02-5.841c-.02 4.386-1.31 5.929-6.02 5.841m0 0c-15.32-.036-31.23-.589-62.44 0m62.44 0c-13.1.112-26.45.106-62.44 0m0 0c-3.57.026-6.55-1.865-6.03-5.841m6.03 5.841c-3.33-.139-6.25-1.971-6.03-5.841m0 0c-.33-3.016.17-5.426 0-11.679m0 11.679c-.3-4.05-.26-8.18 0-11.679" stroke="#46464F" stroke-linecap="round"/><path d="M1183.53 176.588c.1-.585.44-.936.86-1.314.21-.108.52-.162.84-.162.37 0 .76.072 1.03.216.29.18.84.549 1.09.801-.01.108.05.369-.06.396-.17.027-.44-.018-.59-.09-.34-.189-.59-.396-.95-.423-.33.009-.66-.054-.97.117 0 0-.04.045-.05.054-.16.216-.31.405-.4.666.02.486-.07.963.06 1.44.17.306-.02.585-.17.846-.06.072-.13.108-.2.108a.437.437 0 0 1-.26-.108c-.16-.099-.29-.342-.34-.504 0-.576.01-1.521.11-2.043Zm7.22 1.116a.768.768 0 0 0-.17.225c-.5.54-1.13 1.143-1.92 1.134-.37.045-.81-.117-1.04-.396-.23-.351-.44-.675-.34-1.08.02-.711.69-1.224 1.19-1.647.3-.243.66-.306 1.03-.306.29 0 .58.045.85.072.1.072.35.117.28.288.01.027.09.09.12.117.13.054.27.117.34.225.24.495.52 1.035.79 1.476.08.09.39.315.46.405.23.162.32.315.52.342.02.009.09.081.11.108.02.063-.04.171-.06.234-.08.117-.26.18-.4.216-.27.063-.39-.063-.64-.198l-.04-.018c-.38-.324-.73-.819-1.08-1.197Zm-2.62.279c.12.18.3.243.49.243.14 0 .28-.036.42-.072.4-.153.55-.288.8-.567.17-.234.36-.549.4-.855.01-.108.07-.351.06-.468-.35.081-.68.045-1.04.126-.51.072-.88.594-1.18 1.026-.14.171-.05.387.05.567Zm5.08-3.996a.473.473 0 0 1 .48-.288c.25-.036.41.225.54.405.02.045.33.378.34.396.09.108.11.315 0 .405h-.19c-.34.054-.72-.216-1-.342a.433.433 0 0 1-.17-.576Zm.57 4.563c-.04-.243-.14-1.458-.17-1.71a4.387 4.387 0 0 1 0-.513c.09-.153.27-.207.45-.171.11.054.19.234.24.342 0 .549.16.972.27 1.485.01.162-.05.639-.05.684-.04.126-.04.315-.17.387-.15.027-.29 0-.4-.108-.04-.081-.15-.279-.17-.396Zm3.75-1.998c-.42.36-.79.81-1.08 1.251-.14.261-.39.639-.51.909-.07.117-.16.144-.29.117l-.39-.405c-.02-.063 0-.225 0-.279.08-.405.11-1.251.17-1.71 0-.018 0-.045-.01-.081l-.04-.234c-.01-.036-.01-.063-.01-.081v-.036c0-.198.15-.324.34-.315.16 0 .31.045.4.18.06.243.06.333.06.63 0 .144-.01.288-.01.333.09-.072.5-.477.57-.567.2-.243.28-.45.56-.666.13-.171.31-.126.5-.135.29-.09.57.405.71.639.19.441.28.9.28 1.413l.17.738c0 .045.12.315.12.342.01.108-.02.27-.12.342-.08.018-.19.09-.28.09-.05 0-.09-.018-.11-.09-.1-.153-.19-.324-.29-.45a6.13 6.13 0 0 1-.22-1.143c-.08-.153-.09-.423-.18-.567-.06-.072-.19-.216-.25-.234-.02 0-.06-.009-.09.009Zm1.94-.351c.03-.18.1-.477.11-.621.07-.963.22-1.998.23-2.961.03-.126.14-.198.22-.288a.306.306 0 0 1 .18-.072c.17 0 .33.144.4.297-.01.621-.14 1.206-.17 1.827-.07.594-.13 1.44-.07 1.854.01 0 .03-.009.08-.009l.29-.054c.04-.009.07-.009.08-.009.31-.027.6-.063.89-.063.4 0 .78.063 1.17.243.4.198.74.765.7 1.188.07.477-.31.81-.64 1.116-.46.315-1.01.468-1.57.459-.44.036-.73-.099-1.14-.333a1.67 1.67 0 0 1-.76-1.26 28.78 28.78 0 0 1 0-1.314Zm.96 1.242c-.07.306.28.585.46.756.23.054.63.081.91.054.34-.072.76-.225.85-.63.11-.342-.28-.702-.56-.792-.1-.027-.22-.045-.34-.045-.4 0-.87.162-1.14.324-.14.108-.22.162-.18.333Zm3.65.36v-.972c-.09-.126-.09-.441 0-.567.3-.216.72-.441 1.03-.63.29-.171.63-.225.94-.225.88 0 1.76.396 2.31 1.08.25.342.39.81.22 1.197a2.56 2.56 0 0 1-1.71 1.251c-.41.162-.82.108-1.25.108-1.03-.216-1.17-.243-1.54-1.242Zm.86 0c.07.144.29.414.46.45.15.081.36.108.59.108.66 0 1.76-.315 1.85-1.071.09-.315-.21-.486-.39-.684-.33-.18-.76-.423-1.16-.423-.14 0-.26.027-.38.081a.696.696 0 0 0-.17.117c-.11.099-.21.216-.34.279-.12.117-.37.315-.4.459-.12.225-.04.45-.06.684Zm4.07-1.395c.03-.261.01-.576.12-.675.14-.126.36-.198.54-.234.18-.027.3.18.42.288-.01.243.14.603 0 .792-.13.189-.2.576-.22.801-.01.171-.01.486 0 .684 0 .027.05.063.08.063.21-.126.41-.486.6-.693l.05-.108c.05-.108.04-.261.12-.342.14-.153.43-.207.63-.234.2-.009.3.252.4.405.01.063.1.486.1.567.01.027.09.09.12.117h.17c.53-.45.92-1.044 1.37-1.602.08-.135.35-.504.4-.567.04-.072.37-.378.45-.45.13-.117.3-.045.46-.063.18.135.12.378.05.576-.45.585-.86 1.116-1.36 1.701-.31.459-.67.864-1.06 1.242-.19.18-.52.297-.77.297-.28-.099-.49-.351-.62-.63l-.06-.054c-.37.216-.59.666-1.02.846-.13 0-.35.036-.46-.054-.19-.126-.32-.432-.39-.675-.13-.495-.04-.954-.07-1.458v-.252c0-.027-.05-.252-.05-.288Zm5.96.999c.01-.954.09-1.737.13-2.727-.02-1.017.1-2.376.05-3.411.06-.171.16-.234.27-.234.16 0 .33.126.42.288 0 .045 0 .117.01.216l.03.648c.01.099.01.171.01.216-.04 1.584-.18 3.294-.22 4.779.06.702.03 1.197.34 1.701.01.09.01.135-.07.225a.566.566 0 0 1-.29.072.701.701 0 0 1-.33-.072c-.43-.468-.33-1.116-.35-1.701Zm1.94.396v-.972c-.09-.126-.09-.441 0-.567.3-.216.72-.441 1.03-.63.29-.171.63-.225.94-.225.88 0 1.76.396 2.31 1.08.25.342.39.81.22 1.197-.38.666-.96 1.08-1.71 1.251-.41.162-.82.108-1.25.108-1.03-.216-1.17-.243-1.54-1.242Zm.86 0c.07.144.3.414.46.45.15.081.37.108.59.108.66 0 1.77-.315 1.86-1.071.09-.315-.22-.486-.4-.684-.32-.18-.76-.423-1.16-.423-.14 0-.26.027-.38.081a.959.959 0 0 0-.17.117c-.11.099-.21.216-.34.279-.12.117-.37.315-.4.459-.12.225-.03.45-.06.684Zm4.19-1.215c.1-.585.44-.936.85-1.314.22-.108.53-.162.84-.162.38 0 .77.072 1.04.216.28.18.83.549 1.09.801-.01.108.05.369-.07.396-.16.027-.43-.018-.58-.09-.34-.189-.6-.396-.96-.423-.32.009-.65-.054-.96.117-.01 0-.04.045-.05.054-.17.216-.32.405-.41.666.03.486-.06.963.06 1.44.18.306-.01.585-.17.846a.233.233 0 0 1-.19.108.491.491 0 0 1-.27-.108c-.16-.099-.28-.342-.34-.504 0-.576.02-1.521.12-2.043Zm3.67-2.601c.07-.189.29-.306.48-.288.25-.036.41.225.54.405.02.045.33.378.35.396.08.108.1.315 0 .405h-.2c-.33.054-.72-.216-1-.342a.433.433 0 0 1-.17-.576Zm.57 4.563c-.04-.243-.14-1.458-.17-1.71a4.387 4.387 0 0 1 0-.513c.09-.153.27-.207.45-.171.11.054.19.234.24.342.01.549.16.972.28 1.485.01.162-.06.639-.06.684-.03.126-.04.315-.17.387-.15.027-.29 0-.39-.108-.05-.081-.16-.279-.18-.396Zm2.7-.837c-.05-.144-.07-.27-.17-.333 0-.009-.01-.009-.02-.009h-.07c-.06.333-.02.783-.19 1.089-.09.207-.2.441-.4.558-.17.027-.36 0-.45-.162-.16-.243-.16-.594-.07-.855.24-.171.28-.297.29-.621.02-.135-.02-.315-.05-.459v-2.565c-.09-.378-.06-.711-.06-1.08.06-.108.12-.135.26-.126.22-.054.36.243.42.414 0 .036.09.603.12.792.02.126.05.522.05.567v1.089c.02.036.07.072.12.054 1.19-.459 1.1-.459 1.55-.603.3-.135.56-.297.86-.297.1 0 .2.018.31.063.07.081.22.369.2.459-.11.18-.36.171-.57.225-.22.081-.34.126-.41.144.02.018-.13.144-1.2.693v.054c.19.522.5 1.089 1.02 1.314.1.018.2-.027.29-.063.13-.009.27-.018.34.117.2.207.11.567.06.801-.17.144-.35.234-.57.216-.72-.315-1.23-.819-1.66-1.476Zm3.88-1.278c.37-.477.83-.891 1.43-1.08.2-.027.33-.072.52-.063.7.018 1.38.441 1.41 1.206.01.648-.62 1.26-1.25 1.305a1.18 1.18 0 0 1-.39.063c-.36 0-.72-.153-1.03-.342a1.897 1.897 0 0 0-.23-.171c-.01-.009-.04-.009-.06 0-.13.189-.3.459-.29.684.14.774.97 1.422 1.76 1.368.43.054.8-.108 1.24-.225.31-.126.46-.135.84-.162h.06c.08-.018.16.045.18.162v.333c-.23.252-.51.378-.8.396-.49.126-.97.306-1.47.288-.54.027-1.03-.108-1.52-.405-.49-.252-.81-.684-1.03-1.188-.2-.792.22-1.521.63-2.169Zm.71.432c.04 0 .28.018.32.027.28.144.56.117.86.117.23-.072.5-.207.62-.405.1-.36-.35-.405-.62-.513-.46.009-.84.378-1.15.684-.01.027-.03.063-.03.09Zm4.22-.432c.37-.477.82-.891 1.42-1.08.21-.027.33-.072.52-.063.7.018 1.38.441 1.41 1.206.01.648-.62 1.26-1.25 1.305-.12.045-.26.063-.38.063-.36 0-.72-.153-1.04-.342a3.198 3.198 0 0 0-.22-.171.094.094 0 0 0-.07 0c-.12.189-.29.459-.29.684.14.774.97 1.422 1.76 1.368.43.054.8-.108 1.24-.225.32-.126.46-.135.84-.162h.06c.08-.018.16.045.18.162v.333c-.22.252-.51.378-.8.396-.49.126-.97.306-1.47.288-.54.027-1.03-.108-1.52-.405-.48-.252-.81-.684-1.02-1.188-.21-.792.21-1.521.63-2.169Zm.7.432c.04 0 .28.018.32.027.28.144.56.117.86.117.23-.072.5-.207.62-.405.1-.36-.35-.405-.62-.513-.46.009-.84.378-1.15.684 0 .027-.03.063-.03.09Zm4.8.441.02-.738c0-.135-.03-.693-.04-.801-.02-.072-.04-.198-.1-.243-.38.027-.62.054-.91.198-.19.009-.3.135-.5.108-.14-.054-.24-.216-.37-.324-.04-.126-.04-.387.04-.495l.3-.261c.52-.009.91-.09 1.39-.18l.07-.072.01-1.413c.16-.171.3-.207.52-.162.12.099.25.297.27.468.06.144-.01.792.1.909l.18.054c.52-.045.8-.18 1.32-.117l.41.018c.26.036.34.225.29.45-.08.081-.14.153-.23.171-.47.036-.91.162-1.39.261l-.02.009c-.18.009-.38.063-.53.117l-.04.063c0 .396-.07.729.03 1.134 0 .189-.03 1.485.16 1.962.1.09.18.162.33.171.06 0 .12-.009.21-.027.4-.099.47-.072.76-.558-.01-.063.05-.378.08-.432.06-.171.14-.279.36-.27.27-.045.29.288.35.423-.02.189-.02.387-.13.549-.3.603-.35.756-1.36 1.089-.15.036-.33.144-.49.144-.23-.009-.46-.072-.61-.27-.14-.306-.44-.621-.38-1.062-.01-.279-.06-.567-.09-.855-.01-.009-.01-.009-.01-.018Z" fill="#46464F"/><path d="M1273.02 164.446c1.4-.65 4.67-3.63 6.78-4.444 2.1-.809 3.98-1.554 5.84-.431 1.86 1.117 4.5 5.013 5.32 7.163.82 2.15.44 3.598-.41 5.737-.84 2.14-3.86 5.812-4.65 7.1m-14.9-14.322c1.69-.862 7.85-2.586 10.37-3.129 2.53-.537 3.22-.729 4.75-.112 1.52.612 3.4 2.14 4.41 3.795 1.02 1.65 2.08 3.603 1.67 6.12-.4 2.518-3.55 8.026-4.1 8.989" stroke="#FFF0C9" stroke-width="2" stroke-linecap="round"/></svg>