<svg width="31" height="20" fill="none" xmlns="http://www.w3.org/2000/svg"><path d="M8.936 8.483v4.898h-1.56V7.225l3.22.003c1.366 0 1.832.964 1.832 1.84v4.313h-1.556V9.076c0-.367-.19-.593-.648-.593H8.936Zm10.6-.073c-.532 0-.944.274-1.117.646a1.596 1.596 0 0 0-.149.667h2.399c-.031-.667-.334-1.313-1.132-1.313Zm-1.266 2.374c0 .798.496 1.385 1.381 1.385.689 0 1.03-.191 1.429-.587l.963.92c-.617.608-1.264.978-2.403.978-1.493 0-2.921-.814-2.921-3.186 0-2.026 1.247-3.174 2.886-3.174 1.66 0 2.62 1.344 2.62 3.103v.561H18.27Zm-2.867 2.59c-1.27 0-1.81-.885-1.81-1.758V5.548h1.557v1.677h1.174v1.258H15.15v3.035c0 .358.17.556.54.556h.634v1.3h-.921Zm-9.414-7H4.42V4.883h1.57v1.491Zm.004 7.072c-1.175-.113-1.575-.826-1.575-1.65l.002-4.571h1.573v6.22Zm18.71-.132c-1.174-.113-1.572-.825-1.572-1.647V4.671h1.572v8.643Zm5.492-7.632C28.77-1.26 15.296-1.7 6.61 3.588v.584c8.677-4.459 20.982-4.433 22.103 1.96.375 2.115-.816 4.319-2.944 5.586v1.657c2.56-.936 5.187-3.974 4.425-7.693ZM14.407 17.827c-5.994.554-12.24-.316-13.114-5-.428-2.309.624-4.757 2.02-6.277v-.813C.8 7.94-.564 10.729.221 14.024c1.001 4.225 6.362 6.62 14.545 5.825 3.237-.316 7.474-1.357 10.42-2.974v-2.297c-2.673 1.591-7.096 2.908-10.78 3.249Z" fill="#C5C5D0"/><path d="M26.519 5.135c0-.076-.044-.1-.146-.1h-.098v.216l.098.002c.101 0 .146-.034.146-.105v-.013Zm.153.535h-.116a.028.028 0 0 1-.024-.015l-.16-.27c-.002-.005-.016-.011-.021-.011h-.071v.266c0 .015-.01.03-.029.03h-.105c-.013 0-.027-.015-.027-.03v-.675c0-.039.016-.055.049-.06.037-.005.138-.008.192-.008.194 0 .31.057.31.238v.013c0 .112-.056.172-.142.2l.164.28c.001.005.005.012.005.019 0 .01-.006.023-.025.023Zm-.276-.895a.518.518 0 1 0 0 1.041.518.518 0 0 0 0-1.041Zm0 1.146a.624.624 0 1 1 0-1.25c.344 0 .627.281.627.625a.628.628 0 0 1-.627.625Z" fill="#C5C5D0"/></svg>