<svg width="68" height="20" fill="none" xmlns="http://www.w3.org/2000/svg"><path fill-rule="evenodd" clip-rule="evenodd" d="m28.985 18.785 1.384-3.474a.655.655 0 0 0 .06-.248c0-.072-.073-.13-.138-.13-.085 0-.163.058-.222.11l-3.35 2.854c-.652.555-1.357.947-2.232.947-1 0-1.835-.562-1.835-1.62 0-.157.013-.32.026-.476-1.45 1.54-3.023 2.487-5.184 2.487-1.228 0-2.422-.228-3.598-.574l-1.064-.313-.967.437C9.96 19.653 7.85 20 5.761 20c-1.404 0-5.74-.32-5.74-2.423 0-.914 1.15-1.73 1.855-2.096 1.821-.953 3.93-1.514 5.987-1.514 1.567 0 3.095.359 4.616.691l.352.079.921-1.188c2.233-2.86 3.845-6.295 6.582-8.743C24.675.928 30.61 0 36.245 0c3.18 0 6.392.36 9.343 1.6 1.404.587 3.5 1.952 3.5 3.695 0 1.659-1.593 2.82-2.931 3.48-1.92.934-4.218 1.201-6.334 1.201-2.063 0-9.05-.528-9.05-3.466 0-2.58 4.055-3.52 5.988-3.52 1.691 0 3.277.47 4.812 1.13l.385.17-.535.567c-.921-.62-2.129-.881-3.226-.881-1.319 0-3.356.92-3.356 2.474 0 1.94 2.873 2.723 4.388 2.723 2.044 0 5.36-1.175 5.36-3.676 0-1.71-1.658-2.997-3.068-3.637C39.87 1.11 38.067.842 36.264.842c-2.494 0-5.04.483-7.299 1.567-1.959.933-3.389 2.572-4.603 4.328L22.873 8.88c-1.567 2.259-3.192 4.623-5.275 6.431l-.725.62 1.143.405c.58.203 1.208.274 1.822.274 1.658 0 2.48-.535 3.395-1.867l1.273-2.95h4.361l-1.3 3.414-.078.222c-.013.051-.039.104-.039.156 0 .085.091.15.163.15.163 0 .333-.137.444-.228l3.415-2.821c.64-.535 1.312-.94 2.174-.94 1.117 0 1.868.536 1.972 1.639l-.013.02.078-.06c.98-.737 2.044-1.41 3.318-1.41 1.136 0 2.357.692 2.357 1.952 0 .249-.06.504-.15.732l-.575 1.37c-.04.099-.15.275-.15.38 0 .215.306.28.476.28.431 0 .83-.28 1.13-.568.189-1.019.574-1.952 1.272-2.736.882-.985 2.188-1.69 3.533-1.69 1.175 0 2.011.731 2.475 1.736l2.017-4.629H55.5l-2.788 6.817c-.045.111-.13.26-.13.378 0 .177.183.288.346.288.425 0 1.012-.373 1.371-.594.228-.732.529-1.437 1.044-2.011 1.136-1.254 2.959-1.809 4.61-1.809 1.26 0 3.323.522 3.323 2.128 0 1.535-1.756 2.37-3.081 2.37-.731 0-1.398-.241-2.07-.496-.026.124-.059.255-.059.385 0 1.006 1.103 1.607 1.998 1.607 1.325 0 2.749-.901 3.905-1.483 1.286-.652 2.56-1.227 4.022-1.247l-.529 1.574c-1.365-.007-2.495.34-3.78.81-1.046.378-2.077.79-3.122 1.174a7.065 7.065 0 0 1-2.415.418c-1.887 0-2.997-.705-3.84-2.323-1.097.79-2.93 2.323-4.374 2.323-.881 0-1.515-.64-1.809-1.417-.973.738-2.089 1.391-3.35 1.391-1.247 0-2.245-.842-2.532-2.017a7.16 7.16 0 0 1-1.274.992c-.914.562-1.893 1.038-2.984 1.038-.973 0-1.86-.653-1.86-1.672 0-.267.078-.502.175-.75l.673-1.665a.878.878 0 0 0 .06-.32c0-.268-.25-.412-.504-.412-.646 0-1.318.392-1.678.928l-1.553 3.616h-4.309v.003Z" fill="#C5C5D0"/><path fill-rule="evenodd" clip-rule="evenodd" d="M29.266 10.616h-4.264l.888-2.22h4.257l-.881 2.22Z" fill="#C5C5D0"/><path fill-rule="evenodd" clip-rule="evenodd" d="m10.24 17.336-3.421-1.3a4.961 4.961 0 0 0-1.744-.333c-.816 0-2.174.367-2.174 1.385 0 1.534 2.083 1.802 3.226 1.802 1.573 0 2.925-.556 4.113-1.554Zm35.636-1.58c0 .64.438 1.181 1.11 1.181 1.045 0 1.757-.985 1.757-1.964 0-.575-.36-1.176-.999-1.176-.986 0-1.868.993-1.868 1.959Zm12.536-.862c.308.111.62.202.947.202.711 0 1.795-.45 1.795-1.292 0-.366-.358-.588-.692-.588-.868 0-1.508.79-1.92 1.47l-.13.208Z" fill="#fff"/></svg>