<svg width="98" height="20" fill="none" xmlns="http://www.w3.org/2000/svg"><g clip-path="url(#a)" fill="#C5C5D0"><path d="m16.092 11.417-.912-.526-4.341 2.522a1.798 1.798 0 0 1-1.803 0L4.694 10.89l-.912.526a.54.54 0 0 0 0 .933l5.248 3.048c.56.323 1.244.323 1.803 0l5.249-3.048a.54.54 0 0 0 0-.933M9.041 8.369a1.798 1.798 0 0 1 1.803 0l2.625 1.528 1.726-.998L10.84 6.37a1.8 1.8 0 0 0-1.804.008L4.694 8.9l1.722.995 2.615-1.52.01-.006Z"/><path d="M9.04 8.37 6.415 9.895l2.627 1.527c.56.323 1.243.323 1.803 0l2.627-1.527-2.627-1.527a1.798 1.798 0 0 0-1.803 0Z"/><path d="m3.793 8.374.912.526 4.342-2.522a1.798 1.798 0 0 1 1.803 0L15.19 8.9l.912-.526a.54.54 0 0 0 0-.933l-5.248-3.048a1.798 1.798 0 0 0-1.803 0L3.803 7.44a.54.54 0 0 0 0 .933M33.16 10.933l-3.58-6.769h-2.224V15.63h2.508V9.541l2.389 4.419h1.787l2.389-4.476v6.144h2.507V4.164h-2.191l-3.58 6.77h-.006Zm41.723 1.423c0 .928-.746 1.678-1.668 1.678a.998.998 0 0 1-.995-1c0-.553.446-1.001.995-1.001h1.668v.323Zm2.327-1.553a3.375 3.375 0 0 0-3.368-3.236h-.109a7.296 7.296 0 0 0-3.259.766l.389 1.563c.725-.344 1.534-.64 2.534-.64 1 0 1.486.614 1.486 1.313v.28H72.36c-1.357 0-2.497 1.121-2.471 2.487a2.432 2.432 0 0 0 2.425 2.391c.839 0 1.647-.328 2.253-.911l.316-.308v1.09h2.327v-4.795Zm-31.414-.016h-2.953v-.161A1.48 1.48 0 0 1 44.32 9.14c.813 0 1.476.667 1.476 1.485v.161Zm-1.528-3.366c-2.083 0-3.767 1.699-3.767 3.788v.73c0 2.095 1.69 3.788 3.87 3.788 1.208 0 2.482-.255 3.529-.969l-.653-1.626-.16.1a4.569 4.569 0 0 1-2.394.677 1.84 1.84 0 0 1-1.834-1.845h5.17v-.85c0-2.094-1.689-3.788-3.766-3.788m15.17.1c-1.114 0-2.103.557-2.73 1.417-.462-.844-1.332-1.418-2.332-1.418-.943 0-1.798.402-2.42 1.048v-.917h-2.455v7.983h2.497V11c0-.88.684-1.6 1.528-1.6.664 0 1.202.563 1.202 1.256v4.982h2.332v-4.664c.016-.87.694-1.569 1.528-1.569.664 0 1.202.563 1.202 1.256v4.982h2.332v-5.31c0-1.548-1.202-2.804-2.684-2.804m24.6 4.982a1.592 1.592 0 0 1-1.57 1.35 1.253 1.253 0 0 1-1.248-1.256V7.624h-2.42v5.31a2.796 2.796 0 0 0 2.788 2.804 3.51 3.51 0 0 0 2.45-.99v.86h2.456V7.624h-2.456v4.888Zm4.203 3.1h2.44V4.133h-2.44v11.481Zm9.512-6.143v-1.84h-1.995V5.29h-2.44v2.34H92.07v1.84h1.243v2.929a3.336 3.336 0 0 0 3.326 3.345c.378 0 .746-.026 1.11-.078v-1.886a3.054 3.054 0 0 1-.581.052 1.417 1.417 0 0 1-1.415-1.423V9.469h1.995ZM68.06 3.992c-1.84 0-3.327 1.501-3.327 3.346v.292H63.49v1.839h1.243v6.144h2.44V9.469h1.996v-1.84h-1.995v-.302c0-.787.632-1.422 1.414-1.422.197 0 .394.02.58.052V4.07a7.767 7.767 0 0 0-1.108-.078Z"/></g><defs><clipPath id="a"><path fill="#fff" d="M0 0h98v20H0z"/></clipPath></defs></svg>