<svg width="101" height="20" fill="none" xmlns="http://www.w3.org/2000/svg"><g clip-path="url(#a)" fill="#C5C5D0"><path d="M4.149 13.19c0 1.15.252 2.032.582 2.566.433.7 1.078.996 1.735.996.848 0 1.624-.21 3.12-2.279 1.197-1.657 2.609-3.984 3.559-5.443l1.608-2.47c1.117-1.717 2.41-3.625 3.893-4.918C19.856.586 21.163 0 22.476 0c2.207 0 4.308 1.279 5.917 3.676 1.76 2.627 2.614 5.934 2.614 9.348 0 2.03-.4 3.52-1.08 4.699-.658 1.139-1.94 2.277-4.095 2.277v-3.248c1.846 0 2.306-1.696 2.306-3.638 0-2.766-.645-5.837-2.066-8.03-1.008-1.556-2.315-2.507-3.752-2.507-1.555 0-2.807 1.173-4.213 3.264-.748 1.11-1.515 2.465-2.377 3.993l-.949 1.68c-1.905 3.38-2.388 4.149-3.341 5.419C9.77 19.157 8.344 20 6.466 20c-2.227 0-3.635-.964-4.508-2.418-.712-1.184-1.062-2.738-1.062-4.509l3.253.117Z"/><path d="M3.46 3.906C4.953 1.607 7.105 0 9.573 0c1.43 0 2.85.423 4.334 1.635 1.623 1.324 3.353 3.505 5.511 7.1l.774 1.29c1.868 3.112 2.93 4.713 3.553 5.468.8.97 1.36 1.259 2.088 1.259 1.846 0 2.306-1.696 2.306-3.638l2.87-.09c0 2.03-.4 3.52-1.081 4.699-.658 1.139-1.94 2.277-4.095 2.277-1.34 0-2.528-.291-3.841-1.53-1.01-.95-2.19-2.64-3.098-4.158l-2.7-4.51c-1.355-2.265-2.598-3.953-3.317-4.717-.774-.822-1.769-1.815-3.356-1.815-1.285 0-2.376.902-3.29 2.28L3.46 3.907Z"/><path d="M9.52 3.27c-1.285 0-2.376.902-3.29 2.28C4.94 7.5 4.15 10.403 4.15 13.19c0 1.15.252 2.032.582 2.566l-2.773 1.826C1.246 16.398.896 14.844.896 13.073c0-3.22.884-6.576 2.565-9.167C4.952 1.607 7.104 0 9.57 0L9.52 3.27ZM37.33.633h3.762l6.397 11.573L53.887.633h3.68v19.015H54.5V5.075l-5.61 10.092h-2.88l-5.61-10.092v14.573H37.33V.633Zm29.855 7.09c-2.201 0-3.527 1.656-3.844 3.708h7.47c-.154-2.113-1.373-3.708-3.627-3.708Zm-6.887 4.876c0-4.316 2.79-7.457 6.94-7.457 4.083 0 6.52 3.101 6.52 7.688v.843H63.341c.37 2.231 1.85 3.735 4.237 3.735 1.905 0 3.096-.582 4.224-1.644l1.63 1.997c-1.535 1.412-3.49 2.227-5.963 2.227-4.493 0-7.171-3.277-7.171-7.389ZM77.48 7.995h-2.825V5.482h2.825V1.326h2.961v4.156h4.292v2.513h-4.292v6.37c0 2.175.695 2.947 2.404 2.947.78 0 1.228-.067 1.888-.177v2.486a8.817 8.817 0 0 1-2.458.34c-3.197 0-4.795-1.747-4.795-5.243V7.995Zm19.722 2.444c-.594-1.501-1.921-2.607-3.87-2.607-2.535 0-4.157 1.798-4.157 4.727 0 2.855 1.493 4.74 4.035 4.74 1.998 0 3.424-1.162 3.992-2.609v-4.25Zm2.962 9.21h-2.907v-1.984c-.813 1.168-2.291 2.323-4.686 2.323-3.851 0-6.425-3.224-6.425-7.43 0-4.245 2.635-7.416 6.588-7.416 1.954 0 3.487.78 4.523 2.16v-1.82h2.907v14.166Z"/></g><defs><clipPath id="a"><path fill="#fff" transform="translate(.896)" d="M0 0h99.267v20H0z"/></clipPath></defs></svg>