<svg width="94" height="20" fill="none" xmlns="http://www.w3.org/2000/svg"><g clip-path="url(#a)" fill="#C5C5D0"><path d="M39 4v12h-2.084V6.584h-.027L33.166 16h-1.389l-3.805-9.416h-.028V16h-1.917V4h3l3.445 8.89h.055L36.167 4H39Zm1.722.917c0-.333.11-.611.36-.833.25-.223.529-.334.862-.334.361 0 .667.111.889.334.222.222.361.5.361.833 0 .333-.111.611-.361.833-.25.222-.528.334-.889.334s-.639-.112-.861-.334c-.222-.25-.361-.528-.361-.833Zm2.25 2.472V16h-2.028V7.39h2.028Zm6.139 7.139c.305 0 .639-.056 1-.222a4.39 4.39 0 0 0 1-.556v1.89a3.546 3.546 0 0 1-1.111.416 6.838 6.838 0 0 1-1.361.139c-1.278 0-2.306-.39-3.084-1.195-.805-.805-1.194-1.833-1.194-3.055 0-1.39.416-2.528 1.222-3.417.806-.889 1.944-1.333 3.444-1.333.39 0 .778.055 1.14.139.388.083.694.222.916.333V9.61a4.037 4.037 0 0 0-.944-.527c-.334-.112-.667-.195-1-.195-.806 0-1.445.25-1.945.778s-.722 1.222-.722 2.111c0 .861.25 1.556.722 2.028s1.111.722 1.917.722Zm7.75-7.278c.166 0 .305 0 .444.028s.25.056.334.083v2.056a1.248 1.248 0 0 0-.473-.222c-.222-.056-.444-.111-.75-.111-.5 0-.916.222-1.25.638-.333.417-.527 1.056-.527 1.945V16H52.61V7.39h2.028v1.36h.027c.195-.472.473-.833.834-1.11.389-.25.833-.39 1.36-.39Zm.889 4.584c0-1.417.416-2.556 1.194-3.39.806-.833 1.917-1.25 3.333-1.25 1.334 0 2.39.39 3.14 1.195.75.806 1.138 1.889 1.138 3.25 0 1.389-.417 2.5-1.194 3.333-.806.834-1.89 1.25-3.278 1.25-1.333 0-2.389-.388-3.167-1.166-.777-.806-1.166-1.89-1.166-3.222Zm2.11-.084c0 .89.195 1.584.612 2.056.416.472 1 .722 1.75.722.722 0 1.305-.222 1.694-.722.39-.472.584-1.167.584-2.111 0-.917-.195-1.611-.584-2.111-.389-.473-.972-.723-1.666-.723-.75 0-1.306.25-1.723.75-.472.528-.666 1.223-.666 2.14Zm9.723-2.083c0 .278.083.528.278.694.194.167.583.361 1.222.611.805.334 1.389.695 1.694 1.084.334.416.5.889.5 1.472 0 .806-.305 1.444-.944 1.944-.611.5-1.472.723-2.528.723-.361 0-.75-.056-1.194-.14a4.808 4.808 0 0 1-1.111-.333v-2c.36.25.777.473 1.194.612.417.138.806.222 1.167.222.444 0 .805-.056 1-.195.222-.139.333-.333.333-.639 0-.277-.111-.5-.333-.722-.223-.194-.667-.416-1.278-.666-.75-.306-1.278-.667-1.583-1.056-.306-.389-.473-.889-.473-1.5 0-.778.306-1.417.917-1.917s1.417-.75 2.389-.75c.305 0 .639.028 1 .111.361.084.694.167.944.25v1.973a5.98 5.98 0 0 0-.944-.473 2.94 2.94 0 0 0-1.056-.194c-.389 0-.694.083-.889.222-.194.195-.305.39-.305.667Zm4.555 2.167c0-1.417.417-2.556 1.195-3.39.805-.833 1.917-1.25 3.333-1.25 1.334 0 2.39.39 3.14 1.195.75.806 1.138 1.889 1.138 3.25 0 1.389-.417 2.5-1.194 3.333-.806.834-1.89 1.25-3.278 1.25-1.334 0-2.39-.388-3.167-1.166-.75-.806-1.167-1.89-1.167-3.222Zm2.112-.084c0 .89.194 1.584.61 2.056.417.472 1 .722 1.75.722.723 0 1.306-.222 1.695-.722.389-.472.583-1.167.583-2.111 0-.917-.194-1.611-.583-2.111-.389-.473-.972-.723-1.667-.723-.75 0-1.305.25-1.722.75-.444.528-.666 1.223-.666 2.14Zm13.444-2.694h-3.028V16h-2.055V9.056h-1.445V7.389h1.445V6.195c0-.89.305-1.64.889-2.223.583-.583 1.333-.86 2.25-.86.25 0 .472.027.666.027.195 0 .361.056.5.111V5a3.393 3.393 0 0 0-.36-.139 1.847 1.847 0 0 0-.584-.083c-.417 0-.75.139-.972.389-.223.25-.334.667-.334 1.167V7.36h3.028V5.417l2.028-.611V7.36h2.055v1.667h-2.055v4.028c0 .528.11.889.278 1.11.194.223.5.334.916.334.111 0 .25-.028.417-.083a1.45 1.45 0 0 0 .417-.195v1.667c-.14.083-.334.139-.64.195a4.82 4.82 0 0 1-.888.083c-.861 0-1.5-.222-1.917-.667-.417-.444-.639-1.139-.639-2.055l.028-4.39ZM9.5 0H0v9.5h9.5V0ZM20 0h-9.5v9.5H20V0ZM9.5 10.5H0V20h9.5v-9.5ZM20 10.5h-9.5V20H20v-9.5Z"/></g><defs><clipPath id="a"><path fill="#fff" d="M0 0h93.778v20H0z"/></clipPath></defs></svg>