<svg width="75" height="20" fill="none" xmlns="http://www.w3.org/2000/svg"><g clip-path="url(#a)"><path d="M11.068 18.71c-1.113.196-2.246.255-3.418.411L4.076 8.652V19.57c-1.113.117-2.129.274-3.183.43V0H3.86l4.063 11.348V0h3.144v18.71Zm6.153-11.386c1.21 0 3.066-.058 4.18-.058v3.124c-1.387 0-3.008 0-4.18.06v4.648c1.836-.118 3.672-.274 5.527-.333v3.008l-8.652.684V0h8.652v3.125h-5.527v4.2Zm17.148-4.199h-3.242V17.5c-1.055 0-2.11 0-3.125.039V3.125H24.76V0h9.61v3.125Zm5.078 3.984h4.278v3.125h-4.278v7.09h-3.066V0h8.73v3.125h-5.664v3.984Zm10.742 7.48c1.778.04 3.575.177 5.313.274v3.086c-2.793-.176-5.586-.351-8.438-.41V0h3.125v14.59Zm7.95 3.575c.996.059 2.05.117 3.066.234V0h-3.066v18.164ZM74.897 0l-3.965 9.512L74.897 20c-1.172-.156-2.344-.371-3.516-.567l-2.246-5.78-2.285 5.312c-1.133-.195-2.227-.254-3.36-.41l4.024-9.16L63.88 0h3.36l2.05 5.254L71.479 0h3.418Z" fill="#C5C5D0"/></g><defs><clipPath id="a"><path fill="#fff" transform="translate(.893)" d="M0 0h74.004v20H0z"/></clipPath></defs></svg>