<svg width="49" height="20" fill="none" xmlns="http://www.w3.org/2000/svg"><mask id="a" style="mask-type:luminance" maskUnits="userSpaceOnUse" x="0" y="0" width="49" height="20"><path d="M48.995 0H0v19.916h48.995V0Z" fill="#fff"/></mask><g mask="url(#a)" fill="#C5C5D0"><path d="M11.238 19.813v-5.018l.105-.105h1.045l.105.105v5.018l-.105.104h-1.045l-.105-.105ZM11.238 5.122V.105L11.343 0h1.045l.105.105v5.017l-.105.104h-1.045l-.105-.104ZM6.694 16.195h-.147l-.74-.739v-.148l1.726-1.725h.783l.105.105v.782l-1.727 1.725ZM6.693 3.722h-.147l-.74.74v.147l1.726 1.725h.783l.105-.104v-.783L6.693 3.722ZM.105 9.331h7.108l.104.105v1.045l-.104.105H.105L0 10.48V9.436l.105-.105ZM42.201 9.331h6.69l.105.105v1.045l-.105.105h-7.108l-.104-.105.417-1.045.105-.105ZM20.292 10.404l-.104.105h-3.243l-.104.104c0 .21.209.837 1.046.837.313 0 .627-.105.732-.314l.104-.104h1.255l.105.104c-.105.628-.627 1.57-2.196 1.57-1.779 0-2.616-1.256-2.616-2.72 0-1.464.837-2.72 2.51-2.72 1.675 0 2.511 1.256 2.511 2.72v.418Zm-1.569-1.046a.886.886 0 0 0-.941-.837.886.886 0 0 0-.941.837l.104.105h1.674l.104-.105ZM23.22 11.032c0 .21.106.314.315.314h.941l.105.105v1.046l-.105.104h-.941c-.942 0-1.778-.418-1.778-1.569v-2.3l-.105-.106h-.732l-.105-.104V7.476l.105-.105h.732l.105-.104v-.942l.104-.104h1.256l.104.104v.942l.105.104h1.15l.105.105v1.046l-.105.104h-1.15l-.105.105v2.301ZM27.091 12.6h-1.255l-.105-.104V5.384l.105-.105h1.255l.105.105v7.112l-.105.105ZM29.915 6.535h-1.256l-.104-.105V5.384l.104-.105h1.256l.104.105V6.43l-.104.105Zm0 6.066h-1.256l-.104-.105v-5.02l.104-.105h1.256l.104.105v5.02l-.104.105ZM34.831 5.384V6.43l-.105.105h-.94c-.21 0-.315.104-.315.313v.419l.105.105h1.046l.104.104v1.046l-.104.105h-1.046l-.105.104v3.766l-.104.104H32.11l-.104-.104V8.73l-.105-.104h-.732l-.105-.105V7.476l.105-.104h.732l.105-.105v-.419c0-1.15.836-1.569 1.778-1.569h.941l.105.105ZM38.7 12.706c-.418 1.046-.836 1.673-2.3 1.673h-.524l-.104-.104v-1.046l.104-.105h.523c.523 0 .628-.105.732-.419v-.104l-1.673-4.08V7.477l.105-.105h.94l.106.105 1.255 3.556h.104l1.256-3.556.104-.105h.942l.104.105v1.046l-1.673 4.183ZM12.962 12.601l-.105-.104v-3.03c0-.524-.205-.93-.836-.942-.324-.009-.696-.001-1.092.016l-.06.06.001 3.896-.104.104H9.51l-.105-.104V7.42l.105-.104 2.824-.026c1.414 0 1.987.972 1.987 2.07v3.137l-.104.104h-1.256Z"/></g></svg>