<svg width="64" height="20" fill="none" xmlns="http://www.w3.org/2000/svg"><g clip-path="url(#a)" fill="#C5C5D0"><path d="M55.714 20a7.652 7.652 0 1 1 0-15.305 7.652 7.652 0 0 1 0 15.305Zm0-3.163a4.49 4.49 0 1 0 0-8.98 4.49 4.49 0 0 0 0 8.98ZM39.694 20a7.652 7.652 0 1 1 0-15.304 7.652 7.652 0 0 1 0 15.304Zm0-3.163a4.49 4.49 0 1 0 0-8.98 4.49 4.49 0 0 0 0 8.98Zm-8.367-4.592c0 4.275-3.429 7.755-7.653 7.755-4.225 0-7.654-3.47-7.654-7.745s3.113-7.561 7.654-7.561c1.673 0 3.224.357 4.49 1.286V1.54c0-.846.744-1.54 1.581-1.54s1.582.694 1.582 1.54v10.705Zm-7.653 4.592a4.49 4.49 0 1 0 0-8.98 4.49 4.49 0 0 0 0 8.98ZM7.653 20a7.653 7.653 0 1 1 0-15.306 7.653 7.653 0 0 1 0 15.306Zm0-3.163a4.49 4.49 0 1 0 0-8.979 4.49 4.49 0 0 0 0 8.98Z"/></g><defs><clipPath id="a"><path fill="#fff" d="M0 0h63.367v20H0z"/></clipPath></defs></svg>