<svg width="151" height="225" fill="none" xmlns="http://www.w3.org/2000/svg"><mask id="path-1-inside-1_18088_64938" fill="#fff"><path fill-rule="evenodd" clip-rule="evenodd" d="M65.595 196.591c.92 1.148 3.29 8.088 4.359 5.855 1.067-2.232 4.76-17.611 2.051-19.246-2.711-1.634-17.224 7.199-18.315 9.438-1.087 2.238 9.848 3.472 11.781 3.994"/></mask><path fill-rule="evenodd" clip-rule="evenodd" d="M65.595 196.591c.92 1.148 3.29 8.088 4.359 5.855 1.067-2.232 4.76-17.611 2.051-19.246-2.711-1.634-17.224 7.199-18.315 9.438-1.087 2.238 9.848 3.472 11.781 3.994" fill="#D1ECFF"/><path d="m69.954 202.446.902.432v-.001l-.902-.431Zm2.051-19.246.517-.856-.517.856Zm-18.315 9.438-.899-.438v.001l.9.437Zm11.124 4.578c.05.061.15.22.303.512.144.276.31.617.493 1.004.36.761.79 1.696 1.223 2.52.413.786.91 1.632 1.442 2.12.252.231.727.582 1.35.503.673-.087 1.043-.606 1.23-.997l-1.803-.864c-.08.167-.018-.08.318-.123.285-.037.392.13.256.006-.24-.221-.595-.763-1.023-1.576-.408-.775-.81-1.651-1.186-2.445a30.57 30.57 0 0 0-.53-1.077c-.156-.298-.331-.608-.511-.833l-1.562 1.25Zm6.042 5.661c.316-.66.768-2.133 1.219-3.903.46-1.805.943-4.016 1.307-6.211.363-2.186.614-4.398.596-6.19-.01-.893-.086-1.731-.273-2.427-.18-.665-.51-1.396-1.183-1.802l-1.033 1.713c-.004-.002.034.019.093.118.061.101.129.259.191.49.125.466.196 1.115.205 1.929.017 1.621-.214 3.7-.569 5.841a75.016 75.016 0 0 1-1.272 6.045c-.457 1.793-.867 3.079-1.085 3.535l1.804.862Zm1.666-20.533c-.645-.389-1.462-.387-2.172-.29-.756.103-1.624.347-2.536.676-1.83.658-3.984 1.707-6.06 2.863-2.08 1.158-4.115 2.441-5.707 3.584a24.922 24.922 0 0 0-2.034 1.6c-.506.451-.99.948-1.222 1.423l1.798.876c.042-.085.249-.354.756-.808.471-.42 1.107-.92 1.869-1.467 1.52-1.092 3.49-2.335 5.512-3.461 2.028-1.128 4.078-2.121 5.766-2.729.847-.304 1.567-.499 2.127-.575.28-.038.494-.043.65-.028a.987.987 0 0 1 .169.029c.037.011.051.02.051.02l1.033-1.713Zm-19.731 9.857a1.673 1.673 0 0 0-.157 1c.054.344.21.629.39.853.338.426.846.739 1.339.978 1.011.492 2.431.892 3.86 1.221 1.448.334 2.985.611 4.266.835 1.32.231 2.296.394 2.722.509l.52-1.931c-.54-.145-1.658-.332-2.897-.548-1.28-.224-2.77-.493-4.162-.814-1.41-.324-2.641-.685-3.435-1.07-.409-.199-.592-.354-.65-.427-.02-.025.01.004.023.083a.335.335 0 0 1-.02.185l-1.8-.874Z" fill="#46464F" mask="url(#path-1-inside-1_18088_64938)"/><path d="M65.223 196.351c.79 1.131 3.79 8.356 4.91 6.303 1.124-2.056 4.43-17.048 1.813-18.63-2.614-1.582-16.373 7.105-17.507 9.14-1.135 2.038 8.927 2.607 10.705 3.081m-.31-.03c.725 1.193 3.752 8.943 5.055 6.822 1.303-2.121 5.326-17.947 2.768-19.546-2.559-1.599-16.792 7.785-18.118 9.95-1.324 2.165 8.341 2.66 10.168 3.034" stroke="#46464F" stroke-linecap="round"/><path d="m6.15 201.341.08.025.082-.002c5.41-.083 10.832.055 16.66.203 2.05.052 4.151.105 6.32.151 8.317.174 17.603.231 28.792-.353 1.823.13 2.846.618 3.465 1.41.637.816.929 2.054 1.03 3.894-.896 4.749-.638 6.763-.037 11.433l.043.337c.221 2.147-.25 3.41-1.022 4.156-.786.76-1.991 1.091-3.47 1.127-9.02-.384-18.229-.235-27.044-.065l-1.532.03c-8.258.161-16.133.315-23.166.037-2.05-.311-3.278-.736-3.953-1.465-.648-.7-.89-1.805-.593-3.804l.007-.047-.002-.046c-.019-.477-.061-.969-.108-1.523-.168-1.951-.4-4.66.106-10.09l.005-.047-.005-.047c-.216-2.261.35-3.769 1.184-4.609.827-.832 1.988-1.082 3.159-.705Z" fill="#D1ECFF" stroke="#46464F"/><path d="M6.304 200.864c13.335-.695 26.153-.062 51.785 0m-51.785 0c16.446-.026 32.6-.25 51.785 0m-51.785 0c-3.557-.277-5.427 2.333-4.993 5.838m4.993-5.838c-3.008.056-4.807 2.48-4.993 5.838m56.778-5.838c3.003.362 5.389 1.85 4.993 5.838m-4.993-5.838c3.056-.203 4.565 1.293 4.993 5.838m0 0c.151 2.286.161 4.678 0 11.679m0-11.679c-.123 3.493.111 7.122 0 11.679m0 0c-.04 3.322-2.151 5.794-4.993 5.841m4.993-5.841c-.015 4.386-1.086 5.929-4.993 5.841m0 0c-12.7-.036-25.901-.589-51.785 0m51.785 0c-10.86.112-21.93.106-51.785 0m0 0c-2.96.026-5.432-1.865-4.993-5.841m4.993 5.841c-2.759-.139-5.182-1.971-4.993-5.841m0 0c-.28-3.016.138-5.426 0-11.679m0 11.679c-.25-4.05-.217-8.18 0-11.679" stroke="#46464F" stroke-linecap="round"/><path d="M11.569 213.507a.828.828 0 0 0-.171.225c-.495.54-1.125 1.143-1.917 1.134-.369.045-.81-.117-1.044-.396-.225-.351-.441-.675-.342-1.08.027-.711.693-1.224 1.197-1.647.297-.243.657-.306 1.026-.306.288 0 .585.045.855.072.099.072.351.117.279.288.009.027.09.09.117.117.126.054.27.117.342.225.243.495.522 1.035.792 1.476.072.09.387.315.459.405.225.162.315.315.513.342.027.009.09.081.117.108.018.063-.045.171-.063.234-.081.117-.261.18-.396.216-.27.063-.396-.063-.648-.198l-.036-.018c-.378-.324-.729-.819-1.08-1.197Zm-2.619.279c.117.18.297.243.486.243.144 0 .288-.036.423-.072.405-.153.549-.288.801-.567.171-.234.36-.549.396-.855.009-.108.072-.351.063-.468-.351.081-.675.045-1.035.126-.513.072-.882.594-1.188 1.026-.135.171-.045.387.054.567Zm5.634-.576c.009-.954.09-1.737.126-2.727-.018-1.017.099-2.376.054-3.411.054-.171.153-.234.27-.234.153 0 .324.126.414.288 0 .045 0 .117.009.216l.036.648c.009.099.009.171.009.216-.036 1.584-.18 3.294-.225 4.779.063.702.036 1.197.342 1.701.009.09.009.135-.063.225a.58.58 0 0 1-.297.072.664.664 0 0 1-.324-.072c-.432-.468-.333-1.116-.351-1.701Zm2.364 0c.01-.954.09-1.737.126-2.727-.018-1.017.1-2.376.054-3.411.054-.171.153-.234.27-.234.153 0 .324.126.414.288 0 .045 0 .117.01.216l.035.648c.01.099.01.171.01.216-.037 1.584-.18 3.294-.226 4.779.063.702.036 1.197.342 1.701.01.09.01.135-.063.225a.58.58 0 0 1-.297.072.664.664 0 0 1-.324-.072c-.432-.468-.333-1.116-.35-1.701Zm1.941.396v-.972c-.09-.126-.09-.441 0-.567.297-.216.72-.441 1.026-.63.288-.171.63-.225.945-.225.873 0 1.755.396 2.304 1.08.252.342.396.81.225 1.197-.387.666-.963 1.08-1.71 1.251-.414.162-.819.108-1.25.108-1.036-.216-1.17-.243-1.54-1.242Zm.855 0c.072.144.297.414.46.45.152.081.368.108.593.108.657 0 1.764-.315 1.854-1.071.09-.315-.216-.486-.396-.684-.324-.18-.756-.423-1.16-.423a.891.891 0 0 0-.379.081.965.965 0 0 0-.17.117c-.109.099-.208.216-.343.279-.117.117-.369.315-.396.459-.117.225-.036.45-.063.684Zm4.462.567c.054-.099.126-.189.17-.288.307.054.559.171.793.396.477.369 1.089.279 1.656.288.063 0 .44-.09.513-.117.126-.054.144-.189.054-.279-.288-.207-1.431-.729-1.647-.855a5.148 5.148 0 0 1-1.602-.801c-.144-.18-.36-.261-.396-.513-.01-.27.144-.468.342-.621.26-.099.558-.135.8-.288.496-.198 1.063-.351 1.594-.387.324.027.558.018.684.333.036.216 0 .36-.171.513-.594.027-1.197.009-1.701.306-.135.045-.288.234-.063.315.747.513 1.566.756 2.33 1.197.532.333 1.189 1.107.514 1.647-.46.369-1.18.378-1.755.396-.585.027-1.341-.18-1.836-.567-.288-.108-.315-.423-.28-.675Zm7.964-.666a.828.828 0 0 0-.17.225c-.495.54-1.125 1.143-1.918 1.134-.369.045-.81-.117-1.044-.396-.224-.351-.44-.675-.341-1.08.027-.711.693-1.224 1.197-1.647.297-.243.657-.306 1.026-.306.287 0 .584.045.854.072.1.072.352.117.28.288.008.027.09.09.116.117.127.054.27.117.343.225.242.495.522 1.035.791 1.476.072.09.387.315.46.405.224.162.314.315.512.342.027.009.09.081.117.108.018.063-.044.171-.063.234-.08.117-.26.18-.395.216-.27.063-.397-.063-.649-.198l-.035-.018c-.378-.324-.73-.819-1.08-1.197Zm-2.619.279c.118.18.298.243.487.243.143 0 .288-.036.422-.072.405-.153.55-.288.802-.567.17-.234.36-.549.395-.855.01-.108.073-.351.064-.468-.352.081-.675.045-1.035.126-.514.072-.883.594-1.189 1.026-.134.171-.044.387.055.567Zm8.713-1.521.044.009c.019-.18.036-.369.154-.495.09-.108.098-.135.224-.126.136-.027.217.09.343.18a.891.891 0 0 1 .116.567c0 .009-.099.252-.17.423-.055.477-.072.891.233 1.305.1.225.163.405.028.576a.135.135 0 0 1-.136.09c-.126 0-.315-.108-.44-.153-.243-.162-.36-.414-.414-.711-.495.531-.846.702-1.576.864-.639.072-.998-.279-1.458-.684-.44-.603-.342-.963-.342-1.593a.42.42 0 0 0 .055-.171v-.054c-.036-.18.072-.477.117-.63a1.33 1.33 0 0 1 .224-.225c.136-.036.379.045.514.054.242.063.17.378.17.567 0 .027-.053.108-.053.117-.136.288-.18.504-.18.81-.045.333.224.702.468.9.197.045.36.099.53.099a.766.766 0 0 0 .378-.099c.585-.234.846-.819 1.161-1.359 0-.09.01-.18.01-.261Zm1.677.126c.099-.585.44-.936.855-1.314.216-.108.522-.162.837-.162.378 0 .765.072 1.035.216.288.18.837.549 1.089.801-.01.108.054.369-.063.396a1.195 1.195 0 0 1-.585-.09c-.342-.189-.594-.396-.954-.423-.324.009-.657-.054-.963.117-.01 0-.045.045-.054.054-.162.216-.315.405-.405.666.027.486-.063.963.063 1.44.17.306-.018.585-.171.846a.249.249 0 0 1-.198.108.442.442 0 0 1-.261-.108c-.162-.099-.288-.342-.342-.504 0-.576.018-1.521.117-2.043Zm7.305-.126.045.009c.018-.18.036-.369.153-.495.09-.108.099-.135.225-.126.135-.027.216.09.342.18a.891.891 0 0 1 .117.567c0 .009-.1.252-.171.423-.054.477-.072.891.234 1.305.099.225.162.405.027.576a.135.135 0 0 1-.135.09c-.126 0-.315-.108-.441-.153-.243-.162-.36-.414-.414-.711-.495.531-.846.702-1.575.864-.64.072-1-.279-1.458-.684-.441-.603-.342-.963-.342-1.593a.42.42 0 0 0 .054-.171v-.054c-.036-.18.072-.477.117-.63a1.33 1.33 0 0 1 .225-.225c.135-.036.378.045.513.054.243.063.17.378.17.567 0 .027-.053.108-.053.117-.135.288-.18.504-.18.81-.045.333.225.702.468.9.198.045.36.099.53.099a.766.766 0 0 0 .379-.099c.585-.234.846-.819 1.16-1.359 0-.09.01-.18.01-.261Zm1.947 1.908c.054-.099.126-.189.171-.288.306.054.558.171.792.396.477.369 1.09.279 1.656.288.063 0 .441-.09.513-.117.126-.054.144-.189.054-.279-.288-.207-1.43-.729-1.647-.855a5.148 5.148 0 0 1-1.602-.801c-.144-.18-.36-.261-.396-.513-.009-.27.144-.468.342-.621.261-.099.558-.135.801-.288.495-.198 1.062-.351 1.593-.387.324.027.558.018.684.333.036.216 0 .36-.17.513-.595.027-1.198.009-1.702.306-.135.045-.288.234-.063.315.747.513 1.566.756 2.331 1.197.531.333 1.188 1.107.513 1.647-.459.369-1.179.378-1.755.396-.585.027-1.34-.18-1.836-.567-.288-.108-.315-.423-.279-.675Z" fill="#46464F"/><path fill-rule="evenodd" clip-rule="evenodd" d="M84.754 12.944c-.882 1.016-3.817 9.299-5.144 7.349-1.326-1.953-5.287-17.496-2.814-19.054 2.472-1.555 16.44 7.637 17.649 9.714 1.208 2.077-8.819 2.35-10.399 2.74" fill="#FFF0C9"/><path d="M84.05 13.863c-.843 1.108-3.83 8.763-4.979 6.648-1.146-2.114-4.604-17.784-1.91-19.34C79.852-.384 94.06 9.106 95.226 11.18c1.167 2.074-9.258 2.085-11.064 2.43m.383.083c-.722.977-3.579 8.309-4.858 6.273-1.276-2.032-5.423-16.918-2.809-18.48 2.612-1.558 17.18 7.084 18.487 9.126 1.305 2.038-8.896 2.58-10.652 3.119" stroke="#46464F" stroke-linecap="round"/><path d="M91.29 16.346c16.865.595 32.181-.507 53.478 0 4.308-.41 4.29 1.007 5.156 5.838-1.03 3.37.029 5.446 0 11.679-.359 4.374-1.571 5.47-5.156 5.84-17.335.277-36.153.569-53.477 0-3.877-.038-4.863-2.83-5.157-5.84.757-4.286-.476-8.195 0-11.68.151-4.506.908-6.818 5.157-5.837Z" fill="#FFF0C9"/><path d="M91.29 16.346c19.619-.177 40.011-.6 53.477 0m-53.477 0c17.892.31 35.536.48 53.477 0m-53.477 0c-3.824.088-5.45 1.608-5.156 5.838m5.156-5.838c-3.294-.25-5.469 1.632-5.156 5.838m58.633-5.838c3.871.339 4.686 2.103 5.157 5.838m-5.157-5.838c3.382-.442 5.102 1.328 5.157 5.838m0 0c.413 3.44-.084 7.676 0 11.679m0-11.68c-.185 3.247.078 6.546 0 11.68m0 0c.252 3.502-2.011 5.552-5.157 5.84m5.157-5.84c-.156 4.315-2.063 5.593-5.157 5.84m0 0c-17.035.342-34.919.121-53.477 0m53.477 0c-20.074-.25-40.495-.344-53.477 0m0 0c-3.91-.403-4.706-1.499-5.156-5.84m5.156 5.84c-3.236.11-5.536-1.437-5.156-5.84m0 0c.278-4.524-.258-8.916 0-11.68m0 11.68c.187-2.469.08-5.429 0-11.68" stroke="#46464F" stroke-linecap="round"/><path d="M92.774 27.498c.036-.18.099-.477.117-.621.063-.963.216-1.998.225-2.961.036-.126.144-.198.225-.288a.286.286 0 0 1 .18-.072c.162 0 .324.144.396.297-.01.62-.135 1.206-.171 1.827-.072.594-.126 1.44-.072 1.854.009 0 .036-.01.08-.01l.289-.053c.045-.01.072-.01.08-.01.316-.026.604-.062.892-.062.405 0 .783.063 1.17.243.405.198.738.765.702 1.188.072.477-.306.81-.64 1.116a2.684 2.684 0 0 1-1.565.459c-.441.036-.738-.1-1.143-.333a1.68 1.68 0 0 1-.765-1.26 31.977 31.977 0 0 1 0-1.314Zm.963 1.242c-.072.306.279.585.459.756.234.054.63.08.909.054.342-.072.765-.225.855-.63.108-.342-.28-.702-.567-.792a1.295 1.295 0 0 0-.333-.045c-.405 0-.873.162-1.143.324-.135.108-.216.162-.18.333Zm3.715-.855c.099-.585.44-.936.855-1.314.216-.108.522-.162.837-.162.378 0 .765.072 1.035.216.288.18.837.549 1.089.8-.009.109.054.37-.063.397a1.195 1.195 0 0 1-.585-.09c-.342-.19-.594-.396-.954-.423-.324.009-.657-.054-.963.117-.01 0-.045.045-.054.054-.162.216-.315.405-.405.666.027.486-.063.963.063 1.44.17.306-.018.585-.171.846a.249.249 0 0 1-.198.108.442.442 0 0 1-.261-.108c-.162-.1-.288-.342-.342-.504 0-.576.018-1.521.117-2.043Zm3.804 1.215v-.972c-.09-.126-.09-.441 0-.567.297-.216.72-.441 1.026-.63.288-.171.63-.225.945-.225.873 0 1.755.396 2.304 1.08.252.342.396.81.225 1.197-.387.666-.963 1.08-1.71 1.25-.414.163-.819.109-1.251.109-1.035-.216-1.17-.243-1.539-1.242Zm.855 0c.072.144.297.414.459.45.153.08.369.108.594.108.657 0 1.764-.315 1.854-1.071.09-.315-.216-.486-.396-.684-.324-.18-.756-.423-1.161-.423a.891.891 0 0 0-.378.08.965.965 0 0 0-.171.118c-.108.099-.207.216-.342.279-.117.117-.369.315-.396.459-.117.225-.036.45-.063.684Zm4.012-.558c.09-.585.333-.918.801-1.314.396-.45 1.008-.738 1.593-.63.405-.018.711.315.972.576.18.243.189.567.171.855-.045.08-.126.216-.234.225-.153-.01-.378.08-.45-.117-.045-.117-.18-.477-.279-.531-.207-.135-.414-.1-.639-.09-.468.117-.756.53-1.026.909.009.117-.153.522.063.63.171.207.369.378.612.468.441.17.918.243 1.377.324l1.089.234c.072.063.189.252.171.333-.045.17-.288.342-.459.396-.333.036-.585-.027-.909-.117-.45-.081-.873-.144-1.314-.28-.495-.161-.999-.44-1.314-.845-.207-.28-.261-.675-.225-1.026Zm5.804.468c-.054-.144-.072-.27-.171-.333 0-.01-.009-.01-.018-.01h-.072c-.063.334-.018.784-.189 1.09-.09.207-.207.44-.405.558-.171.027-.36 0-.45-.162-.153-.243-.162-.594-.063-.855.234-.171.279-.297.288-.621.018-.135-.027-.315-.054-.46v-2.564c-.09-.378-.054-.711-.063-1.08.063-.108.126-.135.261-.126.225-.054.36.243.423.414 0 .036.09.603.117.792.027.126.054.522.054.567v1.089c.018.036.072.072.117.054 1.197-.46 1.107-.46 1.557-.603.297-.135.558-.297.855-.297.099 0 .198.018.306.063.072.08.225.369.207.459-.117.18-.36.17-.576.225-.216.08-.333.126-.405.144.018.018-.135.144-1.206.693v.054c.198.522.504 1.089 1.026 1.314.099.018.198-.027.288-.063.135-.01.27-.018.342.117.198.207.108.567.054.8-.162.145-.342.235-.567.217-.72-.315-1.224-.82-1.656-1.476Zm3.882-1.278c.369-.477.828-.891 1.422-1.08.207-.027.333-.072.522-.063.702.018 1.377.44 1.413 1.206.009.648-.621 1.26-1.251 1.305a1.162 1.162 0 0 1-.387.063c-.36 0-.72-.153-1.035-.342a1.859 1.859 0 0 0-.225-.171.077.077 0 0 0-.063 0c-.126.189-.297.459-.288.684.135.774.963 1.422 1.755 1.368.432.054.801-.108 1.242-.225.315-.126.459-.135.837-.162h.063c.081-.018.162.045.18.162v.333a1.163 1.163 0 0 1-.801.396c-.486.126-.972.306-1.467.288-.54.027-1.035-.108-1.521-.405-.486-.252-.81-.684-1.026-1.188-.207-.792.216-1.521.63-2.17Zm.702.432c.045 0 .279.018.324.027.279.144.558.117.855.117.234-.072.504-.207.621-.405.099-.36-.351-.405-.621-.513-.459.009-.837.378-1.143.684-.009.027-.036.063-.036.09Zm4.805.44.018-.737c0-.135-.036-.693-.045-.801-.018-.072-.036-.198-.099-.243-.378.027-.621.054-.909.198-.189.009-.297.135-.495.108-.144-.054-.243-.216-.369-.324-.045-.126-.045-.387.036-.495l.297-.261c.522-.01.909-.09 1.395-.18l.063-.072.018-1.413c.153-.171.297-.207.513-.162a.775.775 0 0 1 .27.468c.063.144-.009.792.108.909l.171.054c.522-.045.801-.18 1.323-.117l.414.018c.261.036.342.225.288.45-.081.08-.144.153-.234.17-.468.037-.909.163-1.386.262l-.018.009c-.18.009-.378.063-.531.117l-.045.063c0 .396-.063.729.036 1.134 0 .189-.036 1.485.162 1.962.099.09.18.162.324.17a.934.934 0 0 0 .207-.026c.405-.1.477-.072.765-.558a1.745 1.745 0 0 1 .081-.432c.063-.171.135-.28.36-.27.27-.045.288.288.351.423-.027.189-.027.387-.135.549-.297.603-.351.756-1.359 1.089-.144.036-.324.144-.486.144-.234-.01-.459-.072-.612-.27-.144-.306-.441-.621-.378-1.062-.009-.28-.063-.567-.09-.855-.009-.01-.009-.01-.009-.018Zm3.631.154v-.063c.117-.9.99-1.872 1.989-1.71.423.018.864.36.855.8 0 .199-.225.09-.342.118-.306-.108-.54-.153-.855-.117-.459.234-.918.639-.909 1.197-.099.423.261.639.621.639a.768.768 0 0 0 .351-.072c.765-.396 1.251-1.152 1.593-1.935 0-.072 0-.198.009-.36l.036-1.098c.009-.162.009-.297.009-.36.036-.387.045-.765.171-1.143.027-.288.135-.846.171-1.08a.396.396 0 0 1 .288-.342c.162.009.477.126.504.288.108.252.045.477.063.738-.018.108.054.549.054.684 0 .26-.09 1.08-.117 1.305-.045.378-.279.684-.342 1.08v.576s.009.009.009.027l.045.108c0 .018.009.027.009.027l.171.576c.126.477.333.873.513 1.305.009.153.018.279-.117.387-.027.045-.063.054-.099.054-.099 0-.207-.1-.297-.153-.378-.378-.558-.99-.738-1.485-.207.117-.54.666-.684.8-.333.343-.738.694-1.197.847-.207.027-.441.072-.666.072-.252 0-.504-.054-.702-.234a2.707 2.707 0 0 1-.225-.234c-.225-.36-.189-.837-.171-1.242Zm5.997-1.026c.369-.477.828-.891 1.422-1.08.207-.027.333-.072.522-.063.702.018 1.377.44 1.413 1.206.009.648-.621 1.26-1.251 1.305a1.162 1.162 0 0 1-.387.063c-.36 0-.72-.153-1.035-.342a1.859 1.859 0 0 0-.225-.171.077.077 0 0 0-.063 0c-.126.189-.297.459-.288.684.135.774.963 1.422 1.755 1.368.432.054.801-.108 1.242-.225.315-.126.459-.135.837-.162h.063c.081-.018.162.045.18.162v.333a1.163 1.163 0 0 1-.801.396c-.486.126-.972.306-1.467.288-.54.027-1.035-.108-1.521-.405-.486-.252-.81-.684-1.026-1.188-.207-.792.216-1.521.63-2.17Zm.702.432c.045 0 .279.018.324.027.279.144.558.117.855.117.234-.072.504-.207.621-.405.099-.36-.351-.405-.621-.513-.459.009-.837.378-1.143.684-.009.027-.036.063-.036.09Zm4.219-.432c.369-.477.828-.891 1.422-1.08.207-.027.333-.072.522-.063.702.018 1.377.44 1.413 1.206.009.648-.621 1.26-1.251 1.305a1.162 1.162 0 0 1-.387.063c-.36 0-.72-.153-1.035-.342a1.859 1.859 0 0 0-.225-.171.077.077 0 0 0-.063 0c-.126.189-.297.459-.288.684.135.774.963 1.422 1.755 1.368.432.054.801-.108 1.242-.225.315-.126.459-.135.837-.162h.063c.081-.018.162.045.18.162v.333a1.163 1.163 0 0 1-.801.396c-.486.126-.972.306-1.467.288-.54.027-1.035-.108-1.521-.405-.486-.252-.81-.684-1.026-1.188-.207-.792.216-1.521.63-2.17Zm.702.432c.045 0 .279.018.324.027.279.144.558.117.855.117.234-.072.504-.207.621-.405.099-.36-.351-.405-.621-.513-.459.009-.837.378-1.143.684-.009.027-.036.063-.036.09Zm3.617-.28c.099-.584.441-.935.855-1.313.216-.108.522-.162.837-.162.378 0 .765.072 1.035.216.288.18.837.549 1.089.8-.009.109.054.37-.063.397a1.195 1.195 0 0 1-.585-.09c-.342-.19-.594-.396-.954-.423-.324.009-.657-.054-.963.117-.009 0-.045.045-.054.054-.162.216-.315.405-.405.666.027.486-.063.963.063 1.44.171.306-.018.585-.171.846a.249.249 0 0 1-.198.108.442.442 0 0 1-.261-.108c-.162-.1-.288-.342-.342-.504 0-.576.018-1.521.117-2.043Z" fill="#46464F"/></svg>