<svg width="52" height="143" xmlns="http://www.w3.org/2000/svg"><path fill="#e4e4f2" d="M25.996 138.422c.162.27 2.264.109 1.94.54-.753.862.488 2.103 1.295 1.295 1.024-1.131 1.885-2.532 2.746-3.717 1.508-2.262 3.069-4.579 4.522-6.895 3.338-5.172 6.568-10.344 9.636-15.677.915-1.671 2.1-3.394 2.691-5.28.215-.647-.27-1.025-.755-1.079.054-.161.107-.215.161-.377.323-.431.593-.808.916-1.239.269-.377.16-.808-.217-1.078-.054-.054-.215-.108-.27-.162-.758-5.282-1.409-10.996-2.06-17.141-.436-5.821-.872-11.966-1.415-18.218-1.578-19.782-3.428-42.205-2.744-64.248a.738.738 0 0 0-.755-.756c-.108 0-.216 0-.27.054 0-.323.054-.593.054-.916 0-.216-.054-.378-.162-.485 0-.108 0-.324-.054-.486 0-.43-.378-.808-.81-.7-.43-.001-.808.376-.7.807 0 .108.055.162 0 .216.001.647-.537 1.185-1.184 1.185-1.348-.055-2.695-.11-3.88-.111l2.478-.214c.431 0 .754-.43.7-.808 0-.43-.432-.755-.809-.701L10.696 4.529c-.216 0-.323.107-.485.269a.69.69 0 0 0-.215.539v.646c-.107 0-.215.108-.269.162a.691.691 0 0 0-.215.539c.137 38.914-.756 69.258-5.476 100.299-.054.27.108.539.27.701-.215.215-.215.539-.107.862 6.801 13.372 15.109 22.972 19.316 27.61l.054.054c.054.054.054.162.108.216a.592.592 0 0 0 .108.216c.486.809 1.348 1.456 2.211 1.78ZM44.822 87.88c.11 1.833.272 3.719.328 5.498-1.789-12.883-3.852-33.366-4.25-59.83.985 18.757 2.239 37.892 3.922 54.332ZM25.195 5.456l-.161.161.161-.161Zm-12.88.475c.107 0 .107 0 .053.054l-.054-.054Zm-1.068 14.983c.055.916.056 1.779.056 2.749 0 0-.054-.054-.107 0 .053-.917.052-1.779.051-2.749Zm-.05 4.366c0 .539.109 1.185.109 1.832v.108c.113 6.468.118 13.043.123 19.727v.108c-.16 1.455-.429 3.125-.643 4.634.263-8.57.364-17.3.41-26.41Zm33.096 74.888c-.543-4.096-1.624-9.163-2.382-13.26-2.381-12.937-4.133-48.619-4.08-49.32.104-5.174.416-20.588.678-30.343v-.647c.593.054 1.078.54 1.025 1.132-1.366 46.567 2.916 79.933 5.299 94.056-.216-.539-.432-.971-.54-1.618Zm-20.375-1.74c3.395-.913 6.36.005 7.655 2.485l.486.809c.108.216.216.539.27.809.378 1.563.326 3.234-.158 4.689-.054.054-.108.108-.108.215.162.054.324.216.485.378.27.378.27.809-.106 1.186-.647.646-3.233 2.045-4.634 2.152-.377.054-.808.053-1.24.053-.592-.054-1.563-.163-2.21-.379-.161.054-.808-.378-1.24-.486-.539-.324-1.132-.701-1.51-1.187 0-.108-.377-.377-.323-.431-.594-.809-1.08-1.726-1.296-2.696 0-.108-.054-.162-.054-.27v-.107a5.546 5.546 0 0 1-.056-2.102c.376-2.102 1.507-3.772 3.284-4.795 0 0 .54-.215.755-.323ZM9.81 115.773c-1.511-2.481-3.022-5.069-4.426-7.873-.054-.054-.108-.215-.216-.215.108-.108.108-.216.162-.378 1.126-7.383 1.983-14.82 2.786-22.311-.372 6.737-.69 13.528-1.225 20.426-.106 2.048.38 4.043 1.568 5.661l2.698 3.775.107.107c.378.917-.915 1.671-1.454.808Z"/><path fill="none" stroke="#46464f" stroke-width="2" d="M26.58 137.573c.118.015.248.027.403.04l.259.023c.233.022.582.057.858.147.1.032.436.142.665.46a1.088 1.088 0 0 1 .194.792c.48-.594.92-1.233 1.372-1.889.267-.389.54-.783.825-1.177l.638-.956c1.303-1.953 2.62-3.926 3.858-5.9l.007-.011c3.331-5.161 6.55-10.314 9.604-15.624.265-.482.536-.946.802-1.401.684-1.172 1.334-2.284 1.743-3.491l-1.076-.12.39-1.172a2.28 2.28 0 0 1 .133-.316l.002-.004a.418.418 0 0 0 .026-.056v-.002l.052-.154.097-.13c.158-.21.303-.408.451-.611l.001-.001.287-.389a1.215 1.215 0 0 1-.217-.171l-.235-.235-.047-.33c-.566-3.943-1.072-8.122-1.563-12.535.016.333.03.662.04.987l-1.575.133c.443 3.183 2.049 7.285 2.426 9.52v-1c-.032-.08-.202-2.722 0-3 .268-.37.109-1.349 0-2l-1-3 1 2c-.387-2.923-.374-2.774-1-6-.244-1.258-.785-3.838-1-5v-5c-1.203-6.534-.272-13.386-1-24-.365-5.318-.806-12.35-1-16-.097-1.825.048-2.928 0-4-.024-.535.015 1.354 0-3 0-.23-.282-7.858 0-4 .378 5.16-1.262-12.242-1-22V4l-3-2-1.492 3.502 1.092.1c1.024.094 2.023.957 1.933 2.183a601.196 601.196 0 0 0-.208 25.764l1.414-.048c-.407-9.124-.581-18.414-.318-27.646L40.42 6.857l-.002-2.412c0-.17.01-.327.022-.456a2.192 2.192 0 0 1-1.88 1.076h-.02l-.02-.001c-1.353-.055-2.679-.11-3.84-.11l-.065-1.507-23.619 2.06v.476l.001 1.001h-.484c.016 4.763.017 9.398-.003 13.923l1.736-.052c.056.945.057 1.833.057 2.793v.014l.002 2.417-.062-.062.003.034.002.017c.026.307.058.67.058 1.043M26.58 137.573 4 109c-.049 8.814 6.04-65.646 5.786-57.341l.154.013m16.64 85.901-.232-.087c-.688-.258-1.355-.774-1.706-1.359l-.024-.041-.067-.2-.039-.039v-.002a1.156 1.156 0 0 0-.236-.342l-.036-.036c-3.163-3.487-8.627-9.765-14.012-18.329m16.352 20.435-16.352-20.435m2.078-90.027v-.02c-.009-.078-.023-.153-.118-.182l.005-.942-1.751-19.124a.315.315 0 0 0 .05-.09.326.326 0 0 0 .02-.07h-1m2.794 20.428h-.12v.094l.12-.002v.008m0-.1V27.211m0 0v.008h-.12c-.041 6.744-.117 13.29-.27 19.727m.39-19.735c.113 6.474.118 13.055.123 19.733v.002h-.514m0 0-.003.108v.054a702.16 702.16 0 0 1-.127 4.612l-1-.03-.841-.12-.004.093v.009m1.975-4.726h.514v.163l-.006.055c-.118 1.063-.292 2.247-.46 3.38-.065.44-.129.872-.187 1.286l-1.836-.158m0 0c-.524 14.431-1.459 27.993-3.03 41.43m3.549-46.155.455.05v-.05m-.455 0 .727-19.788v.063c-.041 6.746-.117 13.292-.271 19.725m-.456 0h.456m-.456 0h.456m.589-21.67.002.002.002.002-.311-.001h-.204l.51-.003Zm0 0h-.508l.253-.254.255.254ZM6.91 93.102l-.206-.017C6.306 96.8 6 98.45 5.657 100.084l-.151.709a95.076 95.076 0 0 0-1.146 6.239l-.002.015-.006.037v.003l-.27.269a.64.64 0 0 1-.046-.373c4.72-31.041 5.613-61.385 5.476-100.3M6.909 93.103a.07.07 0 0 0 0 .005l-.005.041 3.324 23.99M6.91 93.102l1.787.145c-.185 3.335-.253 4.679-.34 6.021-.09 1.37-.198 2.738-.467 6.218M9.511 6.684l.484-.002h.267l.249-.002m-1 .004c0-.216.054-.377.215-.54.054-.053.161-.16.269-.16l.001-.647v-.05a.678.678 0 0 1 .214-.49c.162-.16.27-.268.485-.268L37.05 2.23c.377-.054.809.27.81.701a.595.595 0 0 1 .005.104l-.573-.022-.131-.005h-.001l-.042-.002h-.022a87.356 87.356 0 0 0-.23-.008L10.511 6.68m0 0v-.005.007-.002Zm-.284 110.458c.421.055.824-.048 1.147-.232.688-.391 1.233-1.305.814-2.322l-.076-.184-.141-.142h-.001v-.001h-.001v-.001h-.001v-.001h-.001v-.001h-.001v-.001h-.001v-.001h-.001v-.001h-.001v-.001h-.001v-.001h-.001v-.001h-.001v-.001h-.001v-.001h-.001v-.001h-.001v-.001h-.001v-.001h-.001v-.001h-.001v-.001h-.001v-.001h-.001v-.001h-.001v-.001h-.001v-.001h-.001v-.001h-.001v-.001h-.001v-.001h-.001v-.001h-.001v-.001h-.001v-.001h-.001v-.001h-.001v-.001h-.001v-.001h-.001v-.001h-.001v-.001h-.001v-.001h-.001v-.001h-.001v-.001h-.001v-.001h-.001v-.001h-.001v-.001h-.001v-.001h-.001v-.001h-.001v-.001h-.001v-.001h-.001v-.001h-.001v-.001h-.001v-.001h-.001v-.001h-.001v-.001h-.001v-.001h-.001v-.001l.04.058.007.009-.058.041-.755.541.707-.708v.002h.001v.001h.001v.001h.001v.001h.001v.001h.001v.001h.001v.001h.001v.001h.001v.001h.001v.001h.001v.001h.001v.001h.001v.001h.001v.001h.001v.001h.001v.001h.001v.001h.001v.001h.001v.001h.001v.001h.001v.001h.001v.001h.001v.001h.001v.001h.001v.001h.001v.001h.001v.001h.001v.001h.001v.001h.001v.001h.001v.001h.001v.001h.001v.001h.001v.001h.001v.001h.001v.001h.001v.001h.001v.001h.001v.001h.001v.001h.001v.001h.001v.001h.001v.001h.001v.001h.001v.001h.001v.001h.001v.001h.001v.001h.001v.001h.001v.001h.001v.001h.001v.001h.001v.001h.001v.001h.001v.001h.001v.001h.001v.001h.001l-2.649-3.707-.007-.01c-1.026-1.398-1.47-3.15-1.376-5.005m0 0 .001-.012-.999-.052.997.077.002-.013Zm2.103-55.284c.183-5.334.31-10.789.395-16.402.035 4.333.038 8.714.042 13.147V47a94.65 94.65 0 0 1-.437 3.203Zm.491-24.927.012-1.612h.703l.1.006.896.052.003-.059c.052-.924.051-1.794.05-2.735v-.014l-1 .001-.738.044-.026 4.317Zm34.314 51.64c-.239-2.758-.467-5.569-.686-8.418l.078.976v.007c.218 2.5.418 4.983.608 7.436ZM23.658 97.464l-.097.026-.09.045a7.975 7.975 0 0 1-.395.173l-.2.082-.062.025-.016.006-.004.002h-.001v.001l-.066.026-.062.035c-2.051 1.18-3.346 3.113-3.77 5.486l-.002.012a6.58 6.58 0 0 0 .042 2.375c0 .159.03.292.054.374v.004l.024.108c.242 1.083.758 2.074 1.362 2.926.06.13.133.222.159.254.043.055.095.109.134.149l.151.194c.508.654 1.262 1.117 1.785 1.43l.127.077.144.036c.09.023.245.096.527.233.111.054.26.126.397.179a1.735 1.735 0 0 0 .4.102c.757.224 1.737.327 2.278.377l.045.004h.08c.397.001.875.001 1.315-.058.898-.078 2.024-.525 2.932-.971.917-.451 1.853-1.022 2.3-1.469.327-.328.554-.748.586-1.234a1.909 1.909 0 0 0-.373-1.24l-.048-.068-.058-.058-.005-.004c.42-1.528.433-3.211.054-4.788a4.535 4.535 0 0 0-.352-1.039l-.017-.035-.02-.033-.47-.784c-1.596-3.02-5.132-3.944-8.788-2.96Zm-4.642 8.753-.002-.008.002.008Zm13.857 1.716-.008.008.008-.008Z"/></svg>
