<svg width="72" height="20" fill="none" xmlns="http://www.w3.org/2000/svg"><g clip-path="url(#a)"><mask id="b" style="mask-type:luminance" maskUnits="userSpaceOnUse" x="0" y="0" width="72" height="21"><path d="M0 0h71.5v20.018H0V0Z" fill="#fff"/></mask><g mask="url(#b)" fill="#C5C5D0"><path d="M10.663 6.421c0-1.672-.83-2.55-2.819-2.55H5.3V9h2.541c1.993 0 2.822-.85 2.822-2.578Zm5.553.056c0 2.056-1.027 3.482-2.954 4.583l4.254 8.5H11.56l-3.4-7.048H5.3v7.046H0V.361h8.673c5.193 0 7.543 2.496 7.543 6.116ZM55.643.406l-2.07 4.059h6.768V19.6h5.332V4.465H71.5V.406H55.643ZM51 .385h2.9L42.49 9.734V6.48L51 .385Z"/><path d="M50.97.385H54l-4.4 8.573-4.8 2.177L50.97.385Z"/><path d="m44.79 11.135 4.8-2.177 5.23 10.585h-5.981l-4.049-8.408ZM42.588.4h-5.305v19.167h5.305V.4Z"/><path fill-rule="evenodd" clip-rule="evenodd" d="M26.605 0c-2.736 0-4.945.9-6.6 2.688-1.653 1.788-2.485 4.195-2.485 7.293v.055c0 3.1.828 5.54 2.486 7.322 1.659 1.782 3.866 2.66 6.6 2.66 2.732 0 4.943-.878 6.573-2.66 1.658-1.783 2.486-4.223 2.486-7.322v-.055c0-3.1-.828-5.509-2.486-7.293C31.55.905 29.34 0 26.605 0Zm-.026 3.9c-1.116 0-2.018.565-2.694 1.68-.676 1.115-1.015 2.621-1.015 4.558v.034c0 1.938.339 3.464 1.015 4.577.677 1.114 1.578 1.662 2.694 1.662 1.116 0 2.018-.548 2.683-1.662.665-1.114 1.015-2.64 1.015-4.577v-.034c0-1.937-.338-3.443-1.015-4.558-.677-1.115-1.561-1.676-2.683-1.676V3.9Z"/></g></g><defs><clipPath id="a"><path fill="#fff" d="M0 0h71.5v20H0z"/></clipPath></defs></svg>