<svg width="47" height="20" fill="none" xmlns="http://www.w3.org/2000/svg"><path fill-rule="evenodd" clip-rule="evenodd" d="M46.447 10.276c0-3.288-1.592-5.881-4.636-5.881-3.056 0-4.905 2.593-4.905 5.855 0 3.865 2.183 5.817 5.316 5.817 1.529 0 2.684-.347 3.557-.835v-2.568c-.873.437-1.874.707-3.146.707-1.245 0-2.35-.437-2.49-1.952h6.279c0-.167.025-.835.025-1.143Zm-6.343-1.22c0-1.451.886-2.055 1.695-2.055.783 0 1.618.604 1.618 2.055h-3.313ZM31.95 4.395c-1.258 0-2.067.59-2.517 1.001l-.167-.796h-2.825v14.973l3.21-.68.014-3.635c.462.334 1.142.81 2.272.81 2.299 0 4.392-1.85 4.392-5.92-.013-3.725-2.132-5.753-4.379-5.753Zm-.77 8.847c-.758 0-1.207-.27-1.515-.604l-.013-4.764c.333-.372.796-.629 1.528-.629 1.168 0 1.977 1.31 1.977 2.992 0 1.72-.796 3.005-1.977 3.005ZM22.023 3.637l3.224-.693V.337l-3.224.68v2.62Z" fill="#C5C5D0"/><path d="M25.247 4.613h-3.224V15.85h3.224V4.613Z" fill="#C5C5D0"/><path fill-rule="evenodd" clip-rule="evenodd" d="m18.57 5.563-.206-.95h-2.773V15.85h3.21V8.234c.758-.988 2.042-.809 2.44-.667V4.613c-.411-.154-1.913-.436-2.671.95ZM12.149 1.826l-3.133.668-.013 10.286c0 1.9 1.425 3.3 3.326 3.3 1.053 0 1.823-.193 2.247-.424v-2.607c-.411.167-2.44.758-2.44-1.143V7.348h2.44V4.613h-2.44l.013-2.787ZM3.469 7.874c0-.5.41-.693 1.091-.693.976 0 2.209.295 3.185.822V4.985a8.468 8.468 0 0 0-3.185-.59c-2.607 0-4.34 1.36-4.34 3.634 0 3.544 4.88 2.979 4.88 4.507 0 .59-.514.783-1.233.783-1.066 0-2.427-.437-3.506-1.027v3.056a8.902 8.902 0 0 0 3.506.732c2.67 0 4.507-1.323 4.507-3.621-.013-3.827-4.905-3.146-4.905-4.585Z" fill="#C5C5D0"/></svg>