<svg width="103" height="20" fill="none" xmlns="http://www.w3.org/2000/svg"><g clip-path="url(#a)" fill="#C5C5D0"><path d="M26.796 11.816c.106.991 1.008 2.69 3.625 2.69 2.28 0 3.377-1.451 3.377-2.867 0-1.275-.867-2.32-2.582-2.673L29.98 8.7c-.478-.089-.796-.354-.796-.779 0-.496.495-.867 1.114-.867.99 0 1.361.655 1.432 1.168l1.963-.443c-.106-.938-.937-2.513-3.413-2.513-1.874 0-3.253 1.292-3.253 2.85 0 1.221.76 2.23 2.44 2.602l1.15.266c.671.141.936.46.936.85 0 .46-.371.867-1.149.867-1.025 0-1.538-.637-1.591-1.328l-2.016.443ZM41.313 14.241h2.246a14.33 14.33 0 0 1-.088-1.575V5.53h-2.352v5.063c0 1.01-.601 1.718-1.645 1.718-1.096 0-1.591-.78-1.591-1.753V5.53H35.53v5.506c0 1.894 1.203 3.434 3.307 3.434.92 0 1.927-.354 2.405-1.168 0 .354.035.761.07.938ZM48.332 17.605v-4.213c.424.584 1.309 1.062 2.51 1.062 2.459 0 4.103-1.947 4.103-4.585 0-2.585-1.468-4.532-4.014-4.532-1.308 0-2.28.584-2.67 1.257V5.532h-2.28v12.073h2.351Zm4.297-7.718c0 1.557-.955 2.46-2.158 2.46-1.202 0-2.174-.92-2.174-2.46s.972-2.443 2.174-2.443c1.203 0 2.158.902 2.158 2.443ZM56.276 11.869c0 1.363 1.132 2.62 2.989 2.62 1.29 0 2.121-.602 2.563-1.292 0 .336.036.814.089 1.044h2.157a9.762 9.762 0 0 1-.106-1.38V8.575c0-1.753-1.026-3.31-3.784-3.31-2.334 0-3.59 1.504-3.73 2.867l2.086.443c.07-.761.636-1.416 1.662-1.416.99 0 1.467.513 1.467 1.133 0 .3-.159.549-.654.62l-2.14.318c-1.45.213-2.599 1.08-2.599 2.638Zm3.484.867c-.76 0-1.132-.495-1.132-1.009 0-.672.477-1.009 1.079-1.097l1.962-.301v.39c0 1.54-.92 2.017-1.91 2.017ZM68.62 14.242V13.18c.46.743 1.379 1.274 2.581 1.274 2.476 0 4.103-1.965 4.103-4.603 0-2.584-1.468-4.55-4.014-4.55-1.291 0-2.246.567-2.635 1.187V1.425H66.34v12.817h2.28Zm4.332-4.373c0 1.593-.955 2.479-2.157 2.479-1.185 0-2.175-.903-2.175-2.479 0-1.593.99-2.46 2.175-2.46 1.202 0 2.157.867 2.157 2.46ZM76.636 11.869c0 1.363 1.131 2.62 2.988 2.62 1.29 0 2.122-.602 2.564-1.292 0 .336.035.814.088 1.044h2.157a9.806 9.806 0 0 1-.106-1.38V8.575c0-1.753-1.025-3.31-3.784-3.31-2.334 0-3.589 1.504-3.73 2.867l2.086.443c.07-.761.637-1.416 1.662-1.416.99 0 1.468.513 1.468 1.133 0 .3-.16.549-.655.62l-2.139.318c-1.45.213-2.6 1.08-2.6 2.638Zm3.483.867c-.76 0-1.132-.495-1.132-1.009 0-.672.478-1.009 1.079-1.097l1.963-.301v.39c0 1.54-.92 2.017-1.91 2.017ZM85.955 11.816c.106.991 1.008 2.69 3.625 2.69 2.28 0 3.377-1.451 3.377-2.867 0-1.275-.866-2.32-2.582-2.673L89.138 8.7c-.478-.089-.796-.354-.796-.779 0-.496.495-.867 1.114-.867.99 0 1.362.655 1.432 1.168l1.963-.443c-.106-.938-.937-2.513-3.413-2.513-1.874 0-3.253 1.292-3.253 2.85 0 1.221.76 2.23 2.44 2.602l1.15.266c.671.141.936.46.936.85 0 .46-.37.867-1.149.867-1.025 0-1.538-.637-1.591-1.328l-2.016.443ZM96.529 8.895c.053-.797.725-1.717 1.945-1.717 1.343 0 1.909.85 1.945 1.717h-3.89Zm4.12 2.266c-.283.779-.885 1.328-1.98 1.328-1.168 0-2.14-.833-2.193-1.983h6.224c0-.036.035-.39.035-.726 0-2.797-1.609-4.514-4.297-4.514-2.228 0-4.279 1.805-4.279 4.585 0 2.938 2.104 4.656 4.491 4.656 2.14 0 3.519-1.257 3.961-2.762l-1.962-.584ZM11.275 19.52c-.506.637-1.532.288-1.544-.526L9.553 7.09h8.003c1.45 0 2.258 1.674 1.357 2.81l-7.638 9.618Z"/><path d="M11.275 19.52c-.506.637-1.532.288-1.544-.526L9.553 7.09h8.003c1.45 0 2.258 1.674 1.357 2.81l-7.638 9.618Z"/><path d="M8.02.366C8.526-.27 9.553.078 9.565.892l.078 11.903H1.74c-1.45 0-2.259-1.675-1.357-2.81L8.02.366Z"/></g><defs><clipPath id="a"><path fill="#fff" d="M0 0h102.832v20H0z"/></clipPath></defs></svg>