<svg width="80" height="20" fill="none" xmlns="http://www.w3.org/2000/svg"><path d="M5.952 16.044c3.388 0 5.549-1.849 5.549-4.737 0-2.015-.977-3.345-3.034-4.155l-2.515-.998c-1.579-.624-2.078-1.06-2.078-1.809 0-.83.706-1.391 1.787-1.391 1.268 0 2.12.706 2.328 1.953l3.261-.644C10.896 1.644 8.86.107 5.765.107 2.482.107.405 1.874.405 4.658c0 1.891 1.017 3.221 3.054 3.99L6.18 9.685c1.372.52 1.828.998 1.828 1.891 0 1.018-.748 1.621-2.036 1.621-1.497 0-2.452-.976-2.452-2.514H.03c0 3.366 2.204 5.36 5.922 5.36Zm8.437-.415h2.95l1.995-6.337 1.995 6.337h2.95L28.02 5.24h-3.406l-1.912 6.4-1.788-6.4h-3.158l-1.787 6.4-1.891-6.4h-3.428l3.74 10.39Zm17.91.27c1.434 0 2.743-.685 3.304-1.745v1.475h3.282V5.24h-3.242v1.537c-.581-1.121-1.828-1.828-3.303-1.828-2.91 0-4.925 2.245-4.925 5.486.002 3.282 1.933 5.464 4.884 5.464Zm.957-2.743c-1.476 0-2.473-1.1-2.473-2.721 0-1.642.976-2.722 2.473-2.722 1.496 0 2.473 1.081 2.473 2.722-.002 1.642-.978 2.721-2.473 2.721Zm6.794 6.774h3.283v-5.776c.582 1.06 1.89 1.745 3.324 1.745 2.867 0 4.862-2.224 4.862-5.464 0-3.283-1.933-5.486-4.78-5.486-1.475 0-2.866.749-3.448 1.828V5.24h-3.242v14.69h.001Zm5.652-6.774c-1.475 0-2.494-1.121-2.494-2.721 0-1.621 1.019-2.722 2.494-2.722 1.455 0 2.452 1.122 2.452 2.722 0 1.6-.997 2.721-2.452 2.721Zm6.607 6.774h3.283v-5.776c.581 1.06 1.89 1.745 3.324 1.745 2.867 0 4.862-2.224 4.862-5.464 0-3.283-1.933-5.486-4.78-5.486-1.475 0-2.867.749-3.448 1.828V5.24h-3.242v14.69h.001Zm5.652-6.774c-1.476 0-2.494-1.121-2.494-2.721 0-1.621 1.018-2.722 2.494-2.722 1.454 0 2.452 1.122 2.452 2.722 0 1.6-.998 2.721-2.452 2.721Zm6.607 2.473h3.282V5.24h-3.282v10.39Zm1.642-11.2c1.163 0 2.057-.873 2.057-1.994 0-1.143-.894-2.037-2.057-2.037-1.143 0-2.016.873-2.016 2.037 0 1.142.873 1.994 2.016 1.994Zm8.145 11.47c2.785 0 4.842-1.351 5.174-3.407h-3.242c-.27.624-.894.936-1.912.936-1.455 0-2.265-.582-2.473-2.1h7.688c.083-.914.083-1.06.083-1.433 0-2.846-2.161-4.946-5.465-4.946-3.387 0-5.569 2.12-5.569 5.486.002 3.428 2.143 5.464 5.716 5.464Zm-.124-8.727c1.35 0 2.119.706 2.224 2.119h-4.552c.207-1.474.915-2.12 2.328-2.12Z" fill="#C5C5D0"/></svg>