<svg width="111" height="20" fill="none" xmlns="http://www.w3.org/2000/svg"><g clip-path="url(#a)"><path fill-rule="evenodd" clip-rule="evenodd" d="M38.584 8.59c-.084.44-.118.88-.118 1.355 0 3.829 2.86 6.76 6.615 6.76 2.555 0 4.619-1.339 5.668-3.32l2.774 1.643c-1.573 2.981-4.77 4.964-8.442 4.964-5.668 0-9.88-4.388-9.88-10.047 0-.457.034-.915.084-1.355h3.3Zm-9 5.336 2.792 1.644c-1.658 2.66-4.518 4.422-8.274 4.422v-3.22h.051c2.606 0 4.484-1.253 5.431-2.846ZM101.47 0c4.923 0 8.949 4.015 8.949 8.945v11.047h-3.417V9.08c0-2.728-2.115-5.693-5.532-5.693-3.418 0-5.533 2.948-5.533 5.693v10.91H92.52V8.946c0-4.93 4.01-8.945 8.95-8.945ZM79.73 0c2.774 0 5.143.966 7.072 2.88 1.945 1.932 2.91 4.286 2.91 7.116s-.965 5.184-2.91 7.115c-1.946 1.932-4.298 2.88-7.072 2.88-2.775 0-5.127-.965-7.055-2.88-1.929-1.931-2.893-4.286-2.893-7.115 0-2.83.964-5.184 2.893-7.116C74.587.966 76.955 0 79.73 0ZM12.429 0v3.32h-5.11v10.742c0 3.016 1.692 2.812 5.11 2.66v3.083c-5.77.797-8.46-.796-8.46-5.743V3.32H.164V0H12.43Zm55.12 0v3.32h-5.11v10.742c0 3.016 1.692 2.812 5.11 2.66v3.083c-5.77.797-8.46-.796-8.46-5.743V3.32h-3.806V0h12.266Zm12.096 3.202c-1.878 0-3.451.644-4.754 1.948-1.286 1.305-1.929 2.914-1.929 4.846 0 1.931.643 3.558 1.93 4.845 1.285 1.305 2.875 1.949 4.753 1.949 1.895 0 3.502-.644 4.788-1.949 1.286-1.304 1.929-2.914 1.929-4.845 0-1.932-.643-3.558-1.929-4.846-1.286-1.287-2.893-1.948-4.788-1.948ZM23.765 0c5.684 0 9.355 4.659 9.355 9.928 0 .491-.034.983-.118 1.457H17.25v.017h-3.23c-.069-.491-.12-1-.12-1.508C13.9 4.32 17.894 0 23.765 0Zm0 3.083c-3.537 0-5.973 2.186-6.498 5.456h12.554c-.575-3.727-3.248-5.456-6.057-5.456ZM45.097 0c3.773 0 6.97 2.084 8.408 5.269l-2.774 1.694c-.948-2.135-3.08-3.54-5.634-3.54-.304 0-.609.033-.897.067V.05c.288-.033.593-.05.897-.05Z" fill="#C5C5D0"/></g><defs><clipPath id="a"><path fill="#fff" transform="translate(.163)" d="M0 0h110.526v20H0z"/></clipPath></defs></svg>