<svg width="51" height="20" fill="none" xmlns="http://www.w3.org/2000/svg"><mask id="a" style="mask-type:luminance" maskUnits="userSpaceOnUse" x="0" y="0" width="51" height="20"><path d="M50.502.224H0v19.552h50.502V.224Z" fill="#fff"/></mask><g mask="url(#a)" fill="#C5C5D0"><path d="M50.5.224h-2.789c-.773 0-1.497.383-1.931 1.024L42.049 6.75a.25.25 0 0 1-.414 0l-3.731-5.503A2.332 2.332 0 0 0 35.972.224h-2.79l6.646 9.803-6.609 9.75h2.79c.774 0 1.497-.384 1.932-1.025l3.694-5.449a.25.25 0 0 1 .414 0l3.694 5.45a2.333 2.333 0 0 0 1.932 1.023h2.79l-6.61-9.749L50.5.224ZM27.443 2.224v17.552h1.334a2 2 0 0 0 2-2V.224h-1.333a2 2 0 0 0-2 2ZM25 .224h-1.186A2.797 2.797 0 0 0 21.085 2.4l-2.654 11.668-2.324-10.892C15.678 1.164 13.613-.193 11.5.39 10.153.762 9.155 1.9 8.864 3.265l-2.3 10.79L3.915 2.4A2.799 2.799 0 0 0 1.187.224H0l4.447 19.551h1.684a3.24 3.24 0 0 0 3.17-2.564l2.842-13.34a.362.362 0 0 1 .352-.285c.169 0 .317.12.352.285l2.845 13.34a3.24 3.24 0 0 0 3.17 2.564h1.69L25 .224Z"/></g></svg>